<?xml version="1.0" encoding="UTF-8" standalone="no"?>
<!-- Generator: Adobe Illustrator 14.0.0, SVG Export Plug-In . SVG Version: 6.00 Build 43363)  -->

<svg
   version="1.0"
   id="Layer_1"
   x="0px"
   y="0px"
   width="206px"
   height="397px"
   viewBox="0 0 206 397"
   enable-background="new 0 0 206 397"
   xml:space="preserve"
   sodipodi:docname="Ankh_color.svg"
   inkscape:version="1.4.2 (ebf0e940, 2025-05-08)"
   xmlns:inkscape="http://www.inkscape.org/namespaces/inkscape"
   xmlns:sodipodi="http://sodipodi.sourceforge.net/DTD/sodipodi-0.dtd"
   xmlns="http://www.w3.org/2000/svg"
   xmlns:svg="http://www.w3.org/2000/svg"
   xmlns:rdf="http://www.w3.org/1999/02/22-rdf-syntax-ns#"
   xmlns:cc="http://creativecommons.org/ns#"
   xmlns:dc="http://purl.org/dc/elements/1.1/"><metadata
   id="metadata828"><rdf:RDF><cc:Work
       rdf:about=""><dc:format>image/svg+xml</dc:format><dc:type
         rdf:resource="http://purl.org/dc/dcmitype/StillImage" /><dc:title /></cc:Work></rdf:RDF></metadata><defs
   id="defs826" /><sodipodi:namedview
   pagecolor="#ffffff"
   bordercolor="#666666"
   borderopacity="1"
   objecttolerance="10"
   gridtolerance="10"
   guidetolerance="10"
   inkscape:pageopacity="0"
   inkscape:pageshadow="2"
   inkscape:window-width="1120"
   inkscape:window-height="764"
   id="namedview824"
   showgrid="false"
   inkscape:zoom="1.4508816"
   inkscape:cx="103.38542"
   inkscape:cy="198.15538"
   inkscape:window-x="15"
   inkscape:window-y="70"
   inkscape:window-maximized="0"
   inkscape:current-layer="Layer_1"
   inkscape:showpageshadow="2"
   inkscape:pagecheckerboard="0"
   inkscape:deskcolor="#d1d1d1" />
<g
   id="g3066"
   transform="translate(0.62152778,-0.0677083)"
   style="fill:#f7db6a;fill-opacity:1">
	<g
   id="g3068"
   style="fill:#f7db6a;fill-opacity:1">
		<g
   id="layer4_16_"
   transform="translate(0,-3200)"
   style="fill:#f7db6a;fill-opacity:1">
			<path
   id="path4306_16_"
   d="m 102.929,3211.282 c 34.281,-0.312 64.961,25.445 64.961,64.375 0,34.688 -24.195,71.75 -52.267,105.289 l 82.649,-6.853 v 29.633 l -86.76,-6.905 4.492,188.898 -26.062,-0.062 4.219,-188.837 -86.438,6.905 v -29.633 l 82.844,7.211 C 58.692,3343.656 37.965,3309.6 37.965,3275.178 c 0.003,-38.404 30.308,-63.56 64.964,-63.896 z m 0.766,17.375 c -25.859,-0.055 -49.578,19.25 -49.578,48.75 0,30.758 15.828,62.673 47.5,91.001 32.077,-26.248 50.29,-68.229 50.29,-90.931 0,-29.734 -22.368,-48.765 -48.212,-48.82 z"
   inkscape:connector-curvature="0"
   style="fill:#f7db6a;fill-opacity:1" />
		</g>
	</g>
</g>

</svg>
