<?xml version="1.0" encoding="utf-8" ?><svg xmlns="http://www.w3.org/2000/svg" xmlns:xlink="http://www.w3.org/1999/xlink" width="1024" height="1024" viewBox="0 0 1024 1024"><path fill="white" d="M0 0L1024 0L1024 1024L0 1024L0 0Z"/><path fill="#040403" d="M216.875 48.7108C220.723 48.1309 227.984 48.3313 231.935 48.5287C317.902 52.8245 375.685 132.128 407.811 203.883C426.441 245.493 440.451 287.117 445.705 332.395C447.538 348.182 447.146 363.246 446.434 378.892C453.562 379.686 460.959 380.841 468.084 381.857C520.483 331.719 585.031 238.542 605.068 169.236C612.155 172.201 620.661 177.832 627.072 182.303C659.814 205.137 687.576 236.748 709.062 270.196C715.351 279.988 720.992 289.111 725.658 299.822C705.691 307.568 687.138 314.864 667.83 324.301C626.177 344.657 589.884 372.975 553.975 401.962C538.905 414.128 516.474 431.759 503.849 446.194C516.779 456.831 534.012 468.885 547.655 478.901L621.291 532.939L797.489 660.204C809.664 668.874 821.667 677.896 833.866 686.46L920.026 747.315L951.086 769.461C956.412 773.278 975.925 785.137 975.6 792.792C975.512 794.848 967.244 803.876 964.913 806.262C944.31 827.351 923.375 848.164 902.641 869.139L797.712 976.169C794.339 979.668 789.054 982.533 785.43 977.495C773.461 960.859 761.719 944.039 749.809 927.364L677.774 826.299C672.099 818.245 665.974 810.614 660.368 802.694C613.205 736.057 565.338 668.816 515.851 603.872L462.353 534.001C454.882 524.417 447.565 513.871 439.51 504.879C433.018 511.262 424.86 521.809 418.712 529.148C373.758 582.804 329.359 640.357 304.957 706.605C303.161 711.482 299.176 726.42 296.832 729.201C296.614 729.191 295.741 729.168 295.568 729.09C246.257 706.735 194.45 654.445 165.199 611.337C226.765 592.389 302.484 534.539 350.519 492.324C360.843 483.251 372.39 473.567 381.953 463.728C380.942 457.279 379.627 450.521 378.325 444.124C303.462 452.855 231.774 427.19 167.526 390.664C109.914 357.91 57.3217 305.084 51.9277 235.506C44.7819 143.331 126.497 56.5021 216.875 48.7108Z"/><path fill="white" d="M219.265 167.209C236.081 166.254 262.686 177.04 276.9 186.677C323.117 218.011 361.584 274.002 383.173 324.877C386.47 332.644 390.043 341.576 391.74 349.602C393.898 359.803 392.414 364.35 386.952 372.742C401.023 375.606 413.768 380.076 428.844 382.678C440.485 384.688 459.105 386.699 469.614 389.574C518.82 344.853 569.854 271.377 597.677 210.871C601.941 201.598 605.821 189.55 609.326 179.774C643.89 194.334 695.891 256.093 712.295 289.762C703.037 292.838 692.274 296.003 683.511 299.827C618.599 328.149 562.636 372.567 511.252 420.618C506.042 425.49 492.472 436.285 491.776 443.538C492.66 446.257 498.001 451.058 500.33 452.799C547.06 487.742 594.155 522.488 641.503 556.568L851.539 707.355C878.973 726.739 906.792 745.737 933.931 765.426C943.555 772.408 960.4 783.701 968.46 791.24C965.028 796.09 960.872 800.97 956.722 805.216C931.419 787.817 906.72 768.791 881.675 750.935L670.177 598.644L550.694 511.275C530.596 496.508 509.94 482.137 490.39 466.575C481.945 475.307 470.427 485.316 462.8 493.916C465.423 498.74 475.588 510.85 479.578 515.776L586.938 658.412L710.089 828.091L775.78 917.793C785.612 931.251 796.34 944.705 805.528 958.554C800.713 963.83 795.94 968.791 790.956 973.91C789.48 972.241 788.264 970.404 787.05 968.541C780.773 958.909 774.145 949.541 767.393 940.237L698.752 844.906L598.832 703.813C548.936 634.337 496.802 566.358 444.796 498.455C442.705 495.725 439.786 491.938 436.551 490.726C435.665 490.834 434.505 491.129 433.833 491.692C424.946 499.139 413.987 512.674 406.421 521.281C364.766 568.671 299.688 654.998 287.166 717.076C255.027 701.143 195.335 645.234 176.393 614.694C237.322 593.713 307.377 539.575 355.968 497.453C365.289 489.373 380.633 476.5 388.693 467.727C388.549 462.902 385.224 441.823 384.333 435.587C381.917 418.689 381.2 400.755 378.925 384.304C377.1 386.387 376.082 387.254 374.007 389.033C347.013 394.118 290.412 366.061 267.164 352.115C217.048 322.05 133.386 252.124 180.16 187.65C188.746 175.814 204.938 168.387 219.265 167.209Z"/><path fill="#040403" d="M403.288 476.39C405.033 476.942 419.425 487.144 421.776 488.782C375.983 541.142 293.27 636.804 280.643 705.17C267.761 700.357 246.599 681.953 236.511 672.75C228.358 665.292 220.272 656.522 212.54 648.489C203.629 639.231 192.7 628.639 184.904 618.608C190.964 616.767 197.173 615.321 203.067 613.01C277.805 583.712 344.556 529.76 403.288 476.39Z"/><path fill="white" d="M256.529 602.976C257.556 603.811 264.397 612.494 265.475 613.983C273.238 624.704 282.768 633.531 291.226 643.5C288.633 649.356 285.505 655.758 282.484 661.383L277.553 657.199C265.346 645.718 246.631 626.882 238.106 612.504C243.83 609.311 250.634 606.012 256.529 602.976Z"/><path fill="white" d="M233.476 614.963C234.571 615.544 243.618 628.906 245.778 631.325C256.488 643.312 268.438 656.19 281.006 666.106L274.987 679.4L269.582 675.593C252.308 661.64 230.868 640.385 218.841 621.71C223.39 619.366 228.766 617.087 233.476 614.963Z"/><path fill="white" d="M275.438 591.422C276.078 591.974 282.325 600.947 283.519 602.434C289.548 609.949 295.694 617.312 301.871 624.703C298.839 629.767 296.211 634.294 293.438 639.511L290.626 636.286C280.192 624.529 270.504 612.347 260.113 600.708C264.925 597.622 270.463 594.512 275.438 591.422Z"/><path fill="white" d="M294.527 578.499C296.311 580.118 301.563 587.383 303.289 589.695C307.237 594.987 310.86 599.397 315.177 604.404C312.124 609.153 307.809 616.287 304.459 620.562C303.465 620.312 302.707 619.081 301.86 618.129C293.385 608.525 286.57 599.168 278.91 588.912C284.005 585.311 289.303 581.916 294.527 578.499Z"/><path fill="white" d="M311.401 567.469C317.174 574.306 321.024 579.789 328.206 585.236C326.108 588.322 319.37 598.632 317.237 600.754C311.636 592.43 304.69 584.578 299.061 575.912C303.109 573.043 307.292 570.257 311.401 567.469Z"/><path fill="white" d="M329.589 555.034C333.661 559.254 336.682 562.268 341.015 566.184C339.333 568.795 332.546 580.356 330.26 581.31L329.153 580.531C325.175 576.541 318.388 569.803 315.199 565.362L329.589 555.034Z"/><path fill="white" d="M346.251 542.353C347.789 542.648 351.556 548.377 352.789 550.065C350.933 552.918 346.129 561.279 343.311 562.296L342.189 561.441L332.89 552.274C337.164 548.909 341.849 545.585 346.251 542.353Z"/><path fill="white" d="M377.404 518.594C377.22 519.108 377.425 519.119 376.589 520.158C369.634 528.807 362.652 537.451 355.755 546.149C355.462 546.186 355.17 546.224 354.877 546.262L353.626 544.707L350.261 539.706C358.812 532.682 368.561 525.323 377.404 518.594Z"/><path fill="#040403" d="M613.411 188.639C619.196 190.883 626.812 197.161 631.779 201.123C661.592 224.906 681.745 250.385 701.797 282.184C695.284 284.591 688.11 286.118 681.502 288.525C623.389 309.692 576.185 349.798 530.211 390.099C516.511 402.101 503.167 414.426 489.683 426.665C485.647 420.104 480.388 412.023 476.905 405.322C532.247 353.668 596.676 262.82 613.411 188.639Z"/><path fill="white" d="M610.985 237.424C627.572 250.54 643.883 267.884 654.741 286.064C651.529 287.97 647.669 289.945 644.347 291.75L638.745 294.73C628.234 278.627 619.047 265.932 603.304 254.277C605.893 249.192 608.616 242.722 610.985 237.424Z"/><path fill="white" d="M617.233 221.272C638.56 232.817 662.746 256.006 673.191 278.03L667.351 280.623L660.138 283.802C650.055 269.184 641.392 255.842 627.74 244.162C622.815 239.948 617.952 236.182 612.956 232.098L617.233 221.272Z"/><path fill="white" d="M600.982 259.21C608.532 262.38 629.209 289.279 634.008 297.1L623.405 304.028L618.791 306.77C609.383 292.409 604.567 286.695 592.095 274.996C594.093 270.345 598.294 263.49 600.982 259.21Z"/><path fill="white" d="M589.171 279.227C595.621 283.935 609.554 302.057 614.559 308.541C611.395 311.045 607.646 313.438 604.268 315.701L599.722 318.724C594.2 309.796 587.775 302.792 580.268 295.575L589.171 279.227Z"/><path fill="white" d="M577.746 299.721C581.247 301.963 593.265 317.914 596.101 321.746C593.211 323.934 589.368 326.374 586.308 328.434C584.978 329.355 584.055 330.266 582.498 330.289C579.603 327.871 571.473 317.256 568.783 313.877C571.494 309.31 574.866 304.248 577.746 299.721Z"/><path fill="white" d="M555.094 334.904C558.127 338.222 560.639 341.379 563.434 344.879L535.456 368.795C532.588 371.261 522.495 379.964 520.148 382.654L519.265 382.219C533.083 365.969 542.584 351.111 555.094 334.904Z"/><path fill="white" d="M565.383 318.348C569.771 322.898 575.086 328.669 579.035 333.529C576.467 335.688 572.553 338.383 569.771 340.422C569.478 340.664 568.378 341.28 568.005 341.5C565.126 340.627 559.917 333.622 557.899 331.019C560.389 326.565 562.607 322.663 565.383 318.348Z"/><path fill="#434345" d="M520.148 382.654C518.059 385.055 516.583 386.693 514.282 388.888L513.315 388.695L513.724 389.35L512.876 389.314L513.253 389.701L512.768 389.963L512.665 389.582C514.366 386.739 516.885 384.547 519.265 382.219L520.148 382.654Z"/><path fill="#040403" d="M393.367 388.275C410.293 395.334 428.643 401.569 446.018 407.645C476.407 418.272 484 442.935 472.056 471.989C471.362 473.287 470.319 474.845 469.513 476.121C455.991 478.669 434.044 479.391 423.746 469.285C408.023 453.855 395.071 409.519 393.367 388.275Z"/><path fill="white" d="M409.79 402.37C433.489 410.878 471.006 415.302 471.159 446.605C471.172 449.444 470.988 452.396 470.812 455.233C466.537 447.469 457.493 428.692 446.947 429.019C440.147 429.23 427.034 440.504 428.253 447.904C429.436 455.083 439.376 461.992 444.876 466.207L453.712 471.973C446.439 471.641 437.599 470.436 431.33 466.597C415.488 456.894 408.039 423.333 403.438 406.157C410.522 413.887 424.569 429.464 433.168 434.501C427.424 420.937 419.14 413.314 409.79 402.37Z"/><path fill="white" d="M232.31 118.697C256.957 114.52 297.959 128.364 316.142 145.478C364.573 191.062 399.543 256.615 417.5 320.322C422.295 337.332 425.034 358.064 426.603 375.216C420.702 373.931 415 372.708 409.158 371.165C405.826 324.983 377.48 257.615 352.994 218.836C341.014 199.862 320.426 174.239 303.372 159.416C283.501 142.012 263.038 131.681 236.26 133.664C175.968 138.129 132.703 181.506 137.286 243.75C141.24 312.447 220.959 361.09 277.814 382.996C310.046 395.415 339.114 402.394 373.272 405.611C374.53 411.569 375.355 417.473 375.74 423.548C322.351 424.119 258.956 399.602 214.313 372.132C170.376 344.189 125.049 306.128 118.635 251.138C111.006 185.726 169.238 125.585 232.31 118.697Z"/><path fill="white" d="M220.236 55.2855C288.71 49.916 349.882 111.001 380.786 165.974C415.225 227.236 444.685 306.63 439.945 377.771L432.007 376.34C431.894 371.766 432.083 367.125 431.821 362.42C426.828 272.725 389.126 173.9 324.752 109.978C297.87 83.2855 259.786 66.9469 223.172 68.3672C180.806 69.7026 143.485 90.8811 115.074 121.554C86.3311 152.585 70.7983 188.034 72.1016 230.795L72.2777 233.096C78.0207 301.414 127.139 350.997 185.08 381.435C244.059 412.418 309.64 433.838 376.82 428.133C377.034 431.104 377.389 434.242 377.677 437.222C344.196 440.834 308.341 437.792 275.846 428.744C182.44 402.736 65.9119 340.108 58.4686 231.233C52.6185 145.663 135.872 58.8671 220.236 55.2855Z"/><path fill="white" d="M860.71 758.852C862.545 759.852 865.066 761.92 866.763 763.221C885.601 777.663 904.877 791.472 924.016 805.51C919.867 810.891 914.06 816.708 909.406 821.79C899.852 832.222 889.952 842.201 880.006 852.244L812.387 920.847C810.249 923.059 808.138 925.016 805.888 927.108C795.057 913.249 784.767 899.564 774.685 885.153C769.459 877.682 763.77 870.638 758.662 862.972C784.94 870.687 827.678 858.887 852.79 849.925C859.13 825.645 863.373 803.27 862.473 777.911C862.258 771.844 861.121 765.135 860.71 758.852Z"/><path fill="white" d="M818.183 727.721C821.09 729.133 828.844 734.909 831.68 736.978C839.68 742.815 847.494 749.263 855.682 754.866C858.97 788.187 856.647 813.265 847.429 845.482C819.926 854.569 792.813 862.669 763.381 859.417L755.205 858.131C745.428 846.914 735.263 831.768 725.14 819.565C753.926 822.299 779.853 820.17 808.127 813.639C817.275 788.508 819.871 754.213 818.183 727.721Z"/><path fill="white" d="M775.569 695.211C779.381 697.519 785.662 702.502 789.339 705.261L813.458 723.3C813.437 730.178 813.934 737.291 813.707 744.19C813 765.764 810.595 788.168 803.55 808.619C781.268 813.826 752.103 817.535 729.358 815.331C726.278 815.005 723.708 814.38 720.693 813.705C712.691 802.827 699.782 784.339 690.981 774.654C713.599 779.978 740.897 776.796 762.975 769.623C772.558 749.355 775.69 717.206 775.569 695.211Z"/><path fill="white" d="M730.232 661.201C743.944 672.517 758.006 681.402 771.722 692.212C770.911 698.217 771.173 705.384 770.572 711.393C769.122 725.884 765.31 752.386 759.748 765.278C744.457 771.494 718.619 773.415 701.961 772.402C697.571 771.785 692.213 770.548 687.751 769.686C682.216 760.752 668.714 744.092 662.035 735.335C683.207 737.731 702.553 735.635 722.906 729.722C729.386 709.073 733.513 682.536 730.232 661.201Z"/><path fill="white" d="M690.788 631.163C692.779 632.411 694.609 633.919 696.495 635.317C706.64 642.836 716.557 650.626 726.424 658.506C727.317 685.141 725.833 699.558 719.086 725.592C700.823 731.748 683.685 731.937 664.875 731.455L658.752 730.777C651.086 720.606 637.143 704.828 630.852 694.787C647.118 696.918 670.734 696.598 686.092 691.425C690.766 673.931 692.902 649.058 690.788 631.163Z"/><path fill="white" d="M652.937 602.738C655.765 604.358 662.558 609.518 665.348 611.599L686.473 627.456C687.959 652.681 686.504 663.353 681.989 688.077C667.457 691.761 651.973 691.661 637.083 691.455L627.318 690.313C620.356 680.366 611.015 668.109 603.649 658.468C620.007 658.625 633.757 657.367 649.802 653.924C653.163 638.848 654.588 617.882 652.937 602.738Z"/><path fill="white" d="M616.803 575.298C620.129 577.246 625.344 581.54 628.541 583.995C634.95 588.916 641.057 593.478 647.671 598.12C650.723 613.054 649.164 634.522 645.994 649.594C633.421 652.789 621.48 653.607 608.625 654.301L600.313 654.401C593.591 644.255 585.446 634.177 577.933 624.532C592.173 624.079 603.381 622.918 617.296 619.138C619.664 604.086 618.802 590.255 616.803 575.298Z"/><path fill="white" d="M157.566 95.0144C159.902 97.4768 176.373 126.114 178.597 130.174C162.857 139.497 154.437 147.509 142.087 160.573C140.042 159.358 138.709 158.314 136.832 156.889C128.712 149.464 120.18 142.522 112.013 134.968C126.807 117.648 138.768 107.757 157.566 95.0144Z"/><path fill="white" d="M215.77 75.704C235.761 72.904 263.253 78.6876 280.877 87.848C276.536 96.8913 273.803 104.08 270.377 113.551C257.778 111.951 245.434 110.195 232.706 111.595C227.745 112.14 222.781 112.696 217.818 113.22C214.087 101.487 209.928 88.4611 206.831 76.6255C209.733 76.2376 212.838 75.9884 215.77 75.704Z"/><path fill="white" d="M585.583 552.707C587.575 553.647 593.077 557.84 595.106 559.31L611.942 571.488C614.421 589.394 614.542 597.848 613.194 615.714C601.359 618.441 593.964 619.098 582.055 619.849L574.459 619.957C567.959 612.135 560.457 601.95 554.461 593.705C564.098 592.843 577.23 591.405 586.448 588.615C587.309 575.033 587.681 566.364 585.583 552.707Z"/><path fill="white" d="M553.568 528.357C555.905 529.849 560.132 533.277 562.529 535.029C568.813 539.621 575.246 544.272 581.292 549.148C582.299 562.942 582.613 571.262 582.566 585.161C573.719 586.454 565.372 587.99 556.449 588.798L550.979 589.368C544.088 581.153 536.644 571.24 530.244 562.609C538.703 562.529 547.343 560.752 555.514 558.674C555.614 548.15 554.933 538.757 553.568 528.357Z"/><path fill="white" d="M86.931 179.855C91.8118 182.121 96.6711 185.034 101.532 187.429C107.361 190.301 113.166 192.9 118.871 196.017C115.392 206.366 111.918 216.989 110.99 227.934C110.83 229.816 110.666 233.566 109.874 235.056C99.6349 235.188 89.4526 235.944 79.1491 235.905C77.9989 216.047 79.168 198.62 86.931 179.855Z"/><path fill="white" d="M523.913 506.245C529.363 509.29 543.117 520.363 548.692 524.675C550.419 534.918 550.911 544.758 551.203 555.107C546.315 556.148 530.045 559.714 526.105 557.336C517.939 547.539 512.192 539.712 505.292 529.129C513.98 531.665 518.681 533.395 527.623 533.535C526.795 524.291 525.525 515.375 523.913 506.245Z"/><path fill="white" d="M493.086 483.815C494.927 484.664 500.799 489.236 502.744 490.636C507.892 494.341 513.193 498 518.28 501.773C520.478 510.435 521.673 520.118 522.654 529.02C518.607 528.403 516.102 527.754 512.125 526.667C508.542 525.504 504.209 524.471 500.521 523.493C494.898 517.457 485.342 504.157 479.984 497.146C483.282 493.051 489.206 487.559 493.086 483.815Z"/><path fill="white" d="M116.233 278.433C116.46 278.436 117.288 278.7 117.546 278.773C119.217 281.859 120.785 286.532 122.348 289.922C125.054 295.79 127.967 301.279 130.974 306.998C127.546 309.434 120.491 316.221 116.612 319.449L113.85 316.227C107.68 308.901 98.1223 295.242 94.1186 286.542C101.391 283.63 108.847 281.044 116.233 278.433Z"/><path fill="white" d="M317.102 112.989C320.352 115.189 327.087 122.077 330.309 125.235C326.846 129.996 322.452 135.305 318.551 139.667C315.968 138.07 309.521 131.916 305.658 129.21C308.446 124.144 313.512 117.636 317.102 112.989Z"/><path fill="#B9B9BA" d="M213.964 150.25C302.939 148.293 382.659 271.902 399.319 349.181C400.355 353.987 402.836 366.271 402.292 370.731C401.346 369.187 400.405 359.951 399.965 357.412C386.195 277.918 303.269 149.86 214.238 150.719L213.964 150.25Z"/><path fill="#B9B9BA" d="M174.793 282.731C214.85 341.687 285.956 380.734 354.763 395.939C359.558 396.998 363.723 397.123 368.617 397.25L368.425 397.672C362.708 398.72 354.201 396.856 348.34 395.444C288.157 380.951 226.079 348.006 186.07 299.961C181.716 294.731 178.362 288.82 174.277 283.713L174.793 282.731Z"/><path fill="#434345" d="M174.277 283.713C171.07 279.335 163.996 267.308 164.18 262.015L164.487 262.024C168.01 271.674 169.213 273.765 174.793 282.731L174.277 283.713Z"/></svg>