<?xml version="1.0" encoding="UTF-8" standalone="no"?>
<svg
   width="14.952658"
   height="7.1801734"
   version="1.1"
   id="svg1"
   sodipodi:docname="US22N35OL.svg"
   inkscape:version="1.4.2 (ebf0e940, 2025-05-08)"
   xmlns:inkscape="http://www.inkscape.org/namespaces/inkscape"
   xmlns:sodipodi="http://sodipodi.sourceforge.net/DTD/sodipodi-0.dtd"
   xmlns="http://www.w3.org/2000/svg"
   xmlns:svg="http://www.w3.org/2000/svg">
  <defs
     id="defs1" />
  <sodipodi:namedview
     id="namedview1"
     pagecolor="#ffffff"
     bordercolor="#000000"
     borderopacity="0.25"
     inkscape:showpageshadow="2"
     inkscape:pageopacity="0.0"
     inkscape:pagecheckerboard="0"
     inkscape:deskcolor="#d1d1d1"
     inkscape:zoom="13.066945"
     inkscape:cx="7.2702533"
     inkscape:cy="6.0457896"
     inkscape:window-width="896"
     inkscape:window-height="643"
     inkscape:window-x="0"
     inkscape:window-y="34"
     inkscape:window-maximized="0"
     inkscape:current-layer="svg1" />
  <path
     style="fill:#000000;stroke:none;stroke-width:1.27975"
     d="m 10.24258,5.3543551 0.940646,-1.7117037 0.940645,1.7117037 0.923226,-1.7117037 1.829032,3.5375218 H 13.987741 L 13.047097,5.3543551 12.123871,7.1801732 11.183226,5.3543551 10.24258,7.1801732 9.319355,5.3258273 8.37871,7.1801732 7.438065,5.3543551 6.497419,7.1801732 5.556774,5.3258273 4.633548,7.1801732 3.692903,5.3543551 2.752258,7.1801732 1.829032,5.3543551 0.888387,7.1801732 H 0 L 1.829032,3.6426514 2.752258,5.3543551 3.692903,3.6426514 4.633548,5.3543551 5.556774,3.6426514 6.497419,5.3543551 7.438065,3.6426514 8.37871,5.3543551 9.319355,3.6426514 Z"
     id="path1" />
  <path
     style="fill:#000000;stroke:none;stroke-width:1.29352"
     d="M 10.319109,1.7487339 11.259755,0 12.2004,1.7487339 13.123626,0 14.952658,3.6140508 H 14.06427 L 13.123626,1.7487339 12.2004,3.6140508 11.259755,1.7487339 10.319109,3.6140508 9.395884,1.7195888 8.455239,3.6140508 7.514594,1.7487339 6.573948,3.6140508 5.633303,1.7195888 4.710077,3.6140508 3.769432,1.7487339 2.828787,3.6140508 1.905561,1.7487339 0.96491598,3.6140508 h -0.888387 L 1.905561,0 2.828787,1.7487339 3.769432,0 4.710077,1.7487339 5.633303,0 6.573948,1.7487339 7.514594,0 8.455239,1.7487339 9.395884,0 Z"
     id="path1-7" />
</svg>
