<?xml version='1.0' encoding='UTF-8'?>
<svg xmlns="http://www.w3.org/2000/svg" xmlns:xlink="http://www.w3.org/1999/xlink" xmlns:inkscape="http://www.inkscape.org/namespaces/inkscape" width="13.93" height="13.92">
<path style="fill:#000000; stroke:none" d=" M 6.94 2.44  C 9.33 2.44 11.24 4.42 11.24 6.84  C 11.24 9.26 9.33 11.25 6.94 11.25  C 6.94 11.25 6.94 11.25 6.94 11.25  C 4.55 11.25 2.64 9.26 2.64 6.84  C 2.64 4.42 4.55 2.44 6.94 2.44  Z  M 6.94 1.59  C 4.16 1.59 1.87 3.93 1.87 6.84  C 1.87 9.76 4.16 12.1 6.94 12.1  C 9.72 12.1 12.01 9.76 12.01 6.84  C 12.01 3.93 9.72 1.59 6.94 1.59  Z  M 6.93 0.8  C 10.29 0.8 13 3.51 13 6.85  C 13 9.09 11.78 11.05 9.96 12.09  L 9.99 12.09  C 9.96 12.11 9.92 12.13 9.89 12.15  L 13.15 12.13  L 13.13 13.16  L 0.76 13.16  L 0.76 12.15  L 3.94 12.15  C 3.93 12.14 3.91 12.13 3.89 12.12  L 3.96 12.12  C 2.12 11.09 0.87 9.11 0.87 6.85  C 0.87 3.51 3.58 0.8 6.93 0.8  C 6.93 0.8 6.93 0.8 6.93 0.8  Z  M 6.93 0  C 3.15 0 0.07 3.07 0.07 6.85  C 0.07 8.59 0.72 10.17 1.79 11.38  L 0 11.39  L 0 13.92  L 13.92 13.92  L 13.93 11.37  L 12.08 11.38  C 13.15 10.17 13.8 8.59 13.8 6.85  C 13.8 3.07 10.72 0 6.93 0  Z "/></svg>
