<?xml version="1.0" encoding ="US-ASCII" standalone="yes"?>
<svg width="17.914555" height="10.08">
<path style="fill:#000000; stroke:none" d=" M 17.003069 4.078491  L 16.559294 6.31849  Q 17.341181 7.459625 17.150997 9.488303  Q 17.129864 10.08 16.073256 10.08  L 14.826462 10.08  Q 14.868725 9.593964 15.122312 9.15019  Q 15.375897 8.706417 15.227973 8.262643  Q 15.080047 7.818867 14.657404 8.019625  Q 14.234764 8.220378 14.002311 9.488303  Q 14.002311 10.08 13.19929 10.08  L 12.058159 10.08  Q 12.058159 9.488303 12.195518 9.055096  Q 12.332876 8.621888 12.11099 8.442266  Q 11.889103 8.262643 11.413632 8.27321  Q 10.938161 8.283775 10.209104 8.442266  Q 9.480048 8.600757 9.596275 9.192456  Q 9.712501 9.784151 9.649104 9.910943  Q 9.416652 10.08 8.909482 10.08  L 7.514763 10.08  Q 7.430234 9.932076 7.387972 9.763019  Q 7.747217 8.875474 7.620424 8.611322  Q 7.493631 8.34717 7.134386 8.452831  Q 6.775141 8.558492 6.669481 9.847547  Q 6.45816 10.08 5.972122 10.08  L 4.746463 10.08  Q 4.51401 9.784151 4.587973 9.49887  Q 4.661934 9.213586 5.095141 8.695849  Q 5.528348 8.178113 5.464952 7.734341  Q 5.084575 6.698867 4.683067 7.036981  Q 4.070236 7.375094 3.60533 8.685286  Q 3.436273 9.192456 2.823444 9.192456  Q 2.654387 9.192456 2.200047 9.118491  Q 1.745707 9.044529 1.492123 9.044529  Q 1.027217 9.023397 0.530613 8.442266  Q 0.034009 7.861131 0.012877 7.523018  Q -0.071651 6.889056 0.372123 6.001509  Q 0.815896 5.113962 0.815896 4.627925  Q 0.815896 4.353209 0.710236 4.015095  Q 0.625708 3.190943 1.492123 3.085283  Q 4.767595 -0.084528 11.107217 0  Q 13.431743 0.211321 15.692882 1.310189  Q 17.954012 2.409057 17.911749 5.536604  Q 17.954012 6.233962 17.499674 6.233962  Q 17.045336 6.233962 17.045336 5.536604  L 17.003069 4.078491  Z  M 13.474009 8.621888  Q 13.431743 8.34717 13.157027 8.34717  Q 13.009103 8.34717 12.998536 8.442266  Q 12.98797 8.537359 12.892877 8.780378  Q 12.797781 9.023397 12.797781 9.15019  Q 12.797781 9.319247 12.924574 9.467171  Q 13.009103 9.488303 13.051366 9.488303  Q 13.368348 9.488303 13.474009 8.621888  Z  M 16.834011 3.676981  Q 16.876276 3.106415 15.386465 2.049811  Q 13.89665 0.993208 10.62118 0.739623  Q 6.500424 0.676226 4.270992 2.144906  Q 2.041556 3.613585 1.428727 4.078491  Q 1.534387 4.353209 1.534387 4.701887  Q 1.534387 5.050566 1.196274 5.832452  Q 0.85816 6.614339 0.815896 6.973585  Q 1.048349 6.973585 1.185708 7.132075  Q 1.323066 7.290565 1.249104 7.501886  Q 1.175141 7.713209 1.175141 7.998491  Q 1.175141 8.283775 1.428727 8.32604  Q 1.682311 8.368302 1.988727 8.368302  Q 2.295142 8.368302 2.400802 7.987925  Q 2.464198 7.142642 2.749481 7.079245  Q 3.034764 7.015849 3.457405 7.248301  Q 4.535142 6.635471 4.788728 4.839246  Q 5.169104 5.050566 5.570612 6.783396  Q 6.014386 7.375094 6.426462 7.269433  Q 6.838537 7.163773 6.838537 6.867924  Q 6.606084 5.853584 6.606084 5.663397  Q 6.880801 4.923773 7.430234 5.6  Q 7.430234 6.804527 7.969105 6.952452  Q 8.507975 7.100378 8.761559 6.920754  Q 9.015143 6.741132 9.300425 6.815093  Q 9.585711 6.889056 9.723066 7.258868  Q 9.860424 7.628679 10.177405 7.586415  Q 10.790235 7.480754 12.4808 7.459625  Q 13.875518 7.459625 14.488348 7.248301  Q 14.488348 6.889056 14.308726 6.466415  Q 14.129103 6.043773 14.129103 5.800754  Q 14.129103 5.557735 14.424952 5.54717  Q 14.720799 5.536604 15.17514 6.339622  Q 15.629481 7.142642 15.904199 8.262643  Q 15.967596 8.938871 15.756275 9.488303  L 16.453634 9.488303  Q 16.559294 7.924529 16.263443 7.459625  Q 15.967596 6.994716 15.978163 6.614339  Q 15.988728 6.233962 16.189482 5.483773  Q 16.390236 4.733585 16.379671 4.226416  Q 16.369104 3.719245 16.601559 3.719245  Q 16.834011 3.719245 16.834011 3.676981  Z  M 8.909482 8.643022  L 8.550238 8.621888  L 8.085331 9.488303  L 8.909482 9.488303  Q 8.867217 9.276982 8.909482 8.643022  Z  M 6.500424 8.389434  L 5.972122 8.34717  L 5.190236 9.488303  L 6.120047 9.488303  L 6.500424 8.389434  Z  M 3.267216 4.923773  L 2.612123 5.726792  Q 2.189481 6.043773 2.030991 6.001509  Q 1.8725 5.959244 1.798538 5.790188  Q 1.724575 5.621133 1.861934 5.462642  Q 1.999293 5.30415 1.830236 4.839246  Q 2.041556 4.58566 2.295142 4.310944  Q 2.548727 4.036228 3.013632 4.120755  Q 3.330613 4.395472 3.267216 4.923773  Z "/></svg>
