<?xml version="1.0" encoding ="US-ASCII" standalone="yes"?>
<svg width="11.098033" height="17.977417">
<path style="fill:#000000; stroke:none" d=" M 7.555041 5.786231  Q 7.692535 4.342537 8.288345 3.73527  Q 8.884155 3.128002 8.654998 2.830097  Q 8.42584 2.532192 8.036272 2.92176  Q 7.302968 2.303034 6.271758 2.234287  Q 6.157179 2.669687 5.950937 2.910302  Q 5.744696 3.150918 5.515538 3.586317  L 5.905106 3.792559  Q 5.950937 4.709189 6.581121 4.663358  Q 7.211305 4.617527 7.337341 4.926889  Q 7.463378 5.236252 7.555041 5.786231  Z  M 9.227892 17.335775  L 8.654998 16.946207  Q 9.457049 14.562968 9.537254 10.461046  Q 9.61746 6.359125 9.296639 6.301835  Q 8.975819 6.244546 8.861239 8.123638  L 7.532125 8.123638  L 7.532125 6.496619  Q 6.546747 9.131932 6.340506 14.631716  L 5.561369 14.631716  L 2.398994 10.369383  Q 1.711521 9.269426 1.184459 9.636079  Q 0.657396 10.002731 1.619858 11.606834  Q 2.58232 13.210938 3.361456 16.625387  L 1.184459 17.335775  L 9.227892 17.335775  Z  M 10.144523 8.994437  L 10.511174 8.994437  Q 10.648669 3.67798 10.052859 2.578023  Q 9.457049 1.478067 8.231056 1.248909  Q 7.005063 1.019752 6.661326 1.775972  Q 7.463378 1.913466 8.059188 2.348866  Q 8.58625 2.119708 8.941444 2.440529  Q 9.296639 2.76135 9.113313 3.276954  Q 8.929987 3.792559 8.471671 4.296706  Q 8.013356 4.800853 7.99044 7.619492  L 8.380009 7.619492  Q 8.517503 5.579988 9.250808 5.602904  Q 9.984112 5.62582 10.098691 6.702861  L 10.144523 8.994437  Z  M 6.248842 2.830097  Q 6.432168 2.257203 7.417546 2.875928  Q 6.340506 3.380075 6.248842 2.830097  Z  M 5.928022 1.936382  Q 5.561369 1.753056 5.492622 1.214535  Q 5.423875 0.676015 5.66449 0.527063  Q 5.905106 0.37811 5.698864 0.401026  Q 5.492622 0.423942 5.435333 0.320821  Q 5.378043 0.2177 5.515538 0.137495  Q 5.653033 0.057289 5.824901 0.011458  Q 5.996769 -0.034374 6.157179 0.103121  Q 6.31759 0.240616 6.31759 0.37811  Q 6.340506 0.676015 6.122806 0.962462  Q 5.905106 1.248909 6.294674 1.432235  Q 6.775905 0.607268 7.910235 0.664557  Q 9.044565 0.721847 10.052859 1.684309  Q 11.221563 2.32595 11.084068 9.544415  L 10.190354 9.544415  Q 10.304933 13.165107 9.548713 16.60247  L 10.602838 17.977417  L 0.794891 17.977417  L 0.680312 17.060787  L 2.42191 16.304565  Q 1.780268 13.646338 0.85218 11.927655  Q -0.075908 10.208973 0.004297 9.716284  Q 0.084502 9.223595 0.829264 8.799653  Q 1.574027 8.375711 2.467741 9.086101  L 5.698864 13.440096  Q 5.905106 8.123638 7.096726 5.946641  Q 7.096726 5.007094 6.478 5.075842  L 5.492622 7.000766  Q 4.782234 8.215302 3.842687 7.459081  Q 3.911434 7.115345 4.197882 7.184092  Q 4.484329 7.25284 4.805149 6.97785  L 5.630117 4.846684  Q 5.653033 4.021717 5.274922 3.907138  Q 4.896812 3.792559 5.366586 3.116544  Q 5.836359 2.440529 5.813443 2.257203  Q 5.790527 2.096792 5.928022 1.936382  Z "/></svg>
