<?xml version='1.0' encoding='UTF-8'?>
<svg xmlns="http://www.w3.org/2000/svg" xmlns:xlink="http://www.w3.org/1999/xlink" xmlns:inkscape="http://www.inkscape.org/namespaces/inkscape" width="14.876129" height="2.16">
<path style="fill:#000000; stroke:none" d=" M 10.24258 1.045161  L 11.183226 0  L 12.123871 1.045161  L 13.047097 0  L 14.876129 2.16  L 13.987741 2.16  L 13.047097 1.045161  L 12.123871 2.16  L 11.183226 1.045161  L 10.24258 2.16  L 9.319355 1.027742  L 8.37871 2.16  L 7.438065 1.045161  L 6.497419 2.16  L 5.556774 1.027742  L 4.633548 2.16  L 3.692903 1.045161  L 2.752258 2.16  L 1.829032 1.045161  L 0.888387 2.16  L 0 2.16  L 1.829032 0  L 2.752258 1.045161  L 3.692903 0  L 4.633548 1.045161  L 5.556774 0  L 6.497419 1.045161  L 7.438065 0  L 8.37871 1.045161  L 9.319355 0  L 10.24258 1.045161  L 10.24258 1.045161  Z "/></svg>
