<?xml version="1.0" encoding ="US-ASCII" standalone="yes"?>
<svg width="19.077732" height="17.976807">
<path style="fill:#000000; stroke:none" d=" M 5.634131 3.489042  Q 6.482513 3.858849 6.732677 3.021343  Q 6.982841 2.183837 8.266293 3.369398  Q 9.549743 4.554958 12.399439 6.599778  Q 15.249134 8.644598 15.98875 10.31961  L 16.967653 12.299169  Q 17.359215 12.494949 17.576748 12.255662  Q 17.2722 11.276759 16.271544 9.449473  Q 15.227381 7.774462 7.852978 2.205591  Q 7.287389 1.94455 6.580404 2.162084  Q 5.873418 2.379618 5.634131 3.489042  Z  M 15.227381 9.971555  Q 14.90108 9.123173 12.062261 6.991339  Q 9.223442 4.859506 7.309143 3.293261  Q 7.026349 3.03222 7.069855 3.445535  Q 7.222129 3.858849 8.429443 5.27282  Q 9.636757 6.686791 11.257385 8.089886  Q 12.878014 9.49298 15.227381 9.971555  Z  M 6.547774 4.11989  Q 7.918238 7.709201 9.876044 9.841035  L 10.115332 7.730955  Q 8.549087 6.121203 6.743554 3.945863  L 6.547774 4.11989  Z  M 10.311112 7.861475  L 10.050072 9.993308  L 10.637413 10.602404  L 10.767934 8.34005  L 10.311112 7.861475  Z  M 10.963714 8.470571  L 10.833194 10.754678  L 11.268262 11.363772  L 11.420535 8.862132  L 10.963714 8.470571  Z  M 11.572809 8.949145  L 11.442289 11.494293  Q 11.725083 12.081635 11.964371 12.712483  L 12.268918 12.864758  L 12.160151 9.318954  Q 11.659822 8.927392 11.572809 8.949145  Z  M 12.355932 9.42772  L 12.464699 12.995277  L 13.400095 13.64788  L 12.85626 9.688761  L 12.355932 9.42772  Z  M 13.073794 9.797528  L 13.595876 13.756647  L 14.313738 14.213469  L 13.617629 9.971555  L 13.073794 9.797528  Z  M 13.791656 10.058569  L 14.531272 14.278728  L 15.488421 14.931331  Q 14.400751 10.341363 14.313738 10.232595  L 13.791656 10.058569  Z  M 14.574779 10.297856  L 15.749462 15.040097  L 16.902393 15.844974  L 15.009847 10.38487  L 14.574779 10.297856  Z  M 15.205627 10.406623  Q 17.14168 15.975493 17.228693 16.040754  L 18.251104 16.671602  L 18.403378 16.606342  Q 15.662449 10.624157 15.531928 10.45013  L 15.205627 10.406623  Z  M 7.765964 14.496263  Q 7.700704 14.974837 7.287389 15.942863  Q 6.874075 16.910891 7.135116 17.128424  L 8.135772 16.823877  Q 8.810127 14.757303 8.6361 14.811687  Q 8.462073 14.866071 8.135772 15.214125  L 7.765964 14.496263  Z  M 13.095548 13.930674  Q 13.639382 14.713797 14.041821 15.366399  Q 14.444259 16.019001 14.694423 16.432316  Q 14.944587 16.845631 15.92349 16.736862  Q 16.902393 16.628096 16.771872 16.301794  L 13.095548 13.930674  Z  M 3.437037 0.595839  Q 3.741585 0.661099 3.763338 0.9874  Q 3.567558 1.357208 3.284764 1.270195  Q 2.980216 1.204934 2.827942 0.965647  Q 3.110736 0.530579 3.437037 0.595839  Z  M 0.717862 1.596496  Q 1.936053 1.94455 2.958462 1.933673  Q 3.980872 1.922797 4.198406 1.509482  Q 4.41594 1.096167 4.426817 1.378962  Q 4.437694 1.661756 4.12227 2.140331  Q 3.806845 2.618906 3.785092 3.815343  Q 3.763338 5.01178 5.014159 6.13208  Q 6.264979 7.25238 6.961088 8.100762  Q 7.657197 8.949145 8.53821 10.558897  Q 9.419223 12.168649 9.353963 13.84366  Q 10.5504 13.691386 11.507549 14.365742  Q 11.83385 12.538456 9.810783 10.439253  Q 7.787717 8.34005 6.156212 4.337424  Q 4.1549 4.05463 4.611721 2.705919  Q 5.068542 1.357208 4.546461 0.682853  Q 4.502954 0.79162 4.437694 0.88951  Q 4.372434 0.9874 4.307173 0.75899  Q 4.241913 0.530579 3.806845 0.454442  Q 3.371777 0.378305 2.305861 0.704606  Q 2.632162 0.79162 2.501641 0.998277  Q 2.371121 1.204934 2.251477 1.096167  Q 2.131833 0.9874 2.17534 0.72636  Q 2.066573 0.748113 2.001313 0.813373  Q 1.783779 1.009154 2.088326 1.509482  Q 3.284764 1.683509 3.110736 1.618249  Q 2.936709 1.552989 2.588655 1.596496  L 2.566901 1.509482  Q 2.675668 1.444222 2.893202 1.444222  Q 3.110736 1.444222 3.32827 1.476852  Q 3.545804 1.509482 3.458791 1.716139  Q 3.371777 1.922797 2.11008 1.661756  L 0.717862 1.596496  Z  M 7.678951 13.887167  Q 8.244539 13.734894 8.331553 14.365742  Q 8.527333 14.082948 8.766621 14.082948  Q 8.940648 12.212155 7.831224 10.406623  Q 8.179278 12.038128 7.678951 13.887167  Z  M 6.547774 15.170618  Q 7.526677 12.647223 7.189499 10.537144  Q 6.852321 8.427064 5.220816 7.15449  Q 3.589311 5.881916 3.350024 4.641972  Q 3.110736 3.402028 3.306517 2.879946  Q 3.502298 2.357865 2.719175 2.357865  Q 1.936053 2.357865 0.761369 1.966303  L 0.06526 2.205591  L 0 1.422469  Q 0.13052 0.900387 1.566245 0.552332  Q 3.32827 0.008497 3.719831 0.008497  Q 4.916269 -0.078516 5.188186 0.682853  Q 5.460104 1.444222 5.2752 2.346988  Q 5.090296 3.249754 5.155556 3.293261  Q 5.394844 2.031564 6.504267 1.705263  Q 7.61369 1.378962 8.614347 1.966303  Q 9.549743 2.814686 11.561933 4.391808  Q 13.574122 5.968929 15.423162 7.709201  Q 16.11927 8.296543 16.771872 9.36246  Q 17.729021 11.102732 18.185843 12.538456  Q 17.794283 12.908264 17.228693 12.908264  L 19.077732 16.867384  L 18.338118 17.150177  L 17.250446 16.606342  Q 17.293953 17.063164 16.010504 17.226315  Q 14.727053 17.389465 14.357244 16.87826  Q 13.987437 16.367056 12.203658 13.386839  L 11.964371 13.212811  Q 12.181905 14.692043 11.725083 15.583933  Q 10.8767 14.431003 10.213222 14.539769  Q 9.549743 14.648537 9.321332 15.301138  Q 9.092921 15.95374 8.897141 16.802122  Q 9.984811 17.389465 10.952837 17.182808  Q 11.920864 16.976151 12.399439 17.367712  Q 12.59522 17.694012 12.290671 17.955053  Q 12.160151 17.694012 11.877357 17.628752  Q 11.594563 17.563492 11.181248 17.824533  L 5.30783 17.824533  Q 3.415284 18.19434 3.13249 17.650505  Q 2.936709 17.585245 2.719175 17.976807  L 2.697422 17.454725  Q 2.719175 16.997904 3.241257 16.976151  Q 3.393531 16.976151 3.926489 17.10667  Q 4.459447 17.23719 5.416597 17.193684  Q 6.069199 17.150177 6.536897 16.019001  Q 7.004595 14.887824 6.895828 14.974837  L 6.547774 15.170618  Z  M 0.696109 1.422469  L 1.675012 1.335455  Q 1.566245 1.183181 1.609752 1.009154  Q 0.674355 1.204934 0.696109 1.422469  Z "/></svg>
