<?xml version="1.0" encoding="UTF-8" standalone="no"?>
<svg
   xmlns:dc="http://purl.org/dc/elements/1.1/"
   xmlns:cc="http://web.resource.org/cc/"
   xmlns:rdf="http://www.w3.org/1999/02/22-rdf-syntax-ns#"
   xmlns:svg="http://www.w3.org/2000/svg"
   xmlns="http://www.w3.org/2000/svg"
   xmlns:sodipodi="http://sodipodi.sourceforge.net/DTD/sodipodi-0.dtd"
   xmlns:inkscape="http://www.inkscape.org/namespaces/inkscape"
   width="19.697943"
   height="17.972734"
   id="svg2237"
   sodipodi:version="0.32"
   inkscape:version="0.45"
   sodipodi:docname="E23B.svg"
   inkscape:output_extension="org.inkscape.output.svg.inkscape"
   sodipodi:docbase="C:\Program Files\JSesh\fontsST"
   sodipodi:modified="true">
  <metadata
     id="metadata2244">
    <rdf:RDF>
      <cc:Work
         rdf:about="">
        <dc:format>image/svg+xml</dc:format>
        <dc:type
           rdf:resource="http://purl.org/dc/dcmitype/StillImage" />
      </cc:Work>
    </rdf:RDF>
  </metadata>
  <defs
     id="defs2242" />
  <sodipodi:namedview
     inkscape:window-height="480"
     inkscape:window-width="640"
     inkscape:pageshadow="2"
     inkscape:pageopacity="0.0"
     guidetolerance="10.0"
     gridtolerance="10.0"
     objecttolerance="10.0"
     borderopacity="1.0"
     bordercolor="#666666"
     pagecolor="#ffffff"
     id="base" />
  <path
     style="fill:#000000; stroke:none"
     d="M 4.127396,0 C 5.0737127,0 5.885361,0.48043767 6.562341,1.441313 C 7.2393217,2.4021883 7.861707,3.843501 8.429497,5.765251 C 8.356703,6.2020123 8.808023,7.0173007 9.783457,8.211116 C 10.293012,8.7206713 10.88992,9.2229467 11.574179,9.717942 C 12.505937,10.358526 13.110124,11.013669 13.386739,11.68337 C 13.707031,12.178366 13.976367,12.826229 14.194748,13.626958 C 14.39857,14.456805 14.558716,15.468636 14.675185,16.662451 C 15.810765,16.487746 16.771641,15.705214 17.557812,14.314857 C 18.343981,12.9245 18.737066,11.617855 18.737066,10.394923 C 18.737066,8.7206703 18.46409,7.6797223 17.918139,7.272079 C 17.372187,6.864435 16.727964,6.660613 15.98547,6.660613 C 15.010036,6.660613 14.340335,7.170168 13.976367,8.189278 C 14.04916,8.596922 13.961808,8.9390517 13.71431,9.215667 C 13.466812,9.4922823 13.175638,9.550517 12.840787,9.390371 C 12.505936,9.2447837 12.356709,8.993646 12.393106,8.636958 C 12.429503,8.2802693 12.629685,7.978176 12.993653,7.730678 C 13.736148,6.4931873 14.73342,5.8671627 15.98547,5.852604 C 17.237519,5.8817213 18.169277,6.256608 18.780743,6.977264 C 19.39221,7.6979207 19.697943,8.8371403 19.697943,10.394923 C 19.697943,12.258438 19.27574,13.889015 18.431334,15.286652 C 17.586929,16.684288 16.334879,17.579649 14.675185,17.972734 L 7.468621,17.972734 C 7.1920057,17.929059 7.0609773,17.710678 7.075536,17.317593 C 7.075536,16.837154 7.428585,16.498664 8.134683,16.302122 C 8.8407803,16.105579 9.3830923,16.116498 9.761619,16.334879 C 10.140146,16.55326 10.584186,16.596937 11.093741,16.465908 C 10.016396,15.257534 9.4158493,14.300298 9.2921,13.594201 C 9.1683513,12.888103 8.7170313,12.367629 7.93814,12.032779 C 7.1592487,11.697928 6.3912763,11.173814 5.634223,10.460437 C 5.2848137,12.862626 5.2775343,15.08283 5.612385,17.12105 C 5.656061,17.514135 5.5614293,17.79803 5.32849,17.972734 L 2.707921,17.972734 C 2.3148357,17.972734 2.118293,17.717957 2.118293,17.208403 C 2.118293,16.684289 2.3657913,16.422232 2.860788,16.422232 C 3.2829907,16.465907 3.6323997,16.451348 3.909015,16.378555 L 3.297549,12.556892 L 1.419475,12.666082 C 1.506827,11.821677 1.550503,10.562348 1.550503,8.888096 C 1.550503,7.213844 1.6815313,5.8598833 1.943588,4.826214 C 1.9290293,4.331218 1.878074,4.0400437 1.790722,3.952691 C 1.5286653,4.1419543 1.3321227,4.236586 1.201094,4.236586 C 0.86624333,4.1783513 0.698818,3.9381327 0.698818,3.51593 C 0.42220267,2.9626987 0.236579,2.6788037 0.141947,2.664245 C 0.047315667,2.6496863 0,2.5332167 0,2.314836 C 0,2.0964553 0.33485033,1.8125603 1.004551,1.463151 C 1.848957,0.83712633 2.460423,0.502276 2.838949,0.4586 C 2.9408603,0.15286667 3.3703427,0 4.127396,0 z M 3.581444,0.545952 C 3.6396787,0.61874533 3.7561483,0.691539 3.930853,0.764333 C 4.047323,0.647863 4.2584243,0.56779 4.564157,0.524114 C 4.156513,0.45132 3.828942,0.45859933 3.581444,0.545952 z M 4.782538,0.611466 C 5.10283,0.815288 5.2556967,1.0700657 5.241138,1.375799 C 5.241138,1.827119 5.0300363,2.1401313 4.607833,2.314836 C 4.928125,3.3921807 4.1783513,4.3603353 2.358512,5.2193 C 2.1401313,5.918118 2.030941,7.0536977 2.030941,8.626039 C 2.030941,10.19838 2.0018233,11.348518 1.943588,12.076454 L 1.965427,12.076454 L 3.101007,12.010941 C 2.5477757,7.628767 2.8316703,5.1465057 3.952691,4.564157 C 5.0737123,3.9818083 5.9326767,3.85078 6.529584,4.171072 C 7.1264913,4.491364 7.3958277,5.1173887 7.337593,6.049146 L 8.036411,6.049146 C 7.424945,4.0400433 6.8498757,2.6678847 6.311203,1.93267 C 5.7725303,1.1974547 5.2629753,0.75705333 4.782538,0.611466 z M 2.358512,0.982713 C 2.6642447,1.0263897 2.8243903,1.1574183 2.838949,1.375799 C 2.838949,1.579621 2.7006413,1.6960907 2.424026,1.725208 C 1.6815313,2.016382 1.5432237,2.4531433 2.009103,3.035492 C 1.7761637,2.94814 1.6087383,2.8498687 1.506827,2.740678 C 1.4049163,2.631488 1.339402,2.4895407 1.310284,2.314836 C 1.2811667,2.1838073 1.4631507,1.9654267 1.856236,1.659694 L 1.81256,1.375799 C 1.0700653,1.7980017 0.698818,2.0454997 0.698818,2.118293 L 0.655142,2.249321 L 0.939037,2.445864 C 0.735215,2.60601 0.62602467,2.707921 0.611466,2.751597 C 0.80072933,2.984537 0.90264033,3.1738003 0.917199,3.319387 L 1.768884,3.253873 L 1.834398,3.428577 C 1.3102847,3.5159297 1.048228,3.581444 1.048228,3.62512 C 1.048228,3.785266 1.091904,3.876258 1.179256,3.898096 C 1.266608,3.919934 1.368519,3.8835373 1.484989,3.788906 C 1.601459,3.694274 1.6888113,3.646958 1.747046,3.646958 C 1.994544,3.646958 2.1838073,3.9381323 2.314836,4.520481 C 2.7370387,4.4185703 3.1738,4.152874 3.62512,3.723392 C 4.0764407,3.2939093 4.2074693,2.751597 4.018206,2.096455 C 4.600554,2.009103 4.8990077,1.7688843 4.913567,1.375799 C 4.9281257,1.0846243 4.844413,0.89900067 4.662429,0.818928 C 4.480445,0.73885467 4.251145,0.826207 3.974529,1.080985 C 3.6979137,1.3357623 3.5232093,1.5941793 3.450416,1.856236 C 3.377622,2.1182927 3.377622,2.2893577 3.450416,2.369431 C 3.5232093,2.4495037 3.639679,2.2384023 3.799825,1.736127 C 3.9599703,1.233851 4.178351,0.97543367 4.454967,0.960875 C 4.6733477,0.960875 4.782538,1.0700653 4.782538,1.288446 C 4.782538,1.4631507 4.658789,1.6451347 4.411291,1.834398 L 4.258424,1.659694 C 4.5204813,1.426754 4.5969147,1.2848063 4.487724,1.233851 C 4.3785333,1.1828957 4.1710717,1.5796207 3.865339,2.424026 C 3.748869,2.6424067 3.5960023,2.751597 3.406739,2.751597 C 3.2465937,2.751597 3.144683,2.5768927 3.101007,2.227484 C 3.101007,1.8198393 3.3048287,1.4049157 3.712472,0.982713 C 3.464974,0.79344967 3.275711,0.698818 3.144683,0.698818 C 3.0136543,0.80072933 2.7515973,0.895361 2.358512,0.982713 z M 2.576893,1.332122 L 2.118293,1.179256 C 2.0163823,1.3102847 2.0163823,1.441313 2.118293,1.572341 L 2.576893,1.332122 z M 6.813479,6.529584 C 6.9590663,5.10283 6.635135,4.42221 5.841685,4.487724 C 5.048235,4.553238 4.3930927,4.8735297 3.876258,5.448599 C 3.359424,6.0236683 3.1956383,7.3812687 3.384901,9.5214 C 3.5741643,11.661531 3.85078,13.699752 4.214748,15.636061 C 4.258424,15.883558 4.3021003,16.189291 4.345777,16.553259 C 4.3748943,16.684288 4.2329467,16.757082 3.919934,16.771641 C 3.606922,16.786199 3.2975493,16.778919 2.991816,16.749802 C 2.700642,16.749802 2.555055,16.877191 2.555055,17.131969 C 2.555055,17.386746 2.6933627,17.514135 2.969978,17.514135 L 4.738862,17.514135 C 5.0009187,17.514135 5.121028,17.379467 5.09919,17.11013 C 5.077352,16.840793 5.022757,16.131056 4.935405,14.980918 C 4.935405,12.753435 5.037316,10.860802 5.241138,9.30302 C 6.1728953,10.191101 6.7588837,10.726133 6.999103,10.908117 C 7.2393217,11.090101 7.854427,11.457709 8.844419,12.010941 C 8.8880957,10.817126 9.0227643,10.103749 9.248425,9.87081 C 9.4740843,9.63787 10.001837,9.6524283 10.831684,9.914485 L 11.159256,10.242057 C 10.606025,10.09647 10.169263,10.041874 9.848971,10.078271 C 9.528679,10.114668 9.4012903,10.671538 9.466805,11.748883 C 9.532319,12.826228 9.7143027,13.641517 10.012756,14.194748 C 10.31121,14.747979 10.99183,15.621502 12.054617,16.815317 C 10.846244,17.062814 10.067352,17.073733 9.717942,16.848074 C 9.3685333,16.622414 8.9390517,16.575098 8.429497,16.706125 C 7.9199417,16.837154 7.6724433,17.00458 7.687002,17.208403 C 7.6578847,17.35399 7.7015607,17.4559 7.81803,17.514135 L 14.347614,17.514135 L 14.653347,17.01186 C 14.376732,17.01186 14.238424,16.89539 14.238424,16.662451 C 14.049161,14.828052 13.71431,13.379459 13.233872,12.316673 C 12.753435,11.253887 12.076454,10.43132 11.202931,9.848971 C 10.329409,9.266623 9.616032,8.6114807 9.0628,7.883544 C 8.5095693,7.1556087 8.2038363,6.7042887 8.145601,6.529584 L 6.813479,6.529584 z "
     id="path2239"
     sodipodi:nodetypes="csccccccsssscsssccsssccssscssccccsccccsccscssccccccccsccscccssccsccsccsscccccccccsssscscssssssssccscscccccccccssssssssccsccscsccssscsssccccssscc" />
</svg>
