<?xml version="1.0" encoding="UTF-8" standalone="no"?>
<svg
   xmlns:dc="http://purl.org/dc/elements/1.1/"
   xmlns:cc="http://web.resource.org/cc/"
   xmlns:rdf="http://www.w3.org/1999/02/22-rdf-syntax-ns#"
   xmlns:svg="http://www.w3.org/2000/svg"
   xmlns="http://www.w3.org/2000/svg"
   xmlns:sodipodi="http://inkscape.sourceforge.net/DTD/sodipodi-0.dtd"
   xmlns:inkscape="http://www.inkscape.org/namespaces/inkscape"
   width="10.413261"
   height="17.976807"
   id="svg1592"
   sodipodi:version="0.32"
   inkscape:version="0.43"
   sodipodi:docname="L1D.svg"
   sodipodi:docbase="C:\Program Files\JSesh\fonts">
  <metadata
     id="metadata1599">
    <rdf:RDF>
      <cc:Work
         rdf:about="">
        <dc:format>image/svg+xml</dc:format>
        <dc:type
           rdf:resource="http://purl.org/dc/dcmitype/StillImage" />
      </cc:Work>
    </rdf:RDF>
  </metadata>
  <defs
     id="defs1597" />
  <sodipodi:namedview
     inkscape:window-height="708"
     inkscape:window-width="1024"
     inkscape:pageshadow="2"
     inkscape:pageopacity="0.0"
     borderopacity="1.0"
     bordercolor="#666666"
     pagecolor="#ffffff"
     id="base"
     showguides="true"
     inkscape:guide-bbox="true"
     inkscape:zoom="29.982709"
     inkscape:cx="5.2066303"
     inkscape:cy="8.9882926"
     inkscape:window-x="-4"
     inkscape:window-y="-4"
     inkscape:current-layer="svg1592">
    <sodipodi:guide
       orientation="horizontal"
       position="11.803701"
       id="guide3967" />
    <sodipodi:guide
       orientation="horizontal"
       position="9.4689033"
       id="guide3969" />
    <sodipodi:guide
       orientation="vertical"
       position="7.6529492"
       id="guide3971" />
    <sodipodi:guide
       orientation="vertical"
       position="2.735723"
       id="guide3973" />
    <sodipodi:guide
       orientation="horizontal"
       position="13.03006"
       id="guide3975" />
    <sodipodi:guide
       orientation="vertical"
       position="8.1010418"
       id="guide3977" />
    <sodipodi:guide
       orientation="vertical"
       position="2.3701738"
       id="guide3979" />
    <sodipodi:guide
       orientation="horizontal"
       position="11.414568"
       id="guide3981" />
    <sodipodi:guide
       orientation="vertical"
       position="2.1579194"
       id="guide3983" />
    <sodipodi:guide
       orientation="vertical"
       position="8.33688"
       id="guide3985" />
    <sodipodi:guide
       orientation="horizontal"
       position="8.33688"
       id="guide3987" />
    <sodipodi:guide
       orientation="horizontal"
       position="4.0917926"
       id="guide3989" />
  </sodipodi:namedview>
  <g
     id="g3961">
    <path
       sodipodi:nodetypes="csssssssssssssccssssssssssssssssssssssssssssssssssssssssssssssssssssssssssssssssssssssssssssssssssssccccsssssssssssssssssssssssssccccsssssssssssssssssssssssssssssssssc"
       id="path1594"
       d="M 2.585653,8.92752 C 2.956434,8.92752 4.10248,9.20874 4.812604,9.547343 C 4.985384,9.629728 5.118333,9.852512 5.157666,9.852512 C 5.197001,9.852512 5.346288,9.657647 5.502727,9.547343 C 5.987212,9.205728 7.401941,8.931887 7.836097,8.931887 C 7.920362,8.931887 7.967689,9.061069 7.964106,9.08051 C 7.942971,9.195199 7.738091,9.151246 7.361064,9.223731 C 6.406306,9.407285 5.810802,9.592731 5.42697,9.890906 C 5.272229,10.011115 5.273221,10.267067 5.273221,12.77669 C 5.273221,14.548532 5.3771804,15.553212 5.157666,15.532385 C 4.9267407,15.510475 5.045048,14.548532 5.045048,12.77669 C 5.045048,10.267067 5.052134,9.998486 4.888361,9.890906 C 4.491939,9.630503 3.909028,9.407285 2.954267,9.223731 C 2.57724,9.151246 2.463036,9.197097 2.4658,9.08051 C 2.466332,9.058048 2.509747,8.92752 2.585653,8.92752 z M 8.707971,0 C 8.647728,0 8.588659,0.098135 8.556024,0.29925 C 8.483635,0.745324 8.589681,1.097865 9.036688,1.897186 C 9.538163,2.793909 9.598431,3.617437 9.240555,4.682972 C 8.965734,5.501219 8.830475,5.843339 8.661576,5.843339 C 8.589484,5.843339 8.511262,5.781004 8.413437,5.666755 C 8.327182,5.566017 7.883059,5.245052 7.502022,5.245052 C 7.475609,5.245052 7.449501,5.246594 7.423836,5.249858 C 7.414765,5.251012 7.406128,5.251597 7.397913,5.251597 C 7.288654,5.251597 7.253342,5.147892 7.253342,4.89449 C 7.253342,4.635828 7.188263,4.486424 7.014189,4.345469 C 6.855587,4.217039 6.785383,4.072862 6.805756,3.917404 C 6.825172,3.769238 6.820092,3.695674 6.776453,3.695674 C 6.734643,3.695674 6.657443,3.763192 6.532483,3.897321 C 6.439604,3.997013 6.3043748,4.5271482 6.2193424,4.4445748 C 6.1544561,4.3815648 6.2168584,4.0252784 6.3346464,3.8363784 C 6.4090284,3.7170874 6.630363,3.419096 6.663447,3.276088 C 6.702382,3.107782 6.700343,3.049152 6.627429,3.049152 C 6.605047,3.049152 6.575984,3.054678 6.539377,3.06425 C 6.438056,3.090744 6.313299,3.206231 6.262138,3.320883 C 6.218739,3.418143 6.195168,3.469387 6.164681,3.469387 C 6.130549,3.469387 6.08775,3.405151 5.998754,3.269328 C 5.912436,3.137593 5.805963,3.056175 5.72587,3.056175 C 5.71298,3.056175 5.700775,3.058282 5.689445,3.062631 C 5.613028,3.091954 5.574673,3.155049 5.604209,3.202838 C 5.633745,3.250628 5.612798,3.367197 5.557659,3.46188 C 5.520933,3.524945 5.497219,3.558625 5.481902,3.558625 C 5.461323,3.558625 5.455896,3.497829 5.454432,3.365825 C 5.452256,3.16986 5.422203,3.114383 5.279305,3.114383 C 5.257746,3.114383 5.233616,3.115648 5.20663,3.11788 C 5.020981,3.133244 4.961808,3.19355 4.961808,3.367385 C 4.961808,3.478697 4.934472,3.543004 4.890794,3.543004 C 4.880463,3.543004 4.869216,3.539406 4.857203,3.53198 C 4.79967,3.496419 4.774853,3.409333 4.802055,3.338444 C 4.847923,3.218911 4.801,3.161366 4.721003,3.161366 C 4.632365,3.161366 4.503125,3.23201 4.414505,3.367257 C 4.325512,3.50308 4.282713,3.567316 4.248579,3.567316 C 4.218092,3.567316 4.194521,3.516072 4.151122,3.418812 C 4.099961,3.304159 3.975207,3.188673 3.873886,3.162179 C 3.837279,3.152607 3.808215,3.147081 3.785834,3.147081 C 3.712919,3.147081 3.710878,3.20571 3.749813,3.374017 C 3.782897,3.517025 3.9542034,3.731636 4.0285884,3.850927 C 4.1463734,4.039827 4.3368711,4.3808531 4.1939176,4.4591224 C 4.0741588,4.5246922 3.973656,4.094942 3.880777,3.99525 C 3.755787,3.861088 3.67625,3.793406 3.633848,3.793406 C 3.587891,3.793406 3.585557,3.872916 3.616249,4.033467 C 3.647369,4.196259 3.615337,4.304882 3.526114,4.339121 C 3.320302,4.418097 3.082228,4.938009 3.151679,5.156825 C 3.198037,5.302887 3.166042,5.347787 3.01561,5.347787 C 2.907436,5.347787 2.339289,5.431753 1.778473,5.93536 C 1.769453,5.943459 1.759415,5.947401 1.748444,5.947401 C 1.622868,5.947401 1.375434,5.431021 1.143376,4.723404 C 0.816398,3.726364 0.890009,2.865171 1.376572,1.995114 C 1.823579,1.195794 1.929625,0.843252 1.857236,0.397178 C 1.824601,0.196064 1.765532,0.097929 1.705289,0.097929 C 1.637936,0.097929 1.569116,0.220585 1.534114,0.459131 C 1.501132,0.683921 1.423929,0.788882 1.26284,0.788882 C 1.173046,0.788882 1.057183,0.756265 0.908383,0.69361 C 0.861131,0.673712 0.826299,0.661402 0.802029,0.661402 C 0.739533,0.661402 0.747046,0.743019 0.792795,0.986879 C 0.843358,1.256407 0.852865,1.329627 0.751006,1.329627 C 0.716877,1.329627 0.670243,1.321406 0.608461,1.309595 C 0.553693,1.299126 0.506029,1.293896 0.465477,1.293896 C 0.276442,1.293896 0.241963,1.407524 0.362952,1.63359 C 0.514671,1.917077 0.405975,2.276908 0.148263,2.3443 C -0.0112,2.385999 -0.039092,2.432038 0.037334,2.527375 C 0.093492,2.59743 0.283782,3.227628 0.460199,3.927819 C 0.636619,4.628009 0.884361,5.418463 1.010738,5.684384 C 1.137115,5.950303 1.240513,6.219783 1.240513,6.28323 C 1.240513,6.34668 1.333152,6.516364 1.446379,6.660305 C 1.551364,6.793773 1.625026,6.854886 1.690699,6.854886 C 1.720091,6.854886 1.747885,6.842645 1.776171,6.81917 C 1.79528,6.80331 1.811911,6.793005 1.826881,6.793005 C 1.907243,6.793005 1.6727829,7.7571699 2.04963,8.420136 C 2.1462321,8.5900826 2.013002,8.735458 1.878174,8.811852 C 1.260177,9.162014 0.849404,9.662495 0.782915,10.146299 C 0.696283,10.776671 0.687861,11.092146 0.752856,11.272481 C 0.79168,11.380203 0.90104,11.717697 0.995876,12.022472 C 1.124401,12.435505 1.221135,12.586717 1.375786,12.616319 C 1.406685,12.622232 1.432966,12.627041 1.455034,12.627041 C 1.57988,12.627041 1.569884,12.47311 1.498302,11.494413 C 1.425955,10.505299 1.437575,10.269329 1.576548,9.905431 C 1.70459,9.570158 1.865466,9.386224 2.021513,9.386224 C 2.060332,9.386224 2.098851,9.397608 2.136492,9.420871 C 2.188672,9.453117 2.219107,9.57445 2.204123,9.690492 C 2.0614286,10.795574 2.349255,11.914274 2.421821,13.026165 L 2.180218,12.799188 L 1.938611,12.572213 L 1.645578,12.78087 C 1.484408,12.895635 1.302764,13.140364 1.241923,13.324713 C 1.082442,13.807949 1.199235,15.07632 1.521861,16.36478 C 1.629212,16.793514 2.112733,17.791023 2.268765,17.905659 C 2.333249,17.953035 2.41966,17.976807 2.489538,17.976807 C 2.558517,17.976807 2.611382,17.953646 2.611151,17.907158 C 2.610948,17.866762 2.51778,17.681152 2.404111,17.494688 C 2.27416,17.281521 2.237403,17.142344 2.305094,17.11978 C 2.378789,17.095215 2.368209,16.997763 2.271554,16.810854 C 2.193896,16.660679 2.088072,16.27854 2.036391,15.961651 C 1.984707,15.644763 1.894661,15.261436 1.836289,15.109813 C 1.720994,14.810333 1.694243,14.075131 1.789599,13.826639 C 1.826711,13.729924 1.86457,13.684919 1.905955,13.684919 C 1.954382,13.684919 2.007635,13.746531 2.070182,13.859009 C 2.757564,15.095127 4.717458,15.814593 5.157666,15.826171 C 5.162651,15.826303 5.167746,15.826368 5.172949,15.826368 C 5.781295,15.826368 7.857666,14.932723 8.263215,13.827387 C 8.319501,13.673978 8.363382,13.608434 8.406379,13.608434 C 8.43881,13.608434 8.470739,13.645719 8.507111,13.710711 C 8.680276,14.020139 8.355648,16.095209 8.035655,16.724339 C 7.945233,16.902109 7.936489,16.997267 8.008367,17.021227 C 8.073116,17.04281 8.029854,17.259368 7.896842,17.484801 C 7.777324,17.687371 7.70371,17.907287 7.733258,17.936834 C 7.760388,17.963964 7.792067,17.977028 7.827263,17.977028 C 7.987455,17.977028 8.220503,17.646417 8.429076,17.199889 C 8.842918,16.313907 9.018953,15.549924 9.117483,14.299575 C 9.188697,13.395819 9.096339,13.040687 8.706683,12.719964 L 8.442668,12.502655 L 8.168038,12.76577 L 7.893405,13.028885 C 7.893405,13.028885 8.3924362,10.702666 8.109935,9.680773 C 8.0748594,9.5538939 8.144303,9.435936 8.235368,9.40099 C 8.320039,9.368499 8.392885,9.247478 8.397245,9.132051 C 8.399471,9.073075 8.407586,9.042361 8.42422,9.042361 C 8.452154,9.042361 8.504122,9.129008 8.592583,9.313905 C 8.761508,9.666978 8.773713,9.849611 8.716318,11.165263 C 8.671672,12.188746 8.679741,12.559999 8.750537,12.559999 C 8.755337,12.559999 8.760423,12.558292 8.765802,12.55497 C 8.828039,12.516503 8.878961,12.421531 8.878961,12.343918 C 8.878961,12.266305 8.91202,12.202805 8.952428,12.202805 C 8.992833,12.202805 9.107719,11.92738 9.207728,11.59075 C 9.30774,11.254119 9.423711,10.888891 9.465446,10.779134 C 9.567475,10.510813 9.404943,9.488235 9.197535,9.093564 C 9.055148,8.822619 8.9768,8.775296 8.67059,8.775296 C 8.322666,8.775296 8.1808287,8.7185324 8.34699,8.457027 C 8.7337126,7.8484011 8.528302,6.701971 8.594944,6.701971 C 8.608064,6.701971 8.622367,6.709021 8.638149,6.72212 C 8.665704,6.744988 8.693028,6.756876 8.722008,6.756876 C 8.787789,6.756876 8.862084,6.695605 8.966884,6.562376 C 9.080108,6.418435 9.172748,6.248751 9.172748,6.185301 C 9.172748,6.121854 9.276148,5.852374 9.402522,5.586456 C 9.528899,5.320534 9.776641,4.530081 9.953061,3.82989 C 10.129478,3.1297 10.319768,2.499501 10.375926,2.429446 C 10.452354,2.334109 10.424459,2.28807 10.264997,2.246371 C 10.007285,2.178979 9.898591,1.819149 10.050308,1.535661 C 10.171297,1.309595 10.136818,1.195967 9.947783,1.195967 C 9.907231,1.195967 9.859567,1.201197 9.804799,1.211666 C 9.743016,1.223477 9.696383,1.231698 9.662254,1.231698 C 9.560395,1.231698 9.569901,1.158479 9.620465,0.88895 C 9.666214,0.645091 9.673727,0.563473 9.61123,0.563473 C 9.586961,0.563473 9.552129,0.575783 9.504877,0.595681 C 9.356077,0.658336 9.240213,0.690953 9.15042,0.690953 C 8.989331,0.690953 8.91213,0.585992 8.879146,0.361202 C 8.844144,0.122656 8.775324,0 8.707971,0 z "
       style="fill:#000000;stroke:none;fill-opacity:1" />
    <path
       sodipodi:nodetypes="cccscc"
       id="path2209"
       d="M 2.6432635,6.1571684 C 2.1480033,6.5691861 2.3639552,8.148204 2.7490411,8.4018801 C 3.3104689,8.5408474 4.4760706,9.0397805 5.1695826,9.1384879 C 5.8127421,9.0143643 7.0681408,8.6212438 7.6068003,8.5096813 C 8.0986509,8.4078135 8.3325025,6.5707223 7.8662223,6.1647753 C 6.2015642,4.929835 4.2413799,4.9609764 2.6432635,6.1571684 z "
       style="opacity:1;color:#000000;fill:#ffffff;fill-opacity:1;fill-rule:evenodd;stroke:#ffffff;stroke-width:0.1;stroke-linecap:round;stroke-linejoin:round;marker:none;marker-start:none;marker-mid:none;marker-end:none;stroke-miterlimit:4;stroke-dasharray:none;stroke-dashoffset:0;stroke-opacity:1;visibility:visible;display:inline;overflow:visible" />
    <path
       sodipodi:nodetypes="ccccc"
       id="path3084"
       d="M 2.6348195,9.6387701 C 3.3711732,9.6725218 3.7708257,9.725797 4.6192722,10.239109 C 4.6303896,11.856688 4.641507,13.474267 4.6526244,15.091846 C 4.2913095,14.919527 3.1169141,14.574937 2.9617828,13.843863 C 2.9617828,13.843863 2.4815247,10.718742 2.6348195,9.6387701 z "
       style="opacity:1;color:#000000;fill:#ffffff;fill-opacity:1;fill-rule:evenodd;stroke:#ffffff;stroke-width:0.1;stroke-linecap:round;stroke-linejoin:round;marker:none;marker-start:none;marker-mid:none;marker-end:none;stroke-miterlimit:4;stroke-dasharray:none;stroke-dashoffset:0;stroke-opacity:1;visibility:visible;display:inline;overflow:visible" />
    <path
       sodipodi:nodetypes="cccscc"
       id="path3959"
       d="M 5.6531888,10.272461 C 5.6476301,11.873364 5.6420714,13.474267 5.6365127,15.07517 C 5.9978276,14.94732 6.8316066,14.913343 7.4708807,13.874493 C 7.4708807,13.874493 7.5533093,12.659169 7.72758,11.641923 C 7.7854683,11.30402 7.7739107,9.651399 7.7739107,9.651399 C 7.4181545,9.6680751 6.7157851,9.5986479 5.6531888,10.272461 z "
       style="opacity:1;color:#000000;fill:#ffffff;fill-opacity:1;fill-rule:evenodd;stroke:#ffffff;stroke-width:0.1;stroke-linecap:round;stroke-linejoin:round;marker:none;marker-start:none;marker-mid:none;marker-end:none;stroke-miterlimit:4;stroke-dasharray:none;stroke-dashoffset:0;stroke-opacity:1;visibility:visible;display:inline;overflow:visible" />
  </g>
</svg>
