<?xml version="1.0" encoding="UTF-8" standalone="no"?>
<svg
   xmlns:dc="http://purl.org/dc/elements/1.1/"
   xmlns:cc="http://creativecommons.org/ns#"
   xmlns:rdf="http://www.w3.org/1999/02/22-rdf-syntax-ns#"
   xmlns:svg="http://www.w3.org/2000/svg"
   xmlns="http://www.w3.org/2000/svg"
   xmlns:sodipodi="http://sodipodi.sourceforge.net/DTD/sodipodi-0.dtd"
   xmlns:inkscape="http://www.inkscape.org/namespaces/inkscape"
   width="25.56292"
   height="17.983217"
   id="svg2476"
   sodipodi:version="0.32"
   inkscape:version="0.46"
   sodipodi:docname="E1.svg"
   inkscape:output_extension="org.inkscape.output.svg.inkscape">
  <metadata
     id="metadata2483">
    <rdf:RDF>
      <cc:Work
         rdf:about="">
        <dc:format>image/svg+xml</dc:format>
        <dc:type
           rdf:resource="http://purl.org/dc/dcmitype/StillImage" />
      </cc:Work>
    </rdf:RDF>
  </metadata>
  <defs
     id="defs2481">
    <inkscape:perspective
       sodipodi:type="inkscape:persp3d"
       inkscape:vp_x="0 : 8.9916086 : 1"
       inkscape:vp_y="0 : 1000 : 0"
       inkscape:vp_z="25.56292 : 8.9916086 : 1"
       inkscape:persp3d-origin="12.78146 : 5.9944057 : 1"
       id="perspective2485" />
  </defs>
  <sodipodi:namedview
     inkscape:window-height="712"
     inkscape:window-width="1024"
     inkscape:pageshadow="2"
     inkscape:pageopacity="0.0"
     guidetolerance="10.0"
     gridtolerance="10.0"
     objecttolerance="10.0"
     borderopacity="1.0"
     bordercolor="#666666"
     pagecolor="#ffffff"
     id="base"
     showgrid="false"
     inkscape:zoom="112.77181"
     inkscape:cx="25.542018"
     inkscape:cy="3.3164316"
     inkscape:window-x="0"
     inkscape:window-y="22"
     inkscape:current-layer="svg2476" />
  <path
     style="fill:#000000; stroke:none"
     d="M 7.375,0 L 7.375,0.34375 C 7.375,0.867464 7.2606618,1.299448 7.0625,1.625 C 6.80772,2.1770233 6.0380542,2.6520213 4.75,3.0625 C 4.438602,2.991728 4.2140627,3.0188419 4.09375,3.125 C 3.9734373,3.2311587 3.8131433,3.2240814 3.59375,3.125 C 3.374356,3.0259193 3.2411766,3.0430146 3.15625,3.15625 C 1.4577173,2.5334547 0.59669131,1.5864 0.625,0.3125 C 0.54007333,0.114338 0.45698534,0.022977997 0.34375,0.09375 C 0.11727867,0.26360333 0,0.59246202 0,1.03125 C 0,1.4558833 0.16029334,1.9980687 0.5,2.65625 C 0.83970667,3.3144313 1.5433806,3.8224253 2.5625,4.21875 C 2.5200367,4.487684 2.5100179,4.7193007 2.53125,4.875 C 2.5524813,5.0306987 2.4452208,5.5457705 2.21875,6.4375 C 1.9498153,6.6498167 1.8125,6.884374 1.8125,7.125 C 1.8125,7.37978 1.8696687,7.5400732 1.96875,7.625 C 1.96875,7.8514707 2.4466894,7.9687499 3.4375,7.96875 C 3.6639713,7.9545953 3.8584559,7.8143388 4,7.53125 C 4.184008,7.7718753 4.4144295,7.9150729 4.71875,8 C 5.02307,8.0849267 5.2446688,8.2522971 5.34375,8.5 C 5.4428307,8.747702 5.6602927,9.0093739 6,9.25 C 6,10.254965 6.4779392,11.247975 7.46875,12.28125 L 7.46875,12.59375 C 7.157352,13.159928 6.9499081,13.504687 6.84375,13.625 C 6.7375913,13.745313 6.6774813,13.939797 6.65625,14.1875 C 6.6350187,14.435203 6.3904425,14.865991 5.9375,15.53125 C 5.541176,15.715258 5.34375,16.064154 5.34375,16.53125 L 4.90625,16.65625 C 4.6656247,16.868566 4.4281258,17.303491 4.1875,17.96875 L 6.15625,17.96875 L 6.53125,17.25 C 6.53125,17.065992 6.6184741,17.002941 6.78125,17.03125 C 6.944026,17.059559 7.0141549,16.922242 7,16.625 C 6.985846,16.327756 7.2976092,15.792649 7.90625,15 C 8.2459567,14.844301 8.429228,14.609743 8.5,14.3125 C 8.570772,14.015257 8.9196674,13.677574 9.5,13.28125 C 9.8538607,12.899079 10.191543,12.664522 10.53125,12.59375 L 11.15625,13.53125 C 11.396875,14.182354 11.594301,14.557169 11.75,14.65625 L 12.125,16.53125 C 11.728675,16.899265 11.436949,17.371323 11.28125,17.9375 L 13.15625,17.9375 L 13.15625,17.15625 C 13.651655,17.142096 13.826103,16.850369 13.65625,16.3125 C 13.259926,15.562315 13.025368,14.829781 12.96875,14.09375 L 13.03125,13.5625 C 12.804778,13.166175 12.661581,12.754229 12.5625,12.34375 C 14.034561,12.386213 15.159005,12.343199 15.9375,12.1875 C 15.9375,12.484743 16.017647,12.936763 16.1875,13.53125 L 16.46875,13.53125 L 16.65625,12.59375 C 16.65625,12.480515 17.225549,12.228861 18.34375,11.875 L 18.46875,13.53125 C 18.313051,14.154045 18.088511,14.739245 17.8125,15.3125 C 17.536488,15.885755 17.191728,16.364889 16.78125,16.71875 C 16.540624,16.71875 16.277207,17.116543 15.9375,17.9375 L 17.84375,17.9375 L 17.96875,17.34375 L 18.34375,17.375 L 18.625,17.375 C 18.823162,16.610661 19.160844,15.683643 19.65625,14.59375 C 20.024265,14.452205 20.21875,14.291912 20.21875,14.09375 L 20.09375,13.28125 C 20.192831,13.564339 20.440993,13.40864 20.625,13.28125 C 20.809008,13.153861 21.020588,13.117923 21.21875,13.125 C 21.416912,13.132077 21.5,13.030699 21.5,12.875 L 22.21875,13.65625 C 22.586765,13.995957 22.75,14.671321 22.75,15.71875 L 22.75,15.875 L 22.6875,16.5625 C 22.6875,16.704044 22.366913,17.138969 21.6875,17.875 L 21.6875,17.9375 L 23.875,17.9375 L 23.875,17.4375 C 24.200553,17.4375 24.375,17.297243 24.375,17 L 24.375,16.90625 L 23.75,14.53125 L 24.03125,12.6875 L 24.25,13.46875 C 24.266186,14.191026 24.477456,14.629543 24.360629,15.502567 C 24.459321,16.134434 24.886388,16.67484 25.141024,16.67484 C 25.296722,16.67484 25.248161,16.646875 25.53125,16.40625 L 25.5625,14.6875 L 25.5625,14.3125 C 25.5625,13.845403 25.502389,13.356251 25.375,12.875 C 24.936212,11.530328 24.71875,10.677574 24.71875,10.28125 L 24.71875,7.3125 C 24.71875,6.279226 24.624449,5.5637881 24.46875,5.125 C 24.129043,4.3323513 23.530884,3.9375001 22.625,3.9375 L 22.03125,3.96875 L 20.0625,3.875 C 19.184924,3.9033087 18.652757,3.9604772 18.46875,4.03125 C 17.024997,4.356802 15.997795,4.5312499 15.375,4.53125 L 15.125,4.5625 L 15.09375,4.5625 L 15.03125,4.53125 L 13.875,4.5625 L 12.875,4.46875 C 11.870035,4.015808 10.98309,3.7812499 10.21875,3.78125 C 9.3128653,3.2999987 8.6805148,3.0625 8.3125,3.0625 L 7.3125,3.0625 L 7.3125,2.9375 L 7.0625,3.03125 C 7.713604,2.2810647 8.03125,1.6115827 8.03125,1.03125 C 7.9180147,0.33768267 7.7836401,0 7.65625,0 L 7.375,0 z M 6.90625,3.375 C 6.793014,4.0968767 6.6097435,4.4545961 6.3125,4.46875 C 6.0152573,4.4829047 5.7406253,4.4970585 5.5,4.46875 C 5.3443007,4.46875 5.2270219,4.52886 5.15625,4.65625 L 5,4.40625 L 5.15625,4.34375 C 5.1845587,4.0606613 5.7597399,3.7288613 6.90625,3.375 z M 4.4375,3.46875 C 4.6356627,3.610294 4.7358462,3.8477931 4.75,4.1875 L 4.625,4.28125 L 4.875,4.65625 C 5.0165447,4.8402573 5.1880514,4.9115806 5.34375,4.8125 C 5.4994493,4.7134187 5.72693,4.6933819 6.03125,4.75 C 6.3355707,4.8066173 6.5689331,4.7352938 6.78125,4.59375 C 6.9935667,4.4522053 7.1450373,4.1917286 7.1875,3.78125 C 7.2158093,3.5830873 7.416176,3.46875 7.8125,3.46875 L 8.46875,3.46875 C 9.431252,3.9358467 9.9805146,4.1874998 10.09375,4.1875 L 11.28125,4.375 C 12.116362,4.7996333 13.114704,4.9999999 14.21875,5 L 14.46875,5 C 15.473715,5 16.189153,4.9740807 16.65625,4.875 C 18.284011,4.5211387 19.402573,4.3437502 19.96875,4.34375 C 20.506619,4.4003673 21.396505,4.4062501 22.65625,4.40625 C 23.279045,4.40625 23.711029,4.6579034 23.9375,5.125 L 23.625,4.78125 C 23.228676,4.6113967 22.73364,4.5312499 22.125,4.53125 C 22.082536,4.53125 22.059559,4.6485287 22.03125,4.875 C 22.03125,4.945772 22.194485,4.9716912 22.5625,5 C 23.241913,5 23.59375,5.3718735 23.59375,6.09375 L 23.59375,7.78125 C 23.59375,8.503126 23.279045,9.5733416 22.65625,11.03125 L 22.65625,11.15625 C 23.543586,13.682435 21.707231,11.959804 20.78125,11.5625 L 19.84375,10.90625 C 19.730514,10.580698 19.352757,10.323163 18.6875,10.125 L 18.5625,10.46875 C 18.788971,10.567831 18.963419,10.705147 19.0625,10.875 C 16.684554,11.724267 14.47574,12.041912 12.4375,11.84375 L 12.1875,10.4375 L 12.1875,10.0625 C 12.1875,9.8218747 12.013052,9.6215074 11.6875,9.4375 L 11.0625,8.5625 L 11,8.5625 L 10.6875,8.71875 L 10.6875,8.84375 L 11.0625,9.4375 L 11.75,10.15625 L 11.6875,10.5625 C 11.759386,12.899313 10.565178,11.37194 9.125,10.9375 C 8.636672,10.562407 8.4133269,9.9931083 8.40625,9.25 C 8.3991727,8.506892 8.5965984,7.9004608 9,7.46875 C 9.4034013,7.03704 9.6909924,6.4147075 9.875,5.59375 C 9.8608453,5.4946687 9.7205888,5.4687502 9.4375,5.46875 C 9.2676467,6.303862 8.9759204,6.9061574 8.59375,7.28125 C 8.21158,7.6563427 8.0041361,8.1012858 7.96875,8.625 C 7.933364,9.1487147 8.0005514,9.703859 8.15625,10.3125 C 8.3119487,10.921141 8.7138773,11.340165 9.34375,11.53125 C 9.9736227,11.722335 10.28125,11.93272 10.28125,12.1875 C 9.4036747,12.399816 8.5196708,12.279596 7.65625,11.8125 C 6.835292,10.892461 6.4374998,9.945407 6.4375,8.96875 L 5.71875,8.375 C 5.71875,8.035294 5.3439352,7.7606618 4.59375,7.5625 C 4.5088233,7.5625 4.3113979,7.2849278 4,6.71875 L 3.8125,6.71875 C 3.7841913,7.3415453 3.5696701,7.6303314 3.1875,7.53125 L 3,7.40625 L 2.6875,7.46875 C 2.3902567,7.46875 2.25,7.3284934 2.25,7.03125 L 2.53125,6.78125 L 2.5625,6.90625 L 2.40625,7.125 L 2.40625,7.3125 L 2.46875,7.375 L 2.8125,7.3125 L 2.875,7.3125 L 2.9375,7.0625 L 2.9375,6.84375 L 2.59375,6.71875 C 2.84853,5.69963 2.9716914,4.9500005 3,4.46875 C 3.5378687,4.3130513 4.0700351,4.3159927 4.59375,4.5 L 4.59375,4.375 C 4.098344,4.1626833 3.6433833,4.1196688 3.21875,4.21875 C 3.331986,4.0630513 3.4292281,3.8284933 3.5,3.53125 C 3.811398,3.6303307 4.1261027,3.6102939 4.4375,3.46875 z M 4.875,4.65625 C 4.36544,4.543014 3.8102954,4.5200368 3.1875,4.5625 C 3.2158087,4.7889713 3.2729774,4.9592827 3.34375,5.09375 C 3.414522,5.2282167 3.5418192,5.4026647 3.71875,5.59375 C 3.8956807,5.7848347 3.9687501,6.0123152 3.96875,6.28125 L 4.0625,6.28125 C 4.0908087,5.9415433 3.91342,5.6038615 3.53125,5.25 C 3.91342,5.25 4.3654398,5.0384192 4.875,4.65625 z M 6.75,3.65625 C 6.5659927,3.6704041 6.3514713,3.7134187 6.125,3.8125 C 5.8985292,3.9115814 5.6580893,4.068934 5.375,4.28125 C 5.3891545,4.3237133 5.499356,4.34375 5.71875,4.34375 C 5.9381434,4.3437501 6.12261,4.34375 6.25,4.34375 C 6.3773901,4.3437501 6.4675547,4.3107533 6.53125,4.21875 C 6.5949452,4.1267458 6.642096,4.0495407 6.65625,4 C 6.6704045,3.9504591 6.6303313,3.980514 6.53125,4.09375 C 6.4321689,4.2069852 6.27068,4.2641547 6.09375,4.25 C 5.9168192,4.2358458 5.893842,4.1615813 6,4.0625 C 6.1061588,3.9634187 6.353676,3.8402573 6.75,3.65625 z M 3.53125,4.75 L 4.0625,4.8125 L 4.0625,4.875 L 3.65625,5 L 3.53125,4.75 z M 23.78125,9.3125 L 23.84375,9.3125 C 23.872059,10.473164 23.935109,11.560476 24.0625,12.59375 C 23.652021,12.33897 23.368566,11.884008 23.15625,11.21875 L 23.15625,11.15625 L 23.78125,9.3125 z M 19.15625,11.15625 L 19.21875,11.3125 L 16.65625,12.125 L 16.65625,11.9375 L 19.15625,11.15625 z M 19.90625,11.5625 C 20.076105,11.576654 20.450919,11.871323 21.03125,12.4375 C 21.172795,12.833825 21.04136,12.913972 20.6875,12.6875 C 20.545955,13.281987 19.522238,12.942642 19.90625,11.5625 z"
     id="path2478"
     sodipodi:nodetypes="ccccssccssscscscccsscccssccccccsscsccccccccccccccccccscccccccccsscccccccccccccccsccccccccccccccccccccccccccssccccccccssssccccccscsccssccccccccccccccccccccccssccsssscccccccccccccccccccccccccccccsscccccscsssssssccccccccccccccccccccc" />
</svg>
