<?xml version="1.0" encoding="UTF-8" standalone="no"?>
<!-- Created with Inkscape (http://www.inkscape.org/) -->
<svg
   xmlns:dc="http://purl.org/dc/elements/1.1/"
   xmlns:cc="http://web.resource.org/cc/"
   xmlns:rdf="http://www.w3.org/1999/02/22-rdf-syntax-ns#"
   xmlns:svg="http://www.w3.org/2000/svg"
   xmlns="http://www.w3.org/2000/svg"
   xmlns:sodipodi="http://inkscape.sourceforge.net/DTD/sodipodi-0.dtd"
   xmlns:inkscape="http://www.inkscape.org/namespaces/inkscape"
   id="svg1334"
   sodipodi:version="0.32"
   inkscape:version="0.43"
   width="210mm"
   height="297mm"
   sodipodi:docbase="D:\Sauvegarde fontes Jsesh"
   sodipodi:docname="L1E.svg">
  <metadata
     id="metadata1339">
    <rdf:RDF>
      <cc:Work
         rdf:about="">
        <dc:format>image/svg+xml</dc:format>
        <dc:type
           rdf:resource="http://purl.org/dc/dcmitype/StillImage" />
        <dc:title>US22L1E</dc:title>
        <dc:date>5/01/2006</dc:date>
        <dc:creator>
          <cc:Agent>
            <dc:title>Serge Thomas</dc:title>
          </cc:Agent>
        </dc:creator>
        <dc:publisher>
          <cc:Agent>
            <dc:title>Serge Rosmorduc</dc:title>
          </cc:Agent>
        </dc:publisher>
        <dc:identifier>US22</dc:identifier>
        <dc:description>&quot;dégraissage&quot; de L1C extrait de la 5ème heure Amdouat KV34</dc:description>
      </cc:Work>
    </rdf:RDF>
  </metadata>
  <defs
     id="defs1337" />
  <sodipodi:namedview
     inkscape:window-height="708"
     inkscape:window-width="1024"
     inkscape:pageshadow="2"
     inkscape:pageopacity="0.0"
     borderopacity="1.0"
     bordercolor="#666666"
     pagecolor="#ffffff"
     id="base"
     showguides="true"
     inkscape:guide-bbox="true"
     inkscape:zoom="29.982706"
     inkscape:cx="357.87492"
     inkscape:cy="735.84692"
     inkscape:window-x="-4"
     inkscape:window-y="-4"
     inkscape:current-layer="svg1334" />
  <g
     id="g1384">
    <path
       style="fill:#000000;stroke:none"
       d="M 361.37626,307.52675 C 361.31602,307.52675 361.25695,307.62489 361.22432,307.826 C 361.15193,308.27207 361.25797,308.62462 361.70498,309.42394 C 362.20645,310.32066 362.26672,311.14419 361.90885,312.20972 C 361.63403,313.02797 361.49877,313.37009 361.32987,313.37009 C 361.25778,313.37009 361.17955,313.30775 361.08173,313.19351 C 360.99547,313.09277 360.55135,312.7718 360.17031,312.7718 C 360.1439,312.7718 360.11779,312.77334 360.09213,312.77661 C 360.08306,312.77776 360.07442,312.77835 360.0662,312.77835 C 359.95695,312.77835 359.92163,312.67464 359.92163,312.42124 C 359.92163,312.16258 359.85655,312.01317 359.68248,311.87222 C 359.52388,311.74379 359.45367,311.59961 359.47405,311.44415 C 359.49346,311.29599 359.48838,311.22242 359.44474,311.22242 C 359.40293,311.22242 359.32573,311.28994 359.20077,311.42407 C 359.1079,311.52376 358.97267,312.0539 358.88763,311.97133 C 358.82275,311.90832 358.88515,311.55203 359.00294,311.36313 C 359.07732,311.24384 359.29865,310.94585 359.33174,310.80284 C 359.37067,310.63453 359.36863,310.5759 359.29572,310.5759 C 359.27334,310.5759 359.24428,310.58143 359.20767,310.591 C 359.10635,310.61749 358.98159,310.73298 358.93043,310.84763 C 358.88703,310.94489 358.86346,310.99614 358.83297,310.99614 C 358.79884,310.99614 358.75604,310.9319 358.66705,310.79608 C 358.58073,310.66434 358.47425,310.58293 358.39416,310.58293 C 358.38127,310.58293 358.36907,310.58503 358.35774,310.58938 C 358.28132,310.6187 358.24296,310.6818 358.2725,310.72959 C 358.30204,310.77738 358.28109,310.89395 358.22595,310.98863 C 358.18922,311.0517 358.16551,311.08538 358.15019,311.08538 C 358.12961,311.08538 358.12419,311.02458 358.12272,310.89258 C 358.12055,310.69661 358.09049,310.64113 357.9476,310.64113 C 357.92604,310.64113 357.90191,310.6424 357.87492,310.64463 C 357.68927,310.65999 357.6301,310.7203 357.6301,310.89414 C 357.6301,311.00545 357.60276,311.06975 357.55909,311.06975 C 357.54875,311.06975 357.53751,311.06616 357.52549,311.05873 C 357.46796,311.02317 357.44314,310.93608 357.47035,310.86519 C 357.51621,310.74566 357.46929,310.68812 357.38929,310.68812 C 357.30066,310.68812 357.17142,310.75876 357.0828,310.89401 C 356.9938,311.02983 356.951,311.09407 356.91687,311.09407 C 356.88638,311.09407 356.86281,311.04282 356.81941,310.94556 C 356.76825,310.83091 356.6435,310.71542 356.54218,310.68893 C 356.50557,310.67936 356.47651,310.67383 356.45413,310.67383 C 356.38121,310.67383 356.37917,310.73246 356.4181,310.90077 C 356.45119,311.04378 356.6225,311.25839 356.69688,311.37768 C 356.81467,311.56658 357.00516,311.9076 356.86221,311.98587 C 356.74245,312.05144 356.64195,311.62169 356.54907,311.522 C 356.42408,311.38784 356.34454,311.32016 356.30214,311.32016 C 356.25618,311.32016 356.25385,311.39967 356.28454,311.56022 C 356.31566,311.72301 356.28363,311.83163 356.19441,311.86587 C 355.98859,311.94485 355.75052,312.46476 355.81997,312.68358 C 355.86633,312.82964 355.83433,312.87454 355.6839,312.87454 C 355.57573,312.87454 355.00758,312.9585 354.44676,313.46211 C 354.43774,313.47021 354.42771,313.47415 354.41674,313.47415 C 354.29116,313.47415 354.04373,312.95777 353.81167,312.25015 C 353.48469,311.25311 353.5583,310.39192 354.04486,309.52186 C 354.49187,308.72254 354.59792,308.37 354.52553,307.92393 C 354.49289,307.72281 354.43382,307.62468 354.37358,307.62468 C 354.30623,307.62468 354.23741,307.74734 354.20241,307.98588 C 354.16942,308.21067 354.09222,308.31563 353.93113,308.31563 C 353.84134,308.31563 353.72547,308.28302 353.57667,308.22036 C 353.52942,308.20046 353.49459,308.18815 353.47032,308.18815 C 353.40782,308.18815 353.41534,308.26977 353.46109,308.51363 C 353.51165,308.78316 353.52116,308.85638 353.4193,308.85638 C 353.38517,308.85638 353.33853,308.84816 353.27675,308.83635 C 353.22198,308.82588 353.17432,308.82065 353.13377,308.82065 C 352.94473,308.82065 352.91025,308.93427 353.03124,309.16034 C 353.18296,309.44383 353.07427,309.80366 352.81655,309.87105 C 352.65709,309.91275 352.6292,309.95879 352.70563,310.05413 C 352.76178,310.12418 352.95207,310.75438 353.12849,311.45457 C 353.30491,312.15476 353.55265,312.94521 353.67903,313.21113 C 353.80541,313.47705 353.9088,313.74653 353.9088,313.80998 C 353.9088,313.87343 354.00144,314.04311 354.11467,314.18706 C 354.21966,314.32052 354.29332,314.38164 354.35899,314.38164 C 354.38838,314.38164 354.41618,314.3694 354.44446,314.34592 C 354.46357,314.33006 354.4802,314.31976 354.49517,314.31976 C 354.57553,314.31976 354.34107,315.28392 354.71792,315.94689 C 354.81452,316.11683 354.69923,316.31257 354.54647,316.3386 C 353.86176,316.4553 353.84569,316.56591 353.61797,317.40623 C 353.41542,318.15366 353.4295,318.35208 353.4945,318.53241 C 353.53332,318.64014 353.54348,319.25373 353.66417,319.54922 C 353.82604,319.94558 353.7917,319.64304 354.01538,320.01392 C 354.03163,320.04086 354.10126,320.15379 354.12333,320.15379 C 354.24817,320.15379 354.23818,319.99986 354.16659,319.02116 C 354.09425,318.03205 354.10587,317.79608 354.24484,317.43218 C 354.37288,317.09691 354.53376,316.91297 354.6898,316.91297 C 354.72862,316.91297 354.76714,316.92436 354.80478,316.94762 C 354.85696,316.97987 354.8874,317.1012 354.87241,317.21724 C 354.72972,318.32232 355.01755,319.44102 355.09011,320.55292 L 354.6069,320.09896 L 354.31387,320.30762 C 354.1527,320.42239 353.97106,320.66711 353.91021,320.85146 C 353.75073,321.3347 353.86753,322.60307 354.19015,323.89153 C 354.2975,324.32026 354.78102,325.31777 354.93706,325.43241 C 355.00154,325.47979 355.08795,325.50356 355.15783,325.50356 C 355.22681,325.50356 355.27967,325.4804 355.27944,325.43391 C 355.27924,325.39351 355.18607,325.2079 355.0724,325.02144 C 354.94245,324.80827 354.90569,324.66909 354.97339,324.64653 C 355.04708,324.62197 355.0365,324.52451 354.93985,324.3376 C 354.86219,324.18743 354.75636,323.80529 354.70468,323.4884 C 354.653,323.17151 354.56295,322.78819 354.50458,322.63656 C 354.38929,322.33708 354.36253,321.60188 354.45789,321.35339 C 354.495,321.25667 354.53286,321.21167 354.57425,321.21167 C 354.62267,321.21167 354.67593,321.27328 354.73847,321.38576 C 355.42586,322.62188 357.38575,323.34134 357.82596,323.35292 C 357.83094,323.35305 357.83604,323.35312 357.84124,323.35312 C 358.44959,323.35312 360.52596,322.45947 360.93151,321.35414 C 360.98779,321.20073 361.03167,321.13518 361.07467,321.13518 C 361.1071,321.13518 361.13903,321.17247 361.1754,321.23746 C 361.34857,321.54689 361.02394,323.62196 360.70395,324.25109 C 360.61352,324.42886 360.60478,324.52402 360.67666,324.54798 C 360.74141,324.56956 360.69815,324.78612 360.56513,325.01155 C 360.44562,325.21412 360.372,325.43404 360.40155,325.46358 C 360.42868,325.49071 360.46036,325.50378 360.49555,325.50378 C 360.65575,325.50378 360.88879,325.17317 361.09737,324.72664 C 361.51121,323.84066 361.68724,323.07667 361.78577,321.82633 C 361.85699,320.92257 361.76463,320.56744 361.37497,320.24671 L 361.11096,320.02941 L 360.5617,320.55564 C 360.5617,320.55564 361.04894,318.27658 360.77823,317.20752 C 360.74591,317.07991 360.96888,316.78912 360.9591,316.80258 C 360.82195,316.99125 361.17241,316.65576 361.26087,316.84066 C 361.4298,317.19373 361.442,317.37636 361.38461,318.69201 C 361.33996,319.7155 361.34803,320.08675 361.41883,320.08675 C 361.42363,320.08675 361.42871,320.08504 361.43409,320.08172 C 361.49633,320.04325 361.54725,319.94828 361.54725,319.87067 C 361.54725,319.79306 361.58031,319.72956 361.62072,319.72956 C 361.66112,319.72956 361.77601,319.45413 361.87602,319.1175 C 361.97603,318.78087 362.05865,318.5824 362.10039,318.47265 C 362.20241,318.20432 362.07323,317.01499 361.86583,316.62031 C 361.72344,316.34937 361.64509,316.30205 361.33888,316.30205 C 360.99096,316.30205 360.84912,316.24528 361.01528,315.98378 C 361.402,315.37515 361.19659,314.22872 361.26324,314.22872 C 361.27636,314.22872 361.29066,314.23577 361.30644,314.24887 C 361.334,314.27174 361.36132,314.28363 361.3903,314.28363 C 361.45608,314.28363 361.53038,314.22236 361.63518,314.08913 C 361.7484,313.94519 361.84104,313.7755 361.84104,313.71205 C 361.84104,313.6486 361.94444,313.37912 362.07081,313.11321 C 362.19719,312.84728 362.44493,312.05683 362.62135,311.35664 C 362.79777,310.65645 362.98806,310.02625 363.04422,309.9562 C 363.12065,309.86086 363.09275,309.81482 362.93329,309.77312 C 362.67558,309.70573 362.56688,309.3459 362.7186,309.06241 C 362.83959,308.83635 362.80511,308.72272 362.61607,308.72272 C 362.57552,308.72272 362.52786,308.72795 362.47309,308.73842 C 362.41131,308.75023 362.36467,308.75845 362.33055,308.75845 C 362.22869,308.75845 362.23819,308.68523 362.28876,308.4157 C 362.33451,308.17184 362.34202,308.09022 362.27952,308.09022 C 362.25525,308.09022 362.22042,308.10253 362.17317,308.12243 C 362.02437,308.18509 361.9085,308.2177 361.81871,308.2177 C 361.65762,308.2177 361.58042,308.11274 361.54744,307.88795 C 361.51244,307.64941 361.44362,307.52675 361.37626,307.52675 z "
       id="path1594"
       sodipodi:nodetypes="csssssssssssssssssssssssssssssssssssssssssssssssssssssssssssssssssssssssssssssssssssscccssssssssssssssssssssssssscccsssssssssssssssssssssssssssssssc" />
    <path
       style="opacity:1;color:#000000;fill:#ffffff;fill-opacity:1;fill-rule:evenodd;stroke:#ffffff;stroke-width:0.1;stroke-linecap:round;stroke-linejoin:round;marker:none;marker-start:none;marker-mid:none;marker-end:none;stroke-miterlimit:4;stroke-dasharray:none;stroke-dashoffset:0;stroke-opacity:1;visibility:visible;display:inline;overflow:visible"
       d="M 355.32899,313.77536 C 354.83373,314.18737 355.06147,316.26327 355.44656,316.51695 C 356.37487,316.48915 357.09105,316.97797 357.78456,317.07668 C 358.42772,316.95255 358.81678,316.65866 360.13923,316.53041 C 360.63917,316.48193 360.88748,314.14174 360.49195,313.78296 C 358.49377,312.84819 356.92711,312.84598 355.32899,313.77536 z "
       id="path2209"
       sodipodi:nodetypes="cccscc" />
    <path
       style="opacity:1;color:#000000;fill:#ffffff;fill-opacity:1;fill-rule:evenodd;stroke:#ffffff;stroke-width:0.1;stroke-linecap:round;stroke-linejoin:round;marker:none;marker-start:none;marker-mid:none;marker-end:none;stroke-miterlimit:4;stroke-dasharray:none;stroke-dashoffset:0;stroke-opacity:1;visibility:visible;display:inline;overflow:visible"
       d="M 355.58646,317.08001 C 356.32281,317.11376 356.68246,317.16704 357.53091,317.68035 C 357.54203,319.29793 357.55314,320.91551 357.56426,322.53309 C 357.20295,322.36077 355.92855,322.01618 355.77342,321.2851 C 355.77342,321.2851 355.43316,318.15998 355.58646,317.08001 z "
       id="path3084"
       sodipodi:nodetypes="ccccc" />
    <path
       style="opacity:1;color:#000000;fill:#ffffff;fill-opacity:1;fill-rule:evenodd;stroke:#ffffff;stroke-width:0.1;stroke-linecap:round;stroke-linejoin:round;marker:none;marker-start:none;marker-mid:none;marker-end:none;stroke-miterlimit:4;stroke-dasharray:none;stroke-dashoffset:0;stroke-opacity:1;visibility:visible;display:inline;overflow:visible"
       d="M 359.99272,317.08 C 359.25637,317.11375 358.91672,317.16703 358.06827,317.68034 C 358.05715,319.29792 358.04604,320.9155 358.03492,322.53308 C 358.39623,322.36076 359.65063,322.01617 359.80576,321.28509 C 359.80576,321.28509 360.14602,318.15997 359.99272,317.08 z "
       id="path1354"
       sodipodi:nodetypes="ccccc" />
  </g>
</svg>
