<?xml version="1.0" encoding="UTF-8" standalone="no"?>
<svg
   xmlns:dc="http://purl.org/dc/elements/1.1/"
   xmlns:cc="http://creativecommons.org/ns#"
   xmlns:rdf="http://www.w3.org/1999/02/22-rdf-syntax-ns#"
   xmlns:svg="http://www.w3.org/2000/svg"
   xmlns="http://www.w3.org/2000/svg"
   xmlns:sodipodi="http://sodipodi.sourceforge.net/DTD/sodipodi-0.dtd"
   xmlns:inkscape="http://www.inkscape.org/namespaces/inkscape"
   width="23.182804"
   height="17.977583"
   id="svg2383"
   sodipodi:version="0.32"
   inkscape:version="0.46"
   sodipodi:docname="D10.svg"
   inkscape:output_extension="org.inkscape.output.svg.inkscape">
  <metadata
     id="metadata2390">
    <rdf:RDF>
      <cc:Work
         rdf:about="">
        <dc:format>image/svg+xml</dc:format>
        <dc:type
           rdf:resource="http://purl.org/dc/dcmitype/StillImage" />
      </cc:Work>
    </rdf:RDF>
  </metadata>
  <defs
     id="defs2388">
    <inkscape:perspective
       sodipodi:type="inkscape:persp3d"
       inkscape:vp_x="0 : 8.9887915 : 1"
       inkscape:vp_y="0 : 1000 : 0"
       inkscape:vp_z="23.182804 : 8.9887915 : 1"
       inkscape:persp3d-origin="11.591402 : 5.9925276 : 1"
       id="perspective2392" />
  </defs>
  <sodipodi:namedview
     inkscape:window-height="708"
     inkscape:window-width="1024"
     inkscape:pageshadow="2"
     inkscape:pageopacity="0.0"
     guidetolerance="10.0"
     gridtolerance="10.0"
     objecttolerance="10.0"
     borderopacity="1.0"
     bordercolor="#666666"
     pagecolor="#ffffff"
     id="base"
     showgrid="false"
     showguides="true"
     inkscape:guide-bbox="true"
     inkscape:zoom="27.974136"
     inkscape:cx="11.591402"
     inkscape:cy="4.6974589"
     inkscape:window-x="-4"
     inkscape:window-y="-4"
     inkscape:current-layer="svg2383" />
  <path
     style="fill:#000000; stroke:none"
     d="M 14.570356,0 C 12.221067,0 10.113576,0.941459 7.416731,2.757003 L 7.416731,2.757003 C 6.20128,3.409246 5.005587,3.68189 3.784805,3.756263 C 2.5207644,3.8357356 1.2578845,3.6913229 0.001815,3.565789 L 3e-06,3.565594 L 3e-06,3.567417 C 3e-06,4.117994 3e-06,4.668571 3e-06,5.219148 L 0,5.221152 L 0.001966,5.220751 C 0.948828,5.1549288 2.1815708,5.1606786 3.499506,5.1077911 C 5.3222252,5.0346471 6.217113,4.9381993 7.497208,4.349454 L 7.497436,4.349385 L 7.497636,4.349254 C 10.452383,2.398582 12.664898,1.572011 14.785246,1.572011 C 17.355583,1.6255196 19.6248,2.813672 21.86791,3.926845 C 22.630609,4.3649381 22.626027,4.1678285 22.851282,3.971578 C 23.100932,3.5544584 22.832603,3.2443255 22.520401,2.959638 C 22.520379,2.9596097 22.520356,2.9595813 22.520334,2.959553 C 22.520309,2.959528 22.520283,2.959503 22.520258,2.959478 C 21.8836,2.347785 21.213917,1.93683 20.502995,1.597694 C 18.625885,0.65695934 16.652906,0.1581929 14.570356,0 z M 15.850773,8.776488 C 15.815255,8.776488 15.7778,8.779196 15.738415,8.78491 L 15.73838,8.784916 C 15.580493,8.811175 15.473716,8.888865 15.414121,8.987752 C 15.354541,9.086614 15.342151,9.206619 15.372926,9.317496 C 15.423266,9.498849 15.589044,9.655629 15.852253,9.655629 C 15.910876,9.655629 15.974333,9.647852 16.042425,9.630836 L 16.042515,9.630815 L 16.042606,9.63078 C 16.280266,9.541199 16.370926,9.305584 16.318687,9.104369 C 16.272627,8.926958 16.11553,8.776488 15.850773,8.776488 z M 20.693544,10.333207 L 20.693544,10.333207 C 20.693544,10.333207 20.693544,10.333207 20.693544,10.333207 L 20.693544,10.333207 C 20.693544,10.333207 20.693544,10.333207 20.693544,10.333207 z M 0.82669669,8.6154208 C 3.4733192,9.0303637 6.2251281,9.1066052 8.892288,8.941958 L 8.892288,8.941958 C 8.399226,9.131378 7.911379,9.328246 7.430146,9.529838 L 7.427125,9.531105 L 7.429954,9.532759 C 7.765234,9.728999 8.5029157,9.9791493 8.8580167,10.159763 C 6.1842422,9.9704983 3.4550328,10.359913 0.81962869,10.845171 L 0.82669669,8.6154208 z M 17.938211,8.300865 C 19.421459,8.3468048 19.756441,9.6407691 20.655548,10.313906 L 20.670078,10.32451 L 20.687136,10.330821 L 20.687136,10.330821 C 20.687191,10.330841 20.689394,10.331659 20.693544,10.333207 L 20.693544,10.333207 C 19.581162,10.075484 18.537096,10.374471 17.47941,10.749307 C 17.66172,10.598593 17.816145,10.41885 17.931795,10.212471 C 18.213902,9.709052 18.26182,9.056567 17.938211,8.300865 z M 17.47941,10.749307 C 17.47941,10.749307 17.47941,10.749307 17.47941,10.749307 L 17.47941,10.749307 C 17.47941,10.749307 17.47941,10.749307 17.47941,10.749307 z M 16.947111,8.195743 C 17.071461,8.195743 17.192122,8.199403 17.308697,8.207125 L 17.308697,8.207125 C 17.724775,8.951588 17.710505,9.53626 17.475027,9.956486 C 17.228745,10.395988 16.735916,10.6694 16.199102,10.750844 C 16.087786,10.767734 15.974224,10.776368 15.860178,10.776368 C 15.416738,10.776368 14.965991,10.645843 14.611551,10.36269 C 14.188445,10.024673 13.895333,9.463064 13.92351,8.617529 L 13.92351,8.617529 C 14.125525,8.573464 14.326184,8.531285 14.524664,8.491781 C 15.360192,8.325478 16.155861,8.206876 16.848557,8.196489 C 16.881659,8.195994 16.914511,8.195743 16.947111,8.195743 z M 13.398092,8.735297 C 13.400194,9.675486 13.757873,10.351007 14.284997,10.771993 C 14.383926,10.851005 14.488587,10.920857 14.597665,10.981747 L 14.597665,10.981747 C 14.418951,10.977148 14.240423,10.969012 14.062089,10.956954 L 14.062089,10.956954 C 14.010615,10.949333 13.959191,10.941276 13.907817,10.932793 C 12.544341,10.707644 11.21436,10.182668 9.888103,9.528 L 9.888103,9.528 C 10.966982,9.329958 12.193789,9.011538 13.398092,8.735297 z M 2.666881,16.890533 L 2.666881,16.890533 L 2.666881,16.890533 C 2.666881,16.890533 2.666881,16.890533 2.666881,16.890533 z M 10.745109,8.1897379 C 6.6170612,8.9979494 3.1028213,8.2166736 0.021374,7.696724 L 0.028426,11.861645 L 0.028426,11.861645 C 3.078316,10.925376 6.4683083,10.667264 9.6289911,10.573738 C 11.790898,11.433926 13.949006,12.282506 16.225396,12.314139 L 16.225396,12.314139 C 15.460599,12.950445 15.535161,12.796868 15.03777,13.212563 L 15.03777,13.212563 C 13.447422,14.309076 11.979799,15.210567 10.156051,15.920901 C 8.525035,16.619831 7.1382726,17.228818 5.2900496,17.228818 C 4.7473876,17.228818 4.2928558,17.292243 3.411364,17.040718 L 3.411364,17.040718 C 2.728996,16.499239 2.61123,15.782267 2.850942,15.256983 C 3.038657,14.845639 3.445644,14.551723 3.972724,14.551723 C 4.127682,14.551723 4.29302,14.577126 4.466217,14.632418 C 4.466217,14.632418 4.466217,14.632418 4.466217,14.632418 C 4.9690583,14.939215 4.9158021,15.536699 4.8372687,15.742388 C 4.658928,16.153236 4.2918864,16.281197 4.038302,16.297709 L 4.038302,16.297709 C 3.6089071,16.260631 3.4720727,16.085481 3.4751788,15.722127 C 3.4838959,15.320225 3.9862088,15.125483 4.2640532,15.646544 C 4.2641692,15.646002 4.4462888,15.638667 4.4552248,15.543298 C 4.3724016,15.30597 4.4354603,15.111419 4.0253263,14.980606 C 3.4651381,14.880653 3.1406846,15.270465 3.1448287,15.640435 C 3.1313644,16.500463 3.5768772,16.633595 4.250069,16.611982 C 4.7008271,16.61059 5.0122509,16.209462 5.17946,15.905671 C 5.3006098,15.484177 5.340367,15.144861 5.153456,14.798614 C 4.966525,14.452327 4.578197,14.175013 3.91917,14.105008 L 3.919056,14.104996 L 3.918938,14.105 C 3.0373,14.13784 2.544112,14.680075 2.383803,15.315877 C 2.246852,15.859037 2.352852,16.470387 2.666881,16.890533 L 2.666881,16.890533 C 3.4071793,17.71829 4.0194052,17.759145 5.41482,17.824183 C 5.588193,17.824183 5.766918,17.818792 5.950446,17.808178 C 7.121954,17.740427 8.495277,17.461405 9.924104,17.01755 C 12.676579,16.16251 15.634718,14.695976 17.744955,12.952377 L 17.744955,12.952377 C 17.943259,14.455104 18.152205,15.962555 18.361391,17.461145 C 18.565216,17.904494 18.972443,18.001306 19.311869,17.977583 C 19.322084,16.662341 19.27773,15.34763 19.24572,14.032929 L 19.24572,14.032929 L 19.832617,13.189182 C 19.60532,12.961888 19.378026,12.734591 19.15073,12.507296 L 19.15073,12.507296 C 19.038496,12.246548 19.001024,11.963796 19.037954,11.542611 L 19.037954,11.542611 C 19.230885,11.246306 19.546486,11.131153 19.893305,11.090541 C 19.999302,11.078129 20.108068,11.072973 20.217417,11.072973 C 20.509176,11.072973 20.805099,11.10968 21.063721,11.14321 L 21.063721,11.14321 L 22.616203,11.655317 L 23.182804,10.560472 C 22.718372,10.417275 22.357925,10.245028 21.942867,9.914056 C 21.232677,9.426197 20.803127,8.87466 20.35339,8.377111 C 19.903378,7.879261 19.433144,7.435441 18.641792,7.163273 L 18.641695,7.163239 L 18.64159,7.163218 C 15.714653,6.53645 13.312548,7.4996038 10.745109,8.1897379 z"
     id="path2385"
     sodipodi:nodetypes="ccccccccccsccccccccccccccssscccscccccccccccccccccccccccsccccccccssssccssccsccccscccccccccccccccccsccssccccccccccccscccscccsscccccccccccsscccccscccc" />
</svg>
