<?xml version="1.0" encoding="UTF-8" standalone="no"?>
<svg
   xmlns:dc="http://purl.org/dc/elements/1.1/"
   xmlns:cc="http://web.resource.org/cc/"
   xmlns:rdf="http://www.w3.org/1999/02/22-rdf-syntax-ns#"
   xmlns:svg="http://www.w3.org/2000/svg"
   xmlns="http://www.w3.org/2000/svg"
   xmlns:sodipodi="http://inkscape.sourceforge.net/DTD/sodipodi-0.dtd"
   xmlns:inkscape="http://www.inkscape.org/namespaces/inkscape"
   width="11.549409"
   height="17.977417"
   id="svg1485"
   sodipodi:version="0.32"
   inkscape:version="0.43"
   sodipodi:docname="C3D.svg"
   sodipodi:docbase="C:\Program Files\JSesh\fonts">
  <metadata
     id="metadata1492">
    <rdf:RDF>
      <cc:Work
         rdf:about="">
        <dc:format>image/svg+xml</dc:format>
        <dc:type
           rdf:resource="http://purl.org/dc/dcmitype/StillImage" />
      </cc:Work>
    </rdf:RDF>
  </metadata>
  <defs
     id="defs1490" />
  <sodipodi:namedview
     inkscape:window-height="708"
     inkscape:window-width="1024"
     inkscape:pageshadow="2"
     inkscape:pageopacity="0.0"
     borderopacity="1.0"
     bordercolor="#666666"
     pagecolor="#ffffff"
     id="base"
     showguides="true"
     inkscape:guide-bbox="true"
     inkscape:zoom="29.937579"
     inkscape:cx="5.8487336"
     inkscape:cy="10.338177"
     inkscape:window-x="-4"
     inkscape:window-y="-4"
     inkscape:current-layer="svg1485" />
  <g
     id="g3298">
    <path
       sodipodi:nodetypes="ccsscccccccsscccccssssccsccccccccccsssccccccs"
       id="path1487"
       d="M 9.582106,17.311146 L 8.987222,16.906624 C 9.5424473,15.256811 9.8478213,13.012112 9.903344,10.172529 C 9.9588667,7.3329463 10.042597,5.7931168 9.653492,5.853666 C 9.430571,5.8883551 9.2806973,7.924585 9.20138,9.225399 L 7.821247,9.225399 L 7.821247,6.1662914 L 7.2663886,6.3496757 C 6.4536997,7.3580205 6.7266597,10.696028 6.583887,14.50329 L 5.774844,14.50329 L 2.49108,10.077348 C 2.015172,9.3158953 1.5947867,9.0620777 1.229924,9.315895 C 0.86506133,9.5697123 1.0157657,10.251847 1.682037,11.362299 C 2.3483077,12.47275 2.951124,14.209813 3.490486,16.573488 L 1.229924,17.311146 L 9.582106,17.311146 z M 10.533921,9.609624 L 11.11048,9.5443465 L 11.040428,5.1017859 C 10.981913,1.3908999 9.9406788,0.73208502 8.9776434,0.63899485 C 7.8225191,0.52733676 9.2031724,2.1404638 8.7450042,2.6987483 C 7.5461742,4.1595395 8.4260098,4.5929206 8.4171787,5.335668 L 8.377155,8.701901 L 8.701676,8.701901 C 8.796858,7.290041 8.8325555,5.1793614 9.605902,5.127906 C 10.280668,5.0830098 10.407012,5.5244963 10.486331,6.270085 L 10.533921,9.609624 z M 10.243735,0.66404813 C 11.935219,1.7758122 11.440945,5.1794373 11.549533,10.180714 L 10.581512,10.180714 C 10.66083,12.687161 10.43874,14.170155 9.915241,16.549694 L 11.00983,17.977417 L 0.825403,17.977417 L 0.706426,17.025602 L 2.514875,16.240353 C 2.0706943,14.400176 1.5273663,12.885203 0.884891,11.695434 C 0.24241567,10.505665 -0.051060667,9.7402463 0.004462,9.399179 C 0.059984667,9.0581117 0.34552933,8.74084 0.861096,8.447364 C 1.3766627,8.1538873 1.943786,8.2530343 2.562466,8.744805 L 5.917616,13.26593 C 6.060388,9.585576 5.8588142,7.448821 6.6837215,5.9417803 L 7.926678,5.3077927 L 8.5653242,1.9647715 L 8.5582277,0.063890351 C 9.327725,0.021790508 10.040974,0.53077936 10.243735,0.66404813 z "
       style="fill:#000000; stroke:none" />
    <path
       sodipodi:nodetypes="cscssssccccccccssscscsccccssccscccscssc"
       id="path1335"
       d="M 6.0762035,4.1490499 C 6.4208396,3.597189 6.6112563,3.4797736 6.8842238,3.2824841 C 7.2825952,2.994558 7.5385982,2.6124841 7.5010982,2.0874842 C 6.3885982,1.9999842 5.3917238,2.1031094 4.5104738,2.3968598 C 3.6292239,2.6906093 2.7510978,3.5212341 1.8760976,4.8087341 C 1.7760976,4.9462341 1.6635975,4.9718593 1.5385975,4.9656097 C 1.4135975,4.9593593 1.2809285,4.668332 1.3085975,4.4937341 C 1.5210975,3.1528256 3.1154479,0.94130572 6.097596,0.57539724 C 6.372596,0.21289726 6.7948482,-0.04001564 7.2948482,0.04748436 C 7.4025007,-0.28554924 7.8240556,-0.018011636 7.7216478,-0.084577538 C 10.107067,-0.43580564 8.9905127,3.0543431 8.6713868,3.3575534 C 8.2417592,3.7064972 8.0665141,4.5720793 8.0399873,5.9276877 C 7.1834977,5.9316542 5.4450662,6.4163749 6.0762035,4.1490499 z M 6.5414032,5.4349079 C 7.1702962,5.9522693 8.074654,5.4132081 7.5198482,4.5387341 C 7.4198482,4.3012341 7.5729734,3.9199841 7.9792238,3.3949841 C 8.3854734,2.8699841 8.5917234,2.3293594 8.5979738,1.7731098 C 8.6042234,1.2168595 8.4979734,0.83560927 8.2792238,0.62935984 C 8.0604734,0.42310956 7.8760982,0.35123436 7.7260982,0.41373436 C 7.8385982,0.55123422 7.8917234,0.76060942 7.8854738,1.0418599 C 7.8792234,1.3231095 7.7510982,1.5574843 7.5010982,1.7449842 C 7.6260982,1.7449842 7.763304,1.8229947 7.8152929,1.9606098 C 7.9902168,2.4236357 7.8006913,3.1873853 6.5375769,4.2578653 C 6.4000769,4.6453654 6.3486744,5.1280178 6.5414032,5.4349079 z M 4.3510978,2.0731098 C 5.1762788,1.7548279 6.0135982,1.6137343 6.8635982,1.6512343 C 7.3260982,1.6137343 7.5729734,1.4199843 7.6042238,1.0699844 C 7.6354734,0.71998422 7.5721342,0.51183892 7.4073482,0.46998432 C 7.0323482,0.37473656 6.8119956,0.27025876 6.3198482,0.89298411 C 4.0089999,1.1236673 2.0985156,2.7380623 1.5235155,4.6255623 C 1.5235155,4.6255623 2.2351398,2.829125 3.8823479,1.9137342 C 4.6495188,1.4873998 5.5135982,1.2637342 6.4135982,1.1262344 L 6.4510982,1.3928146 C 3.5126739,1.5725668 2.2444348,3.4661102 1.6470175,4.6669361 C 1.6470175,4.6669361 3.0359139,2.5803917 4.3510978,2.0731098 z M 6.5823482,0.97623422 C 6.6448482,0.72623422 6.7792234,0.59498422 6.9854738,0.58248422 C 7.1917234,0.56998422 7.2979734,0.65435944 7.3042238,0.83560967 C 7.3104734,1.0168593 7.0698482,1.0637344 6.5823482,0.97623422 z "
       style="fill:#000000;stroke:none" />
    <path
       sodipodi:nodetypes="cccsccccccc"
       id="path1548"
       d="M 6.5984993,9.2489984 C 5.952666,9.2489984 5.6509993,9.1956734 5.005166,9.1956734 C 5.005166,7.3675484 4.5667126,4.8924605 5.9545744,3.9379074 C 6.7997144,3.3995038 6.6740781,3.700866 6.4215804,3.9263952 C 6.2004464,4.1239106 6.3639017,5.8548781 6.8892673,5.9990721 C 6.863645,7.0023331 6.6241215,8.2457374 6.5984993,9.2489984 z M 5.4733608,8.7608814 C 5.9681525,8.7608814 5.8203124,8.7630286 6.3151041,8.7630286 L 6.2660722,6.1006078 C 5.7669157,5.7868388 5.767977,5.0197829 5.9033937,4.4885329 C 5.2828689,5.6199306 5.4733608,7.0421314 5.4733608,8.7608814 z "
       style="fill:#000000;stroke:none" />
  </g>
</svg>
