<?xml version='1.0' encoding='UTF-8'?>
<svg xmlns="http://www.w3.org/2000/svg" xmlns:xlink="http://www.w3.org/1999/xlink" xmlns:inkscape="http://www.inkscape.org/namespaces/inkscape" width="23.64" height="17.96">
<path style="fill:#000000; stroke:none" d=" M 9.54 0.83  C 9.31 1.05 9.08 1.64 8.82 2.61  C 8.56 1.65 8.27 1.07 7.98 0.83  Z  M 7.26 0.83  C 7.68 0.97 8.18 1.59 8.76 2.74  C 8.32 2.37 7.91 2.18 7.54 2.18  C 7.17 2.18 6.84 2.36 6.54 2.71  C 6.8 1.65 7.04 1.04 7.26 0.83  Z  M 10.32 0.83  C 10.53 1.04 10.76 1.64 11.01 2.68  C 10.73 2.35 10.42 2.18 10.08 2.18  C 9.72 2.18 9.33 2.37 8.92 2.74  C 9.46 1.59 9.93 0.97 10.32 0.83  Z  M 9.92 2.55  C 10.21 2.55 10.47 2.68 10.73 2.93  C 10.99 3.17 11.14 3.36 11.14 3.49  C 11.14 4.08 10.96 4.52 10.64 4.8  C 10.32 5.09 10.05 5.21 9.79 5.21  C 9.54 5.21 9.41 4.97 9.39 4.49  C 9.36 4.02 9.46 3.8 9.73 3.8  C 9.99 3.8 10.25 3.66 10.51 3.4  C 10.26 3.22 10.03 3.15 9.82 3.15  C 9.62 3.15 9.44 3.22 9.29 3.36  C 9.25 3.41 9.21 3.43 9.18 3.43  C 9.11 3.43 9.07 3.31 9.07 3.08  C 9.32 2.74 9.6 2.56 9.92 2.55  Z  M 7.45 2.55  C 7.78 2.55 8.1 2.7 8.39 2.99  C 8.67 3.27 8.79 3.92 8.79 4.99  L 8.79 6.18  C 8.62 4.36 8.44 3.41 8.26 3.3  C 8.08 3.18 7.91 3.11 7.73 3.11  C 7.55 3.11 7.35 3.2 7.1 3.4  C 7.35 3.66 7.61 3.8 7.89 3.8  C 8.17 3.8 8.35 4.04 8.42 4.55  C 8.47 5.03 8.32 5.27 8 5.27  C 7.98 5.27 7.97 5.27 7.95 5.27  C 7.59 5.24 7.28 5.07 6.98 4.77  C 6.68 4.48 6.51 4.06 6.51 3.49  C 6.61 2.87 6.93 2.55 7.45 2.55  Z  M 17.67 8.05  L 17.67 8.24  C 17.61 8.18 17.53 8.11 17.48 8.05  Z  M 5.92 9.02  C 5.44 9.74 5.09 10.41 4.82 11.05  L 4.29 11.05  C 4.16 11.05 4.04 11.03 3.92 11.02  C 4.41 10.35 5.06 9.68 5.85 9.02  Z  M 7.92 8.05  C 8.26 8.58 8.62 9.17 9.04 9.86  L 9.04 11.05  L 5.73 11.05  C 6.09 10.12 6.61 9.12 7.32 8.05  Z  M 20.54 8.05  L 20.54 11.05  L 19.76 11.05  C 19.56 10.76 19.32 10.41 19.17 10.18  C 19.01 9.94 18.84 9.69 18.64 9.43  L 18.64 8.05  Z  M 14.51 5.74  C 16.4 7.41 18.53 9.96 20.92 13.4  C 20.61 13.41 20.26 13.43 19.89 13.43  C 19.43 13.05 18.38 12.3 16.73 11.18  C 15.08 10.05 13.87 9.13 13.07 8.43  C 12.29 7.73 11.89 7.16 11.89 6.68  C 11.9 6.4 12 6.24 12.2 6.24  C 13.21 6.19 13.98 6.02 14.51 5.74  Z  M 8.79 8.02  L 8.79 8.02  C 10.63 9.77 11.81 11.4 12.35 12.9  C 12.31 13.4 12.21 13.78 12.04 14.02  C 11.64 13.67 11.4 13.37 11.29 13.11  C 10.67 11.44 9.83 9.75 8.79 8.02  Z  M 20.23 13.71  C 20.6 13.72 20.92 13.74 21.14 13.8  C 21.36 13.86 21.61 14.1 21.89 14.52  C 21.37 14.47 20.81 14.21 20.23 13.71  Z  M 3.32 11.96  C 3.63 12.02 3.95 12.05 4.29 12.05  L 4.51 12.05  C 4.38 12.52 4.29 12.97 4.29 13.4  C 4.29 14.63 3.99 15.24 3.42 15.24  C 2.84 15.24 2.57 14.93 2.57 14.3  C 2.57 13.68 2.83 12.91 3.32 11.96  Z  M 21.29 14.55  L 21.82 14.68  C 21.96 14.68 22.23 14.94 22.57 15.49  L 22.23 15.43  C 22.05 15.43 21.74 15.14 21.29 14.55  Z  M 22.2 15.58  C 22.57 15.58 22.93 15.9 23.26 16.55  L 23.1 16.58  L 22.2 15.58  Z  M 12.54 14.18  L 12.54 14.52  C 12.54 15.41 12.48 16 12.35 16.3  C 12.23 16.59 11.84 16.78 11.2 16.83  C 11.47 15.52 11.6 14.69 11.6 14.33  L 12.1 14.8  L 12.54 14.18  Z  M 20.32 14.24  C 20.59 14.48 21.22 15.4 22.23 17.02  L 21.92 17.11  L 20.32 14.24  Z  M 18.95 13.15  L 19.57 13.61  C 19.77 13.85 20.43 15.05 21.57 17.21  L 21.07 17.3  L 18.95 13.15  Z  M 11.76 4.18  C 12.12 4.18 12.88 4.59 14.04 5.36  C 13.99 5.52 13.38 5.61 12.23 5.68  C 11.45 5.68 11.07 5.99 11.07 6.58  C 11.07 7.25 11.57 7.98 12.57 8.8  C 13.59 9.63 15.49 11.02 18.29 12.99  C 18.34 13 19.18 14.45 20.76 17.33  C 19.61 17.33 18.63 16.72 17.82 15.49  C 17.72 15.38 17.21 14.47 16.32 12.77  C 16.21 12.42 15.54 11.86 14.32 11.08  L 14.32 11.08  C 14.44 11.86 14.28 12.76 13.85 13.8  L 13.1 12.9  C 12.46 11.2 11.56 9.82 10.42 8.77  C 9.27 7.72 8.45 7.01 7.95 6.61  C 7.45 6.21 6.99 5.63 6.6 4.93  L 6.6 4.93  C 7.12 5.4 7.59 5.65 7.98 5.65  C 8.37 5.65 8.57 5.82 8.57 6.18  C 8.57 6.34 8.64 6.43 8.79 6.43  C 8.98 6.43 9.07 6.34 9.07 6.18  C 9.07 5.82 9.26 5.65 9.64 5.65  C 10.02 5.65 10.44 5.47 10.85 5.11  C 11.26 4.75 11.55 4.42 11.76 4.18  Z  M 10.54 0  C 10.43 0 10.3 0.09 10.14 0.27  L 7.45 0.27  C 7.29 0.09 7.17 0.01 7.06 0.01  C 7.03 0.01 7.01 0.01 6.98 0.02  C 6.93 0.04 6.89 0.07 6.85 0.11  C 6.7 0.3 6.48 0.78 6.23 1.55  C 5.97 2.33 5.85 3.12 5.85 3.93  C 5.85 4.74 6.12 5.49 6.67 6.21  C 6.83 6.42 7.05 6.78 7.26 7.08  L 6.2 7.08  C 6.19 7.08 6.18 7.08 6.16 7.08  C 4.92 7.08 4.04 6.13 3.51 4.24  C 3.43 3.96 3.28 3.82 3.07 3.8  C 3.06 3.8 3.05 3.8 3.04 3.8  C 2.98 3.8 2.92 3.81 2.85 3.83  C 2.52 3.94 2.41 4.16 2.51 4.52  C 3.19 6.89 4.42 8.05 6.2 8.05  C 5.05 8.57 4 9.47 3.04 10.74  C 3.02 10.77 3 10.8 2.98 10.83  C 2.06 10.44 1.42 9.57 1.04 8.24  C 0.95 7.95 0.77 7.81 0.54 7.81  C 0.48 7.81 0.42 7.82 0.35 7.83  C 0.02 7.92 -0.06 8.14 0.04 8.52  C 0.49 10.1 1.28 11.16 2.42 11.68  C 1.88 12.62 1.6 13.54 1.6 14.46  C 1.6 15.66 2.18 16.27 3.35 16.27  C 4.55 16.27 5.14 15.45 5.14 13.8  C 5.14 13.25 5.25 12.67 5.42 12.05  L 10.23 12.05  C 10.09 11.77 9.94 11.48 9.76 11.15  L 9.76 11.15  C 9.95 11.48 10.1 11.78 10.23 12.05  C 10.57 12.74 10.77 13.26 10.76 13.55  C 10.83 14.3 10.72 15.31 10.42 16.61  C 10.28 16.77 10.13 16.87 9.95 16.87  C 9.94 16.87 9.93 16.86 9.92 16.86  L 7.76 16.86  C 6.97 16.86 6.57 17.21 6.57 17.96  L 7.07 17.77  L 12.35 17.77  C 13.03 17.38 13.39 16.41 13.39 14.83  L 13.39 13.93  C 13.61 14.09 13.93 14.28 14.35 14.52  C 14.83 13.56 14.98 12.8 14.82 12.18  L 14.82 12.18  L 15.57 12.86  C 15.79 12.99 16.33 13.82 17.14 15.36  C 17.95 16.92 19.06 17.71 20.51 17.71  C 20.98 17.71 21.76 17.54 22.82 17.24  L 21.92 15.86  L 22.98 16.99  C 23.34 16.99 23.51 16.85 23.51 16.58  C 23.51 16.31 23.11 15.6 22.29 14.46  C 21.59 13.54 20.99 12.75 20.48 12.05  L 23.64 12.05  L 23.64 11.05  L 21.51 11.05  L 21.51 8.05  L 23.64 8.05  L 23.64 7.08  L 16.6 7.08  C 16.39 6.85 16.24 6.67 16.01 6.43  C 14.56 4.91 13.16 3.95 11.79 3.55  C 11.71 2.87 11.56 2.17 11.32 1.46  C 11.08 0.74 10.87 0.3 10.73 0.11  C 10.67 0.04 10.61 0 10.54 0  Z "/></svg>
