<?xml version="1.0" encoding ="US-ASCII" standalone="yes"?>
<svg width="15.492334" height="17.977417">
<path style="fill:#000000; stroke:none" d=" M 14.339308 4.78048  Q 13.91305 4.609977 13.503842 5.598895  Q 13.094635 6.587812 13.520893 6.758315  Q 13.947151 6.928818 14.356359 5.948426  Q 14.765566 4.968033 14.339308 4.78048  Z  M 4.262577 6.775365  Q 4.160275 5.701196 3.393011 5.087385  Q 3.086106 4.81458 2.915602 4.831631  Q 1.977836 5.138536 1.432226 5.769397  Q 0.852515 6.127454 0.664962 5.650045  Q 0.613811 4.985084 1.449276 3.962065  Q 1.858483 3.586958 2.097188 3.075449  Q 2.557546 2.785594 3.103156 2.54689  Q 2.881502 1.592072 2.352942 0.586104  Q 2.76215 -0.351663 3.648766 0.210998  Q 3.597615 1.43862 3.836319 2.512789  L 3.972721 2.461638  Q 4.46718 1.779626 4.927538 0.210998  Q 6.018758 -0.18116 6.257463 0.961211  Q 4.825237 2.188833 4.671784 3.228902  Q 4.791136 4.320121 5.780054 5.462492  Q 6.768972 6.604863 8.013644 7.721658  Q 9.258316 8.838452 9.940329 9.205034  Q 10.622341 9.571616 11.304354 11.447149  L 13.060534 7.167522  Q 12.429673 6.792416 12.847406 5.64152  Q 13.265139 4.490624 13.776648 4.303071  L 13.810748 3.586958  Q 14.049453 3.245952 14.373408 3.535807  L 14.578012 4.166669  L 15.208874 3.876813  Q 15.54988 3.859763 15.481678 4.23487  L 15.055421 4.831631  Q 15.294125 5.309039 14.782616 6.417309  Q 14.271107 7.525579 13.554994 7.372126  L 11.014498 13.544337  L 5.677752 13.544337  Q 5.507249 13.305633 5.865305 13.049878  Q 6.359765 12.742973 6.862749 12.939052  Q 7.365733 13.13513 7.612962 13.041353  Q 7.860191 12.947577 8.201198 12.896425  Q 8.542204 12.845275 8.525153 12.453117  Q 8.030694 11.685854 7.843141 11.080568  Q 7.655588 10.475282 7.22933 10.407081  Q 6.803072 10.33888 5.660702 9.639817  Q 5.387897 9.639817 5.200344 9.929672  Q 4.859337 11.259596 4.177325 13.049878  Q 4.023872 13.544337 3.103156 13.527287  L 2.301791 13.527287  Q 2.540496 12.674771 3.273659 12.436068  Q 3.938621 12.57247 4.18585 11.225495  Q 4.43308 9.878521 4.416029 8.70205  L 4.262577 6.775365  Z  M 9.47997 13.049878  Q 9.718675 13.083979 10.017056 13.066929  Q 10.315435 13.049878 10.52004 12.742973  Q 10.724643 12.436068 10.707593 11.924558  Q 10.690542 11.413049 10.392162 10.756612  Q 10.093781 10.100175 8.88321 9.077157  Q 7.416883 8.12234 5.626601 5.92285  Q 5.200344 5.479542 4.663259 4.695228  Q 4.126174 3.910914 4.381929 3.194801  L 4.194376 2.802644  Q 2.659848 3.024298 2.404093 3.348254  Q 2.165389 3.774512 1.858483 4.013216  Q 1.142371 4.661128 0.971868 5.411341  Q 1.005968 5.701196 1.346974 5.564794  Q 1.346974 4.968033 2.21654 4.473574  L 2.335892 4.558825  Q 1.977836 4.763429 1.619779 5.206738  L 1.67093 5.240838  Q 2.455244 4.524725 2.830351 4.558825  Q 3.35891 4.456524 3.734017 4.609977  Q 4.671784 5.530693 4.99574 7.610831  Q 5.319695 8.275792 5.873831 8.846978  Q 6.427966 9.418163 6.990626 9.597191  Q 7.553286 9.776219 7.843141 10.253628  Q 7.843141 9.776219 8.218247 9.801795  Q 8.593354 9.827371 9.164539 10.304779  Q 9.735725 10.782187 9.778351 11.165819  Q 9.820976 11.549452 9.7272 11.310747  Q 9.633423 11.072042 9.386194 10.858914  Q 9.138965 10.645785 8.687131 10.407081  Q 8.235298 10.168377 8.439901 10.867439  L 9.47997 13.049878  Z  M 2.693949 3.518757  L 2.949703 3.518757  L 3.103156 3.638109  Q 2.983804 3.910914 2.676898 3.996166  Q 2.267691 3.945015 2.25064 3.842713  Q 2.335892 3.621059 2.693949 3.518757  Z  M 7.109978 17.261305  Q 10.929247 17.193104 12.992333 14.362752  L 1.261723 14.362752  Q 3.30776 17.193104 7.127028 17.261305  L 7.109978 17.261305  Z  M 7.127028 17.977417  Q 2.097188 17.960367 0 13.680739  L 14.237006 13.680739  Q 12.156869 17.960367 7.127028 17.977417  Z "/></svg>
