<?xml version="1.0" encoding="UTF-8" standalone="no"?>
<svg
   xmlns:dc="http://purl.org/dc/elements/1.1/"
   xmlns:cc="http://creativecommons.org/ns#"
   xmlns:rdf="http://www.w3.org/1999/02/22-rdf-syntax-ns#"
   xmlns:svg="http://www.w3.org/2000/svg"
   xmlns="http://www.w3.org/2000/svg"
   xmlns:sodipodi="http://sodipodi.sourceforge.net/DTD/sodipodi-0.dtd"
   xmlns:inkscape="http://www.inkscape.org/namespaces/inkscape"
   width="16.680412"
   height="17.972734"
   id="svg2598"
   sodipodi:version="0.32"
   inkscape:version="0.46"
   sodipodi:docname="I10.svg"
   inkscape:output_extension="org.inkscape.output.svg.inkscape">
  <metadata
     id="metadata2605">
    <rdf:RDF>
      <cc:Work
         rdf:about="">
        <dc:format>image/svg+xml</dc:format>
        <dc:type
           rdf:resource="http://purl.org/dc/dcmitype/StillImage" />
      </cc:Work>
    </rdf:RDF>
  </metadata>
  <defs
     id="defs2603">
    <inkscape:perspective
       sodipodi:type="inkscape:persp3d"
       inkscape:vp_x="0 : 8.9863672 : 1"
       inkscape:vp_y="0 : 1000 : 0"
       inkscape:vp_z="16.680412 : 8.9863672 : 1"
       inkscape:persp3d-origin="8.3402061 : 5.9909115 : 1"
       id="perspective2607" />
  </defs>
  <sodipodi:namedview
     inkscape:window-height="667"
     inkscape:window-width="640"
     inkscape:pageshadow="2"
     inkscape:pageopacity="0.0"
     guidetolerance="10.0"
     gridtolerance="10.0"
     objecttolerance="10.0"
     borderopacity="1.0"
     bordercolor="#666666"
     pagecolor="#ffffff"
     id="base"
     showgrid="false"
     inkscape:zoom="25.705604"
     inkscape:cx="8.3402061"
     inkscape:cy="8.9863672"
     inkscape:window-x="66"
     inkscape:window-y="67"
     inkscape:current-layer="svg2598" />
  <path
     style="fill:#000000; stroke:none"
     d=" M 0 0.871529  Q 0 0.115048 1.39949 0.014184  Q 2.798981 -0.08668 2.950277 0.518505  Q 4.160647 0.821097 4.097607 1.602795  Q 4.034567 2.384492 3.858055 3.014893  Q 3.681542 3.645294 5.118857 3.531822  Q 6.556171 3.41835 10.590738 3.430958  Q 14.625305 3.443566 15.646555 5.183473  Q 16.667805 6.92338 16.680412 8.57503  Q 16.69302 10.226682 16.327387 12.029629  Q 15.961755 13.832576 16.415644 17.514118  Q 16.440861 18.094088 15.961755 17.942791  Q 15.684379 17.942791 15.255706 15.975939  Q 14.751385 14.31168 15.091802 11.399227  Q 15.432219 8.486774 14.284888 6.872948  Q 13.137558 5.259121 10.792466 5.170865  Q 8.447374 5.082609 4.538888 5.359985  Q 3.076357 5.359985 2.660293 4.981744  Q 2.244228 4.603504 2.193796 3.973103  Q 2.143364 3.342702 2.445956 2.573612  Q 2.748549 1.804523 2.382916 1.993643  Q 2.017283 2.182764 1.008642 1.829739  Q 0 1.476714 0 0.871529  Z  M 0.756481 0.921962  Q 0.756481 1.224554 1.361666 1.325418  Q 3.25287 1.37585 3.152005 2.031467  Q 2.798981 3.090541 2.798981 3.847023  Q 2.798981 4.603504 4.236295 4.704368  Q 9.128207 4.401775 11.347219 4.56568  Q 13.566231 4.729584 14.839642 6.343411  Q 16.11305 7.957237 15.583514 12.496125  Q 16.440861 8.915447 15.772635 6.961204  Q 15.104409 5.00696 13.541015 4.4396  Q 11.97762 3.872239 7.968269 4.073967  Q 3.958919 4.275695 3.50503 3.960495  Q 3.051141 3.645294 3.278085 2.825773  Q 3.50503 2.006251 3.50503 1.640619  Q 3.50503 1.274986 2.42074 0.972394  Q 1.941635 0.518505 1.361666 0.556329  Q 0.781697 0.594153 0.756481 0.921962  Z  M 1.487746 0.770665  Q 1.966851 0.896746 1.903811 0.972394  Q 1.840771 1.048042 1.500355 1.06065  Q 1.159938 1.073258 1.14733 0.93457  Q 1.134722 0.795881 1.487746 0.770665  Z "
     id="path2600" />
</svg>
