<?xml version="1.0" encoding="UTF-8" standalone="no"?>
<svg
   xmlns:dc="http://purl.org/dc/elements/1.1/"
   xmlns:cc="http://creativecommons.org/ns#"
   xmlns:rdf="http://www.w3.org/1999/02/22-rdf-syntax-ns#"
   xmlns:svg="http://www.w3.org/2000/svg"
   xmlns="http://www.w3.org/2000/svg"
   xmlns:sodipodi="http://sodipodi.sourceforge.net/DTD/sodipodi-0.dtd"
   xmlns:inkscape="http://www.inkscape.org/namespaces/inkscape"
   width="14.144798"
   height="17.977583"
   id="svg2791"
   sodipodi:version="0.32"
   inkscape:version="0.46"
   sodipodi:docname="A40C.svg"
   inkscape:output_extension="org.inkscape.output.svg.inkscape">
  <metadata
     id="metadata2798">
    <rdf:RDF>
      <cc:Work
         rdf:about="">
        <dc:format>image/svg+xml</dc:format>
        <dc:type
           rdf:resource="http://purl.org/dc/dcmitype/StillImage" />
      </cc:Work>
    </rdf:RDF>
  </metadata>
  <defs
     id="defs2796">
    <inkscape:perspective
       sodipodi:type="inkscape:persp3d"
       inkscape:vp_x="0 : 8.9887915 : 1"
       inkscape:vp_y="0 : 1000 : 0"
       inkscape:vp_z="14.144798 : 8.9887915 : 1"
       inkscape:persp3d-origin="7.0723991 : 5.9925276 : 1"
       id="perspective2800" />
  </defs>
  <sodipodi:namedview
     inkscape:window-height="708"
     inkscape:window-width="1024"
     inkscape:pageshadow="2"
     inkscape:pageopacity="0.0"
     guidetolerance="10.0"
     gridtolerance="10.0"
     objecttolerance="10.0"
     borderopacity="1.0"
     bordercolor="#666666"
     pagecolor="#ffffff"
     id="base"
     showgrid="false"
     inkscape:zoom="72.68682"
     inkscape:cx="11.87819"
     inkscape:cy="14.247709"
     inkscape:window-x="-4"
     inkscape:window-y="-4"
     inkscape:current-layer="svg2791" />
  <path
     style="fill:#000000; stroke:none"
     d="M 8.897534,1.277595 C 9.9926153,1.277595 10.524947,1.6350173 10.494528,2.349862 C 10.509738,1.954416 10.669437,1.756693 10.973626,1.756693 C 11.369072,1.756693 11.566795,2.0760917 11.566795,2.714889 C 11.566795,3.3536863 11.315839,3.673085 10.813927,3.673085 C 10.813927,4.0989497 10.954615,4.4867907 11.23599,4.836608 C 11.517364,5.186426 11.83296,5.5552557 12.182778,5.943097 C 12.532595,6.3309383 12.699899,7.741616 12.68469,10.17513 L 13.506001,10.17513 C 13.475582,7.6503593 13.384326,5.6046867 13.232231,4.038112 C 13.080136,2.4715373 12.898868,1.5493599 12.495817,1.1615186 C 12.092766,0.77367728 11.552623,0.45593774 10.655264,0.45593774 C 9.7579058,0.45593774 9.0344193,0.77568233 8.897534,1.277595 z M 8.851907,4.08374 C 8.791069,4.08374 8.7264287,4.1065543 8.657986,4.152183 C 8.5895433,4.197811 8.5172983,4.22823 8.441251,4.24344 C 8.5629263,4.349906 8.6047523,4.4829887 8.566729,4.642688 C 8.528705,4.8023873 8.6199617,4.8632253 8.840499,4.825202 C 9.0610363,4.787178 9.254957,4.7529567 9.422261,4.722538 C 9.589565,4.6921187 9.7492647,4.874632 9.90136,5.270078 L 10.791113,5.156007 C 10.395667,4.6388857 10.220758,4.0305073 10.266386,3.330872 C 10.905184,3.330872 11.22078,3.1293467 11.213175,2.726296 C 11.20557,2.3232453 11.125721,2.12172 10.973626,2.12172 C 10.821531,2.12172 10.753089,2.342257 10.768298,2.783331 L 10.243572,2.783331 C 10.228362,2.4183043 10.14471,2.1673483 9.992616,2.030463 C 9.8405213,1.8935777 9.5743557,1.7947163 9.194119,1.733879 C 8.8138823,1.673041 8.5553217,1.787112 8.418437,2.076092 L 8.464065,2.281419 C 8.251133,2.6616557 8.1028407,2.9430307 8.019188,3.125544 C 7.935536,3.308058 7.9811647,3.3765007 8.156074,3.330872 C 8.3309827,3.2852433 8.4374487,3.3156623 8.475472,3.422129 C 8.513496,3.528595 8.4944843,3.5970373 8.418437,3.627456 C 8.3423897,3.6578753 8.304366,3.726318 8.304366,3.832784 C 8.4412507,3.832784 8.6237643,3.8784123 8.851907,3.969669 C 8.9279543,3.924041 8.958373,3.95446 8.943163,4.060926 C 8.9279537,4.167392 8.897535,4.1749967 8.851907,4.08374 z M 8.486879,2.076092 C 8.5325077,1.9392067 8.6655903,1.8669617 8.886127,1.859357 C 9.1066643,1.8517523 9.2625617,1.8859737 9.353819,1.962021 C 9.4450757,2.0380683 9.6275893,2.1141153 9.90136,2.190162 L 9.90136,2.327048 C 9.6427987,2.26621 9.45268,2.2129767 9.331004,2.167348 C 9.2093287,2.12172 9.076246,2.1027083 8.931756,2.110313 C 8.787266,2.1179177 8.6541833,2.174953 8.532508,2.281419 L 8.486879,2.076092 z M 9.787288,2.486747 L 9.787288,2.692075 L 9.331004,2.555189 C 9.1724902,2.7126913 8.9236012,2.788222 8.76065,2.737703 C 8.6307133,2.6974193 8.524903,2.646446 8.418437,2.646446 C 8.5553217,2.3574667 8.7112183,2.2281863 8.886127,2.258605 C 9.0610363,2.2890237 9.2169337,2.3498613 9.353819,2.441118 L 9.787288,2.486747 z M 11.886194,17.293158 L 10.950812,16.859688 C 11.772123,15.749397 12.144754,14.410965 12.068707,12.84439 C 12.099126,10.86716 12.106731,9.2929807 12.091521,8.121852 C 12.076312,6.950724 11.810146,6.22067 11.293025,5.93169 C 10.775904,5.64271 10.205549,5.9849227 9.581961,6.958328 C 8.9887917,8.7530447 8.638974,11.232187 8.532508,14.395755 L 7.414612,14.418569 C 6.4868347,11.939427 5.8100137,10.445097 5.384149,9.93558 C 4.9582843,9.4260633 4.6046643,9.213131 4.323289,9.296783 C 4.0419143,9.380435 3.901227,9.7644737 3.901227,10.448899 C 3.901227,11.118116 4.1293687,12.178976 4.585652,13.631479 C 5.041936,15.083983 4.9430747,16.304543 4.289068,17.293158 L 11.886194,17.293158 z M 3.285244,8.076223 C 3.10273,8.426041 3.186382,8.6617877 3.5362,8.783463 L 4.289068,8.715021 C 4.51721,8.3956223 4.4715817,8.1826897 4.152183,8.076223 L 3.285244,8.076223 z M 7.779639,13.095345 C 7.9469437,10.798717 8.148469,9.201724 8.384215,8.304366 C 8.6199617,7.4070073 8.8747203,6.676953 9.148491,6.114203 C 9.422261,5.551453 9.45268,5.2244497 9.239748,5.133193 L 9.03442,5.156007 C 8.3804133,6.296717 7.9165247,7.0723997 7.642754,7.483055 C 7.4906593,7.6351497 7.338565,7.7264063 7.186471,7.756825 C 6.9887477,7.8024537 6.8670717,7.711197 6.821443,7.483055 C 6.775815,7.254913 6.8746767,7.1180277 7.118028,7.072399 L 7.391798,6.958328 L 8.281551,5.041936 C 8.1446657,4.8594227 8.0990377,4.72634 8.144667,4.642688 C 8.190295,4.559036 8.1484687,4.4943957 8.019188,4.448767 C 7.889908,4.403139 7.9013153,4.2738587 8.05341,4.060926 C 7.8100587,3.95446 7.7568253,3.8555987 7.89371,3.764342 C 7.954548,3.749132 7.9773623,3.6958987 7.962153,3.604642 C 7.6579637,3.604642 7.505869,3.5285947 7.505869,3.3765 C 7.6579637,2.9658447 7.8480817,2.5856083 8.076223,2.235791 L 8.05341,2.007649 C 8.220714,0.66921633 9.087653,0 10.654227,0 C 12.220802,0 13.175195,0.64259967 13.517408,1.927799 C 13.859621,3.2129983 14.068751,6.1902503 14.144798,10.859555 L 12.730319,10.859555 L 12.730319,12.798761 C 12.791157,14.24366 12.524991,15.51365 11.931822,16.608732 L 13.916656,17.977583 L 2.943031,17.977583 C 3.9316457,16.669569 4.2016133,15.209461 3.752934,13.597259 C 3.3042553,11.985056 3.0571017,10.798717 3.011473,10.038244 C 2.9962637,9.703636 3.041892,9.4678893 3.148358,9.331004 C 2.6768647,8.7986733 2.5475843,8.3956227 2.760517,8.121852 C 2.2281863,7.7416153 2.235791,7.551497 2.783331,7.551497 L 3.969669,7.551497 C 4.7453517,7.551497 5.1484027,7.9697573 5.178822,8.806278 C 5.908876,9.1713053 6.775815,10.600994 7.779639,13.095345 z M 3.125544,7.597126 L 2.030463,4.768166 C 1.9544157,4.479186 1.802321,4.281463 1.574179,4.174997 C 0.82891567,3.9924837 0.34981767,3.612247 0.136885,3.034287 C -0.197723,2.1521383 0.076047333,1.54376 0.958196,1.209152 C 1.8251353,0.88975333 2.425909,1.1787333 2.760517,2.076092 C 2.9430303,2.182558 3.0913227,2.2738147 3.205394,2.349862 C 3.3194647,2.4259093 3.3384763,2.5323757 3.262429,2.669261 C 3.1863817,2.8061457 3.0266823,2.8061457 2.783331,2.669261 C 2.570399,2.5323757 2.3460597,2.296629 2.110313,1.962021 C 1.8745663,1.6274123 1.5513653,1.5361553 1.14071,1.68825 C 0.59316933,1.9011827 0.425865,2.2966287 0.638797,2.874588 C 0.79089167,3.2852433 1.209152,3.5590137 1.893578,3.695899 C 2.1521387,3.7415277 2.3802807,4.0305073 2.578004,4.562838 L 3.741527,7.597126 L 3.125544,7.597126 z"
     id="path2793"
     sodipodi:nodetypes="cssscssccsssccssssscccssccssccssssccsccssccsscccccscscccccsscccssssccccccccsscccsscccsscsccccssccccccsscccccccccsscsssssssccc" />
</svg>
