<?xml version='1.0' encoding='UTF-8'?>
<svg xmlns:dc="http://purl.org/dc/elements/1.1/" xmlns:cc="http://creativecommons.org/ns#" xmlns:rdf="http://www.w3.org/1999/02/22-rdf-syntax-ns#" xmlns:svg="http://www.w3.org/2000/svg" xmlns="http://www.w3.org/2000/svg" xmlns:sodipodi="http://sodipodi.sourceforge.net/DTD/sodipodi-0.dtd" xmlns:inkscape="http://www.inkscape.org/namespaces/inkscape" width="11.93" height="17.98" id="svg2" sodipodi:version="0.32" inkscape:version="0.46" sodipodi:docname="US22S3vara.svg" inkscape:output_extension="org.inkscape.output.svg.inkscape">
  <defs id="defs7">
    <inkscape:perspective sodipodi:type="inkscape:persp3d" inkscape:vp_x="0 : 8.9899998 : 1" inkscape:vp_y="0 : 1000 : 0" inkscape:vp_z="11.93 : 8.9899998 : 1" inkscape:persp3d-origin="5.9650002 : 5.9933332 : 1" id="perspective11"/>
  </defs>
  <path style="fill:#000000; stroke:none" d=" M 10.78 0.48  Q 8.87 6.36 8.04 8.29  Q 7.22 10.23 1.03 10.48  Q 1.55 11.91 1.55 13.51  L 4.16 13.51  Q 4.74 13.51 4.95 13.9  Q 5.16 14.28 5.16 15.23  Q 5.29 14.06 6.34 14.14  Q 7.39 14.23 7.69 15.51  Q 7.99 16.79 7.9 17.03  Q 7.8 17.27 8.89 17.48  Q 7.29 12.46 11.26 0.48  L 10.78 0.48  Z  M 0 9.85  Q 5.19 9.64 6.57 8.71  Q 4.23 6.45 2.46 4.51  Q 0.69 2.58 0.69 1.79  Q 0.69 1 1.13 0.5  Q 1.56 0 2.15 0  Q 2.73 0 3.09 0.17  Q 3.44 0.34 3.6 0.82  Q 3.76 1.29 3.59 1.83  Q 3.42 2.37 2.63 2.37  Q 1.82 2.37 1.82 1.65  Q 1.82 0.91 2.49 0.91  Q 2.87 1.05 2.49 1.24  Q 2.29 1.24 2.29 1.58  Q 2.29 1.91 2.63 1.91  Q 2.97 1.91 3.1 1.59  Q 3.23 1.27 3.1 0.92  Q 2.97 0.57 2.42 0.57  Q 1.87 0.57 1.58 0.84  Q 1.29 1.12 1.29 1.68  Q 1.29 2.25 2.82 3.99  Q 4.35 5.72 7.05 8.35  Q 8.27 6.43 10.35 0.05  L 11.93 0.05  Q 7.96 12.43 9.54 17.81  L 8.89 17.98  Q 7.72 17.79 7.46 17.51  Q 7.2 17.24 7.31 17.03  Q 7.42 16.83 7.19 15.78  Q 6.96 14.73 6.31 14.66  Q 5.65 14.59 5.65 15.9  Q 5.17 15.86 4.69 15.73  Q 4.59 14.08 4.16 14.08  L 0.91 14.08  Q 0.88 11.58 0 9.85  Z " id="path4"/>
</svg>
