<?xml version="1.0" encoding="UTF-8" standalone="no"?>
<svg
   xmlns:dc="http://purl.org/dc/elements/1.1/"
   xmlns:cc="http://web.resource.org/cc/"
   xmlns:rdf="http://www.w3.org/1999/02/22-rdf-syntax-ns#"
   xmlns:svg="http://www.w3.org/2000/svg"
   xmlns="http://www.w3.org/2000/svg"
   xmlns:sodipodi="http://sodipodi.sourceforge.net/DTD/sodipodi-0.dtd"
   xmlns:inkscape="http://www.inkscape.org/namespaces/inkscape"
   width="18.706461"
   height="18.0625"
   id="svg2237"
   sodipodi:version="0.32"
   inkscape:version="0.45"
   sodipodi:docname="D10A.svg"
   inkscape:output_extension="org.inkscape.output.svg.inkscape"
   sodipodi:docbase="C:\Program Files\JSesh\fontsST"
   version="1.0"
   sodipodi:modified="true">
  <metadata
     id="metadata2244">
    <rdf:RDF>
      <cc:Work
         rdf:about="">
        <dc:format>image/svg+xml</dc:format>
        <dc:type
           rdf:resource="http://purl.org/dc/dcmitype/StillImage" />
      </cc:Work>
    </rdf:RDF>
  </metadata>
  <defs
     id="defs2242" />
  <sodipodi:namedview
     inkscape:window-height="708"
     inkscape:window-width="1024"
     inkscape:pageshadow="2"
     inkscape:pageopacity="0.0"
     guidetolerance="10.0"
     gridtolerance="10.0"
     objecttolerance="10.0"
     borderopacity="1.0"
     bordercolor="#666666"
     pagecolor="#ffffff"
     id="base"
     inkscape:zoom="28.567474"
     inkscape:cx="9.2907306"
     inkscape:cy="9.0201397"
     inkscape:window-x="-4"
     inkscape:window-y="-4"
     inkscape:current-layer="svg2237" />
  <path
     style="fill:#000000;stroke:none"
     d="M 4.34375,0 C 3.1013173,0 2.03751,0.22284332 1.15625,0.65625 C 0.57200063,1.0067995 0.23669473,1.3311571 0.125,1.625 C 0.089395422,1.6588795 0.025254297,1.6934957 0,1.71875 C 0.021302636,1.7498571 0.042071912,1.7810474 0.0625,1.8125 C 0.071380451,2.0167537 0.21266255,2.2700757 0.40625,2.4375 C 0.64171512,3.5457849 0.91218508,5.3541667 0.0625,6.8125 L 0.0625,8.375 L 1.65625,8.375 C 2.2052313,8.375 2.729912,8.5307856 3.25,8.8125 C 3.7700887,9.0942153 4.03125,9.5350344 4.03125,10.15625 C 4.03125,10.286272 3.0484067,10.18375 2.615,10.18375 C 4.037702,12.339763 4.0153745,14.761279 3.96875,17.29875 L 5.1875,17.29875 L 5.1875,9.90625 C 10.157231,15.338281 14.129781,18.0625 17.0625,18.0625 C 18.13157,17.961372 18.730461,17.731904 18.705724,15.129144 C 17.955659,13.503415 18.145019,13.906198 18.692698,12.096513 L 18.69625,3.875 C 16.904835,3.875 14.409002,3.6538594 11.28125,2.1875 C 8.153498,0.72114067 5.8462269,0 4.34375,0 z M 4.34375,1.375 C 5.8462267,1.375 8.1534977,2.1129433 11.28125,3.59375 C 14.125978,4.9405608 16.385706,5.2059766 18.125,5.25 L 18.15625,6.96875 L 13.65625,7 C 10.781319,5.1652453 8.4429528,4.25 6.59375,4.25 C 4.9756987,4.25 3.7944247,4.6716602 3.09375,5.53125 C 2.393076,6.39084 1.913938,6.8124999 1.625,6.8125 L 1.125,6.8125 C 1.6635348,5.4823442 1.8264394,3.7382163 1.34375,2.34375 C 2.3452522,1.8195405 3.2771467,1.375 4.34375,1.375 z M 12.53125,7.4375 C 10.205301,8.3476547 8.2406961,8.8125003 6.59375,8.8125 C 6.0881087,8.8125 5.5274658,8.7477989 4.90625,8.625 C 4.285034,8.502202 3.465586,8.1020571 2.46875,7.4375 C 2.728794,7.4375 3.1240714,7.0756739 3.6875,6.375 C 6.239545,3.8561129 9.9078444,6.0030417 12.53125,7.4375 z M 13.65625,7.875 L 18.1875,8.125 L 18.21875,12.0475 C 17.532894,13.857119 17.564946,13.727517 18.21875,15.21875 L 18.25,15.34375 C 18.068534,15.203587 17.837837,15.12323 17.53125,15.09375 C 16.736671,15.09375 16.34375,15.472224 16.34375,16.28125 C 16.34375,16.786891 16.585752,17.0625 17.0625,17.0625 C 17.29365,17.0625 17.399026,16.940321 17.40625,16.6875 C 17.413473,16.43468 17.308097,16.28125 17.0625,16.28125 C 17.0625,15.977865 17.196616,15.84375 17.5,15.84375 C 17.760044,15.84375 17.90625,15.977865 17.90625,16.28125 C 17.90625,16.888019 17.611482,17.21875 17.0625,17.21875 C 14.548742,17.21875 11.074643,14.736533 6.625,9.78125 C 8.2863927,9.78125 10.622403,9.1318801 13.65625,7.875 z "
     id="path2239"
     sodipodi:nodetypes="ccsssccccssccccccccsccscccsscccccsscccccccccssscssscc" />
</svg>
