<?xml version="1.0" encoding="UTF-8" standalone="no"?>
<svg
   xmlns:dc="http://purl.org/dc/elements/1.1/"
   xmlns:cc="http://creativecommons.org/ns#"
   xmlns:rdf="http://www.w3.org/1999/02/22-rdf-syntax-ns#"
   xmlns:svg="http://www.w3.org/2000/svg"
   xmlns="http://www.w3.org/2000/svg"
   xmlns:sodipodi="http://sodipodi.sourceforge.net/DTD/sodipodi-0.dtd"
   xmlns:inkscape="http://www.inkscape.org/namespaces/inkscape"
   width="22.982155"
   height="17.982307"
   id="svg2461"
   sodipodi:version="0.32"
   inkscape:version="0.46"
   sodipodi:docname="E16B.svg"
   inkscape:output_extension="org.inkscape.output.svg.inkscape"
   version="1.0">
  <metadata
     id="metadata2468">
    <rdf:RDF>
      <cc:Work
         rdf:about="">
        <dc:format>image/svg+xml</dc:format>
        <dc:type
           rdf:resource="http://purl.org/dc/dcmitype/StillImage" />
      </cc:Work>
    </rdf:RDF>
  </metadata>
  <defs
     id="defs2466">
    <inkscape:perspective
       sodipodi:type="inkscape:persp3d"
       inkscape:vp_x="0 : 8.9916086 : 1"
       inkscape:vp_y="0 : 1000 : 0"
       inkscape:vp_z="20.592178 : 8.9916086 : 1"
       inkscape:persp3d-origin="10.296089 : 5.9944057 : 1"
       id="perspective2470" />
  </defs>
  <sodipodi:namedview
     inkscape:window-height="712"
     inkscape:window-width="1024"
     inkscape:pageshadow="2"
     inkscape:pageopacity="0.0"
     guidetolerance="10.0"
     gridtolerance="10.0"
     objecttolerance="10.0"
     borderopacity="1.0"
     bordercolor="#666666"
     pagecolor="#ffffff"
     id="base"
     showgrid="false"
     inkscape:zoom="25.69062"
     inkscape:cx="10.296089"
     inkscape:cy="8.9916086"
     inkscape:window-x="-4"
     inkscape:window-y="-4"
     inkscape:current-layer="svg2461" />
  <path
     style="fill:#000000;stroke:none"
     d="M 13.28125 0 C 13.132766 -0.047244834 12.971986 0.029770335 12.84375 0.21875 L 10.28125 4.71875 C 10.052325 4.4009109 9.8118036 4.0882291 9.59375 3.71875 C 9.6477447 3.381286 9.6874999 3.0952293 9.6875 2.90625 C 9.6740013 2.3258127 9.39719 1.6359106 8.84375 0.8125 L 8.53125 0.84375 L 8.53125 1.75 C 8.53125 2.0739647 8.4787354 2.2762574 8.34375 2.34375 C 7.5473367 2.34375 7.0682327 2.4317674 6.90625 2.59375 C 6.7442673 2.7557327 6.5089687 2.8810092 6.21875 2.96875 C 5.928532 3.05649 5.5527008 3.1487606 5.09375 3.25 C 4.6348 3.3512387 4.4722633 3.4985199 4.59375 3.6875 C 4.6072487 3.7819893 4.7172707 3.8962648 4.90625 4.03125 C 4.8657547 4.4362067 5.3797381 4.5634362 6.125 4.4375 C 6.9637538 4.2957654 6.9574615 4.5600547 7.34375 4.6875 C 7.6736968 4.7963569 7.9439488 4.4146092 8.09375 5.28125 C 8.1584644 5.6556402 8.2890159 5.9445258 8.4375 6.1875 C 8.5859833 6.430474 8.3836915 7.0856129 7.84375 8.125 C 7.3173073 8.3544752 6.7746866 8.4289945 6.1875 8.375 C 5.7795931 8.3374919 5.7339618 8.3421737 5.53125 8.34375 L 5.46875 8.28125 C 4.5432738 6.7829287 3.8047526 5.5263523 3.5 4.84375 C 3.429538 4.3210353 3.4390356 3.8320331 3.53125 3.375 C 3.6152222 3.3750216 3.6629073 3.3066283 3.65625 3.1875 C 3.649593 3.0683727 3.474802 3.0240446 3.125 3.03125 C 2.4769246 2.2263767 1.9331086 1.2153364 1.46875 0.03125 L 0 0.8125 C 0.765832 1.8386374 1.3455361 2.8159976 1.6875 3.78125 C 1.4900117 4.0607826 1.4318319 4.2419721 1.53125 4.3125 C 1.6306686 4.3830287 1.7041066 4.3805611 1.75 4.3125 C 2.1957997 4.4876551 2.617572 4.7508542 3.03125 5.09375 C 3.4681959 5.7243891 4.1007025 6.8886274 4.90625 8.5 C 4.7156027 8.6767414 4.5836645 8.9021479 4.53125 9.1875 L 2.53125 9.1875 C 2.288276 9.3899778 2.3145333 9.5610198 2.625 9.75 C 3.0434547 10.235948 3.3422706 10.706546 3.53125 11.125 C 3.0722993 11.125 2.84375 11.235021 2.84375 11.4375 C 2.84375 11.653476 3.1340593 11.75 3.6875 11.75 L 2.625 17.96875 L 9.4375 17.96875 L 9.4375 14.59375 L 11.75 14.59375 L 11.75 17.96875 L 18.5 17.96875 L 17.5625 11.71875 C 18.075445 11.71875 18.330251 11.604475 18.34375 11.375 C 18.34375 11.199519 18.115201 11.125 17.65625 11.125 C 17.615755 10.706546 17.918823 10.235948 18.59375 9.75 C 18.705708 9.684691 18.796278 9.6294214 18.84375 9.5625 C 20.431715 14.71053 21.682613 17.188585 22.53125 17 C 23.246674 16.865015 23.110394 15.442959 22.125 12.75 C 21.139607 10.057042 20.321931 8.2261479 19.6875 7.28125 C 19.053069 6.336352 18.448688 5.8242418 17.875 5.75 C 17.301312 5.675758 16.531898 5.8255353 15.59375 6.15625 C 14.655601 6.486964 13.836169 6.6562501 13.09375 6.65625 C 12.337831 6.65625 11.664941 6.3481888 11.125 5.78125 C 10.933808 5.5804979 10.746922 5.35791 10.5625 5.125 L 13.25 0.59375 L 15.15625 5.78125 L 15.4375 5.625 L 15.21875 5.09375 L 15.625 4.9375 L 15.875 5.4375 L 16.1875 5.28125 L 15.90625 4.75 L 16.28125 4.59375 L 16.625 5.09375 L 16.9375 4.9375 L 13.75 0.5 C 13.581268 0.21653065 13.429734 0.047244834 13.28125 0 z M 1.3125 0.40625 C 1.4848269 0.80013945 1.7076409 1.2206537 1.96875 1.6875 C 2.2298591 2.154346 2.4995705 2.6414775 2.8125 3.09375 C 2.6805438 3.0937164 2.5212124 3.1406509 2.3125 3.25 C 2.0991494 3.3617793 1.97373 3.4579772 1.90625 3.5625 C 1.6860815 3.0616281 1.4196783 2.5906311 1.15625 2.125 C 0.892822 1.6593688 0.6481476 1.2324399 0.40625 0.875 L 1.3125 0.40625 z M 8.78125 1.375 L 8.84375 1.375 C 9.1812133 2.0094313 9.3437499 2.4792894 9.34375 2.84375 L 9.34375 2.96875 C 9.34375 3.1577293 9.2514794 3.4040306 9.0625 3.6875 C 9.3324707 4.24094 9.6092826 4.7242965 9.90625 5.15625 C 10.203218 5.5882033 10.616308 6.0410501 11.15625 6.5 C 11.696191 6.95895 12.329326 7.1875001 13.03125 7.1875 C 13.746673 7.1875 14.590605 7.0427149 15.5625 6.71875 C 16.534395 6.3947853 17.257303 6.2517565 17.75 6.3125 C 18.242697 6.3732433 18.693048 6.7668259 19.125 7.46875 C 19.556953 8.170674 19.998797 9.0713741 20.4375 10.21875 C 20.876203 11.366125 21.333303 12.570634 21.8125 13.8125 C 22.291699 15.054365 22.487241 15.964311 22.40625 16.53125 C 21.717824 15.599852 20.693603 13.138318 19.34375 9.15625 C 19.34375 8.5488158 19.203218 8.1662347 18.90625 8.03125 L 18.90625 8.4375 C 19.149223 8.6804745 19.122966 8.9132757 18.8125 9.15625 L 13.78125 9.15625 C 14.010725 8.9267752 14.313794 8.8345039 14.71875 8.875 C 15.123706 8.9154958 15.506287 8.9374996 15.84375 8.9375 C 16.181213 8.9375005 16.60281 8.9197486 17.15625 8.90625 L 17.15625 8.875 C 16.589312 8.7940085 16.231232 8.6094676 16.0625 8.3125 C 15.893769 8.0155325 15.992788 7.6109473 16.34375 7.125 C 14.507949 8.0159033 13.200167 8.4467454 12.4375 8.40625 C 11.674832 8.3657552 11.004438 8.3149971 10.4375 8.28125 C 9.8705613 8.2475038 9.4049559 8.548815 9 9.15625 L 5.03125 9.15625 C 5.0177513 8.8727812 5.349574 8.7762571 6.03125 8.84375 C 6.7129267 8.9112432 7.4315822 8.8452297 8.1875 8.65625 C 8.335984 8.4537732 8.5382765 8.0229301 8.78125 7.375 C 9.024224 6.72707 9.0572305 6.2742232 8.875 6.03125 C 8.69277 5.788276 8.5809913 5.5004627 8.5 5.15625 C 8.4190087 4.8120373 8.335984 4.5437319 8.1875 4.375 C 8.0390166 4.2062687 7.6584701 4.3934914 7.375 4.3125 C 7.0915311 4.2315089 6.7679373 3.9545122 6.1875 4.0625 C 5.6070627 4.1704887 5.3149968 4.1789939 5.28125 4.125 C 5.247504 4.0710053 5.2737606 4.0269967 5.375 4 C 5.4762387 3.9730027 5.9925107 3.9375 6.09375 3.9375 C 6.1949887 3.9375001 6.261002 3.9179919 6.28125 3.84375 C 6.301498 3.7695081 6.2354847 3.740754 6.09375 3.78125 C 5.9520153 3.8217454 5.3587287 3.8927513 5.15625 3.90625 C 5.0617607 3.7982613 5.0177513 3.6882395 5.03125 3.59375 C 5.58469 3.445266 6.0375367 3.3132401 6.375 3.21875 C 6.7124633 3.1242607 6.9300108 3.0277372 7.03125 2.90625 C 7.1324887 2.7847633 7.556582 2.7187499 8.3125 2.71875 C 8.6229667 2.71875 8.7947484 2.3844314 8.78125 1.75 C 9.132212 2.5869093 9.1144598 3.0880173 8.75 3.25 L 8.875 3.4375 C 9.0909767 3.2080247 9.1875 3.0277366 9.1875 2.90625 C 9.1875 2.501294 9.0647191 2.0094314 8.78125 1.375 z M 14.46875 2.15625 L 16.0625 4.34375 L 15.75 4.46875 L 14.46875 2.15625 z M 14.21875 2.28125 L 15.4375 4.59375 L 15.15625 4.75 L 14.21875 2.28125 z M 7.46875 3.03125 C 7.151534 2.9907547 6.9999998 3.0610206 7 3.25 C 7.040496 3.398484 7.2165315 3.4534954 7.5 3.40625 C 7.78347 3.3590053 7.9722632 3.28199 8.09375 3.1875 C 7.99926 3.1200073 7.7859652 3.0717454 7.46875 3.03125 z M 3.21875 3.375 L 3.21875 3.59375 C 3.0049126 3.6617689 2.8904879 3.7721862 2.875 3.9375 C 2.7426993 3.7867354 2.6399154 3.6972437 2.5625 3.6875 C 2.5286021 3.7555633 2.5402962 3.9016755 2.59375 4.09375 C 2.442268 4.0159155 2.2695093 4.0514005 2.09375 4.1875 L 1.9375 4.0625 C 2.0975691 3.8340121 2.2627578 3.6454628 2.46875 3.53125 C 2.6801826 3.4267645 2.938204 3.3773608 3.21875 3.375 z M 3.21875 3.78125 C 3.2991472 4.4182313 3.2941752 4.7566102 3.1875 4.8125 C 3.0808247 4.8683897 2.7617363 4.6922431 2.25 4.28125 C 2.3829 4.1864686 2.5175796 4.1803304 2.625 4.28125 C 2.7324206 4.3821694 2.8200303 4.4477081 2.90625 4.5 C 2.9924699 4.5522916 3.0485858 4.6010401 3.0625 4.59375 C 3.0764141 4.5864601 3.0941659 4.5347462 3.09375 4.4375 C 3.093334 4.340254 3.0598237 4.204729 3.03125 4.0625 C 3.0026766 3.9202709 3.0640906 3.8371273 3.21875 3.78125 z M 2.75 4 C 2.8181398 4.0146042 2.8490749 4.0723688 2.875 4.15625 C 2.9009253 4.2401314 2.9445857 4.3308784 2.96875 4.40625 C 2.9121194 4.3478883 2.8396416 4.2856215 2.78125 4.21875 C 2.7228586 4.1518787 2.7207406 4.0656339 2.75 4 z M 15.65625 7.875 C 15.602255 8.1584693 15.62426 8.3650145 15.71875 8.5 C 15.44878 8.6079892 15.000186 8.6232436 14.40625 8.5625 C 13.812315 8.5017572 13.447486 8.6845412 13.3125 9.0625 L 13.3125 9.1875 L 9.59375 9.1875 C 9.9220464 8.8719016 10.223955 8.7239585 10.5 8.75 C 10.857711 8.7837465 11.314811 8.8235031 11.875 8.84375 C 12.435189 8.8639992 12.976053 8.8022376 13.46875 8.6875 C 13.961447 8.5727632 14.684355 8.3069534 15.65625 7.875 z M 3.5625 9.75 L 17.5625 9.75 C 17.225037 10.235948 17.00074 10.706546 16.90625 11.125 L 4.28125 11.125 C 4.2002587 10.706546 3.967456 10.235948 3.5625 9.75 z M 16.8125 11.71875 L 17.71875 17.28125 L 12.5625 17.28125 L 12.5625 13.875 L 8.65625 13.875 L 8.65625 17.28125 L 3.46875 17.28125 L 4.40625 11.75 L 16.8125 11.71875 z "
     id="path2463" />
</svg>
