<?xml version="1.0" encoding="UTF-8" standalone="no"?>
<!DOCTYPE svg PUBLIC "-//W3C//DTD SVG 20010904//EN"
"http://www.w3.org/TR/2001/REC-SVG-20010904/DTD/svg10.dtd">
<svg
   width="9.889372"
   height="17.976807"
   xmlns="http://www.w3.org/2000/svg"
   xmlns:sodipodi="http://sodipodi.sourceforge.net/DTD/sodipodi-0.dtd"
   xmlns:inkscape="http://www.inkscape.org/namespaces/inkscape"
   xmlns:xlink="http://www.w3.org/1999/xlink"
   id="svg1091"
   sodipodi:version="0.32"
   inkscape:version="0.40"
   xmlns:rdf="http://www.w3.org/1999/02/22-rdf-syntax-ns#"
   xmlns:cc="http://web.resource.org/cc/"
   xmlns:dc="http://purl.org/dc/elements/1.1/"
   sodipodi:docname="L1B.svg"
   sodipodi:docbase="C:\Program Files\JSesh\fonts">
  <defs
     id="defs1095" />
  <metadata
     id="metadata1094">
    <rdf:RDF
       id="RDF1096">
      <cc:Work
         rdf:about=""
         id="Work1097">
        <dc:format
           id="format1098">image/svg+xml</dc:format>
        <dc:type
           id="type1100"
           rdf:resource="http://purl.org/dc/dcmitype/StillImage" />
      </cc:Work>
    </rdf:RDF>
  </metadata>
  <sodipodi:namedview
     id="base"
     pagecolor="#ffffff"
     bordercolor="#666666"
     borderopacity="1.0"
     inkscape:pageopacity="0.0"
     inkscape:pageshadow="2"
     inkscape:zoom="25.171323"
     inkscape:cx="3.9557493"
     inkscape:cy="7.1907227"
     inkscape:window-width="1024"
     inkscape:window-height="708"
     inkscape:window-x="-4"
     inkscape:window-y="-4"
     inkscape:current-layer="svg1091" />
  <path
     style="fill:#000000;stroke:none"
     d="M 5.6210579,2.3847296 C 6.0915495,2.3847296 6.5348279,2.4689013 6.7018985,2.6167808 C 6.9663670,2.7511253 7.0826887,3.6242795 7.0649694,3.8827851 C 7.0844165,4.0159104 6.2199634,4.0855573 5.4087299,4.0855573 C 4.6977135,4.0855573 4.0275755,4.0320565 4.0292731,3.9209003 C 4.0411849,3.6807296 4.0715533,3.5943189 4.2430106,2.7798176 C 4.4583617,2.5048021 5.0591194,2.3847296 5.6210579,2.3847296 z M 8.9921470,7.0221963 C 8.9926490,7.0221963 8.9923263,7.0230272 8.9913605,7.0245088 L 8.9913605,7.0245088 L 8.9913302,7.0224960 C 8.9917045,7.0222933 8.9919745,7.0221963 8.9921470,7.0221963 z M 6.0039816,4.6463723 C 6.4644056,4.6463723 7.0376005,4.7960021 7.4904142,4.8127456 C 7.8865304,5.0931616 7.9076627,6.7252597 7.6882420,7.0284843 C 7.4985489,7.2712043 6.0130541,7.3104448 5.5261475,7.3490667 C 5.5130188,7.3493408 5.4989254,7.3494773 5.4839311,7.3494773 C 4.9039259,7.3494773 2.9771303,7.1471936 3.4839591,6.9436629 L 3.4227852,5.0021835 C 3.8992534,4.7354987 4.0069049,4.7217995 4.5302664,4.6643477 C 4.8115007,4.6539296 5.0352363,4.6522539 5.2385679,4.6522539 C 5.3348969,4.6522539 5.4266487,4.6526315 5.5177640,4.6526315 C 5.6622547,4.6526315 5.8051486,4.6516853 5.9621752,4.6467979 C 5.9760009,4.6465109 5.9899397,4.6463723 6.0039816,4.6463723 z M 7.6297596,7.9726016 C 7.8934057,7.9726016 8.1561005,7.9886667 8.4183246,8.0514891 C 8.6686437,8.5264192 8.5625150,10.949434 8.5829369,11.660659 C 8.3944091,12.210123 7.8725087,12.550369 7.3926712,12.827492 C 7.2501313,12.897366 7.0502900,12.960885 6.8452810,12.960885 C 6.4800946,12.960885 6.0985166,12.759345 5.9952429,12.033211 C 5.9785130,11.049506 5.9425937,10.107966 5.9937191,9.1264896 C 5.9673698,8.4107019 5.8486906,8.0457184 6.6585246,7.9885792 C 6.7050739,7.9897205 6.7515762,7.9902101 6.7980358,7.9902101 C 7.0766863,7.9902101 7.3537434,7.9726016 7.6297596,7.9726016 z M 3.6337339,8.0124427 C 3.9097501,8.0124427 4.1868072,8.0300523 4.4654577,8.0300523 C 4.5119162,8.0300523 4.5584185,8.0295627 4.6049689,8.0284192 C 5.4148018,8.0855616 5.3407357,8.3656011 5.3143876,9.0813877 C 5.3655118,10.062864 5.3295925,11.004404 5.3128637,11.988109 C 5.2032077,12.759115 4.7591573,12.977971 4.3615487,12.977971 C 4.1744696,12.977971 3.9976710,12.929519 3.8708212,12.867335 C 3.3909848,12.590211 2.8690833,12.249963 2.6805566,11.700500 C 2.7009774,10.989275 2.5948487,8.5662624 2.8451666,8.0913312 C 3.1073931,8.0285067 3.3700879,8.0124427 3.6337339,8.0124427 z M 8.9508539,-1.1421728 L 8.2174121,-1.0217899 L 8.1162483,-0.58841387 C 8.1162483,-0.58841387 9.7872837,1.1921803 9.7367018,1.3847936 C 9.7114091,1.7459403 9.5061447,2.7953835 9.5061447,2.7953835 C 9.3712610,3.2688875 9.2809894,3.2099157 9.1461035,3.4667307 C 8.9269103,3.6111893 8.8669175,3.7913739 8.6477254,3.9358347 L 7.6646357,3.3188288 L 7.5991200,3.2095851 L 7.5604970,2.0312299 C 7.4006154,1.7734368 7.1355766,1.5356661 6.7022862,1.4380437 C 6.4173980,1.5862432 6.3217917,1.8745909 6.3523753,2.2430251 L 6.1904959,0.48566080 L 6.0170520,2.1727232 L 5.8425548,0.45161067 L 5.5957798,2.1245696 L 5.4187437,0.42753493 L 5.2286875,2.1245696 L 4.9635008,0.46158400 L 4.7969400,2.0365259 C 4.8261353,1.7497248 4.6450149,1.5229888 4.4428643,1.4163797 C 4.0581188,1.5424491 3.7154361,1.7285813 3.5410051,2.2150336 L 3.5410051,3.4188576 L 2.4267372,4.0898080 C 2.2075462,3.9453493 2.2122758,3.8143797 1.9930860,3.6699200 C 1.8581978,3.4131051 1.7530563,3.2455637 1.6181693,2.7720597 C 1.6181693,2.7720597 1.4853272,1.7675445 1.4600357,1.4063979 C 1.4094537,1.2137877 2.9558557,-0.56680747 2.9558557,-0.56680747 L 2.8546919,-1.0001835 L 2.1212478,-1.1205664 L 2.0706659,-0.44642453 L 1.4383868,-0.73534293 L 1.4383868,-0.73534293 L 1.5901348,-0.037124266 L 1.5901348,-0.037124266 L 1.0084377,-0.22973653 L 1.0084377,-0.22973653 L 1.1348942,0.46848000 L 0.57848741,0.25179093 L 0.83139927,0.92593387 L 0.67965126,1.0703925 C 0.56162640,1.0543392 0.26656425,0.86975573 0.14853939,0.85370347 L 0.14853939,0.85370347 C 0.18225918,0.95000960 0.36772697,1.3352331 0.40144900,1.4315392 C 0.58691904,1.7365067 1.0877622,2.9052277 1.1383453,3.9726155 C 1.4624380,4.2775861 1.7106595,4.5584747 2.0347556,4.8634432 L 2.0045765,6.5624651 L 1.4747622,6.5716683 L 1.2013522,6.7919019 C -0.36260773,7.5785067 -0.038949756,10.520398 0.20257128,11.027014 C 0.21943229,10.802303 0.82206565,10.927126 0.83892443,10.702411 C 0.96035443,10.132332 0.40967446,8.1266549 1.8738555,7.1656299 C 1.9177279,7.1656299 1.9626772,7.1694027 2.0087189,7.1772064 L 1.9729509,11.633495 C 1.9244206,11.629595 1.8766477,11.627497 1.8296345,11.627497 C 1.5265822,11.627497 1.2550535,11.714611 1.0150496,11.966779 C -0.24107912,13.387291 -0.11316860,14.607625 2.0871635,17.095524 C 2.3311978,16.943127 2.3859524,16.830772 2.4196744,16.718413 C 1.1668253,13.982399 0.98987577,15.147299 1.6188741,12.519759 L 1.6188741,12.519759 L 1.7029999,12.639889 C 3.1346320,13.792746 4.2758900,14.169721 5.4232727,14.169721 C 6.7840522,14.169721 8.0351220,13.470517 9.3904168,12.336777 L 9.3904168,12.336777 C 10.285114,14.714883 10.233497,14.387093 8.8174826,16.735458 C 8.8220541,16.712686 8.8223724,16.702800 8.8205886,16.702800 C 8.8092089,16.702800 8.7123321,17.104697 9.0868969,17.132592 C 11.371353,14.744800 11.381818,13.111092 9.7681582,11.510386 C 9.5851174,11.394221 9.4315486,11.370500 9.3023447,11.370500 C 9.2131577,11.370500 9.1355788,11.381805 9.0679252,11.381805 C 9.0646702,11.381805 9.0614399,11.381777 9.0582308,11.381722 L 8.9921728,7.0774613 L 8.9921728,7.0774613 L 9.1654117,7.1089547 C 10.528922,7.7146816 10.434123,9.5369653 10.323557,10.294859 C 10.340418,10.519573 10.801280,10.899434 10.818141,11.124145 C 11.067287,10.601531 11.709865,6.9702507 9.2668758,6.4327808 L 8.9694730,6.4078997 L 8.9649283,4.6602528 C 9.2890210,4.3552843 9.5372425,4.0743947 9.8613341,3.7694261 C 9.9119172,2.7020352 10.485185,1.7149003 10.670650,1.4099328 C 10.704374,1.3136256 10.889845,0.92840320 10.923567,0.83209707 L 10.923567,0.83209707 C 10.805540,0.84814720 10.510474,1.0327349 10.392452,1.0487861 L 10.240704,0.90432747 L 10.493615,0.23018560 L 9.9372087,0.44687360 L 10.063666,-0.25134187 L 9.4819691,-0.058731732 L 9.6337172,-0.75694933 L 9.0014358,-0.46803093 L 8.9508539,-1.1421728 z "
     id="path1092"
     sodipodi:nodetypes="cccccccccccccccccccccccccccccccccccccccccccccccccccccccccccccccccccccccccccccccccccccccccccccccccccccccccccccccccccccccccccccccccccccccc" />
</svg>
