<?xml version="1.0" encoding="UTF-8" standalone="no"?>
<svg
   xmlns:dc="http://purl.org/dc/elements/1.1/"
   xmlns:cc="http://web.resource.org/cc/"
   xmlns:rdf="http://www.w3.org/1999/02/22-rdf-syntax-ns#"
   xmlns:svg="http://www.w3.org/2000/svg"
   xmlns="http://www.w3.org/2000/svg"
   xmlns:sodipodi="http://sodipodi.sourceforge.net/DTD/sodipodi-0.dtd"
   xmlns:inkscape="http://www.inkscape.org/namespaces/inkscape"
   width="17.596682"
   height="17.804531"
   id="svg1919"
   sodipodi:version="0.32"
   inkscape:version="0.44"
   sodipodi:docname="E22B.svg"
   sodipodi:docbase="C:\Program Files\JSesh\fonts"
   version="1.0">
  <metadata
     id="metadata1926">
    <rdf:RDF>
      <cc:Work
         rdf:about="">
        <dc:format>image/svg+xml</dc:format>
        <dc:type
           rdf:resource="http://purl.org/dc/dcmitype/StillImage" />
        <dc:creator>
          <cc:Agent>
            <dc:title>Serge Thomas</dc:title>
          </cc:Agent>
        </dc:creator>
        <dc:language>FR</dc:language>
        <cc:license
           rdf:resource="http://creativecommons.org/licenses/GPL/2.0/" />
        <dc:description>KRI Israel stela lignes 8 &amp; 9</dc:description>
        <dc:publisher>
          <cc:Agent>
            <dc:title>Serge Rosmorduc</dc:title>
          </cc:Agent>
        </dc:publisher>
        <dc:title>US22E22B</dc:title>
        <dc:date>21/08/2006</dc:date>
      </cc:Work>
      <cc:License
         rdf:about="http://creativecommons.org/licenses/GPL/2.0/">
        <cc:permits
           rdf:resource="http://web.resource.org/cc/Reproduction" />
        <cc:permits
           rdf:resource="http://web.resource.org/cc/Distribution" />
        <cc:requires
           rdf:resource="http://web.resource.org/cc/Notice" />
        <cc:permits
           rdf:resource="http://web.resource.org/cc/DerivativeWorks" />
        <cc:requires
           rdf:resource="http://web.resource.org/cc/ShareAlike" />
        <cc:requires
           rdf:resource="http://web.resource.org/cc/SourceCode" />
      </cc:License>
    </rdf:RDF>
  </metadata>
  <defs
     id="defs1924" />
  <sodipodi:namedview
     inkscape:window-height="708"
     inkscape:window-width="1024"
     inkscape:pageshadow="2"
     inkscape:pageopacity="0.0"
     guidetolerance="10.0"
     gridtolerance="10.0"
     objecttolerance="10.0"
     borderopacity="1.0"
     bordercolor="#666666"
     pagecolor="#ffffff"
     id="base"
     inkscape:zoom="28.981388"
     inkscape:cx="9.0097156"
     inkscape:cy="8.9037455"
     inkscape:window-x="-4"
     inkscape:window-y="-4"
     inkscape:current-layer="svg1919" />
  <path
     style="fill:black;stroke:none"
     d="M 0.90478423,6.3035655 C 0.90478423,6.3035655 0.90478423,6.3035655 0.90478423,6.3035655 z M 14.094459,7.4578213 C 14.094459,7.4578213 14.094459,7.4578213 14.094459,7.4578213 z M 12.328869,15.420216 C 12.32873,15.421071 12.32849,15.420216 12.328869,15.420216 z M 7.7652562,17.184089 L 7.7652922,17.184211 L 7.7652924,17.184211 L 7.7652562,17.184089 L 7.7652562,17.184089 z M 14.467796,8.9914778 C 15.251382,10.77329 15.388266,11.994565 15.30325,13.897413 C 14.94528,13.661049 14.190876,12.995004 13.63756,12.921216 C 13.192625,12.850678 12.787464,12.720151 12.254445,11.499058 C 11.250741,11.204184 10.281099,11.823734 9.3373787,12.098587 C 8.8533472,12.188926 8.2390103,12.44152 7.6607526,12.478797 C 7.098062,12.113443 6.6344262,9.3315745 6.1851698,9.360355 C 6.0835258,9.505866 7.0605016,12.363627 5.4131014,10.551833 C 4.3087957,9.1814447 4.0644089,6.4391593 3.3246797,5.8573546 C 2.5438926,5.5196399 2.2806319,5.7236028 1.5283722,5.892676 C 1.2364686,6.0902759 0.62685563,4.9980511 1.1259534,4.9162683 C 1.9489698,4.8233995 2.2174257,3.3000034 3.361403,3.2752768 C 3.8431237,3.2530426 3.7533413,2.2722501 4.1338107,2.821319 C 4.0132833,3.107562 3.787365,3.5214419 4.5776662,3.7110209 C 5.2576285,4.2137288 4.8896742,5.8230659 5.4168168,6.798278 C 5.7137688,7.7451475 7.0218181,7.9412067 7.8690113,8.1749478 C 9.6526982,8.2103036 11.36806,8.0262772 13.149855,8.0768327 C 13.876308,8.2569613 13.926756,8.1347731 14.467796,8.9914778 z M 15.512775,0.00014882683 C 14.430421,-0.012952513 13.471472,0.84116986 13.009014,1.6785394 C 12.463166,2.6821396 13.358946,2.9269121 14.07737,1.9956 C 14.314314,1.1890407 15.221485,0.64500576 15.985257,1.1454519 C 16.879343,1.7723243 16.631065,3.0406617 16.399194,3.944389 C 15.974547,5.2773547 15.317853,6.687395 14.094459,7.4578213 C 12.754145,7.1952276 11.379436,7.37051 10.022245,7.3265639 C 9.3190535,7.2988313 8.5972141,7.3816027 7.9050526,7.2768546 C 7.0654513,7.1055495 6.052681,6.664788 5.9019553,5.7483369 C 5.7234112,4.4901371 5.8119338,3.59465 4.7964245,3.0260875 C 5.0001392,2.2697014 4.6868658,1.877004 4.019484,1.8596435 C 3.3865996,1.6275962 3.5298361,2.5483642 2.8486497,2.6350425 C 2.0009185,2.8129081 1.9754761,3.2240209 1.6071439,3.7145868 C 1.1344111,4.2111692 -0.14698538,4.6503453 0.013874237,5.2457134 C 0.36716284,5.9462968 0.50223952,6.6973987 1.298345,6.7918376 C 2.34891,6.5659488 2.8850208,6.3075343 2.9849218,7.1864108 C 3.3477763,8.5909192 3.7639706,10.026817 4.655946,11.198565 C 5.0715818,13.990736 4.3981742,15.259145 3.898371,16.496472 C 3.3316828,16.646634 2.1328406,16.859644 2.5070243,17.681092 C 3.339164,17.97806 4.1743523,17.674134 4.9765971,17.450748 C 5.1080039,16.66021 5.3331869,15.884479 5.5584578,15.117636 C 5.8249113,14.394328 5.9331501,13.5515 6.4967091,12.985245 C 7.0754551,14.109303 7.6763113,15.272399 7.8275407,16.544374 C 7.0218493,16.666939 7.2204209,18.040584 7.9759042,17.718548 C 8.5288276,17.600201 8.4142141,17.52899 8.9672173,17.411016 C 9.6739272,17.049922 8.960775,16.625033 8.5090092,15.081578 C 8.1501287,13.761849 8.0993474,13.763026 8.2793601,12.860928 C 9.1230701,12.559272 10.042593,12.499522 10.884741,12.14395 C 11.762795,11.758071 12.197558,12.413241 12.364784,13.188759 C 12.621492,14.046343 12.585921,15.139409 12.011431,15.85978 C 11.578075,16.38004 10.435382,16.718163 11.131032,17.56733 C 11.735296,17.804021 12.545666,17.652966 12.886384,17.036673 C 13.540018,16.255524 13.66999,15.217273 13.954801,14.27341 C 14.638144,14.538538 15.17305,15.105076 15.463017,15.746264 C 15.886633,16.239986 15.611097,16.781518 14.981223,16.866271 C 14.537057,16.929107 14.106193,17.748682 14.69023,17.693341 C 15.528551,17.6809 16.367,17.705247 17.205287,17.686645 C 17.160649,16.3404 16.763107,15.256693 16.137373,14.060592 C 15.813561,12.845459 15.914717,12.20718 15.856813,11.363377 C 15.736193,10.421996 15.421657,9.5168985 15.065844,8.6412329 C 16.402856,6.8853238 17.486824,4.9253862 17.596682,2.6588869 C 17.223677,0.74309003 17.071241,0.29973052 15.512775,0.00014882683 z "
     id="path1921"
     sodipodi:nodetypes="ccccccccccccccccccccccccccccccsccccscccccccccccccccccccccccccccsccccccc" />
</svg>
